<?xml version="1.0" encoding="UTF-8"?>
<svg xmlns="http://www.w3.org/2000/svg" version="1.1" viewBox="0 0 500 500">
  <!-- Generator: Adobe Illustrator 29.7.1, SVG Export Plug-In . SVG Version: 2.1.1 Build 8)  -->
  <defs>
    <style>
      .st0 {
        fill: #42528e;
      }

      .st1, .st2, .st3 {
        fill: #fc0;
      }

      .st4 {
        fill: #e6976d;
      }

      .st5 {
        fill: #f0f1f3;
      }

      .st6 {
        fill: #e59303;
      }

      .st7 {
        fill: #5a9997;
      }

      .st8 {
        fill: #7bc3c3;
      }

      .st9 {
        fill: #f3ce87;
      }

      .st10 {
        fill: #141930;
      }

      .st11 {
        fill: #a2c2c0;
      }

      .st12 {
        fill: #b5d9d7;
      }

      .st13 {
        fill: #fff;
      }

      .st2 {
        mix-blend-mode: screen;
      }

      .st2, .st3, .st14, .st15, .st16 {
        opacity: .5;
      }

      .st17 {
        fill: #1a427d;
      }

      .st18, .st14 {
        fill: #1e2346;
      }

      .st19, .st15 {
        fill: #f3a100;
      }

      .st3, .st20 {
        mix-blend-mode: multiply;
      }

      .st21 {
        fill: #102f54;
      }

      .st22 {
        fill: #f0f1f5;
      }

      .st23 {
        fill: #72c1bf;
      }

      .st24 {
        isolation: isolate;
      }

      .st25 {
        fill: #cbced8;
      }

      .st26 {
        fill: #86d4d4;
      }

      .st27 {
        fill: #f9a91c;
      }

      .st28 {
        fill: #d68505;
      }

      .st29 {
        fill: #68b0ae;
      }

      .st30 {
        fill: #c3eae8;
      }

      .st31 {
        fill: #26377c;
      }

      .st32 {
        fill: #6cacac;
      }

      .st33 {
        fill: #d68900;
      }

      .st34 {
        fill: #a9bff8;
      }

      .st35, .st20 {
        fill: #e37463;
      }

      .st20 {
        opacity: .4;
      }
    </style>
  </defs>
  <g class="st24">
    <g id="BACKGROUND">
      <rect class="st18" x="217.17" y="-123.39" width="4.33"/>
    </g>
    <g id="OBJECTS">
      <g>
        <g>
          <g>
            <rect class="st1" x="61.67" y="386.16" width="137.23" height="21.38"/>
            <rect class="st2" x="61.67" y="386.16" width="47.03" height="21.38"/>
            <rect class="st3" x="153.84" y="386.16" width="45.05" height="21.38"/>
          </g>
          <g>
            <rect class="st1" x="56.67" y="364.84" width="137.23" height="21.38"/>
            <rect class="st2" x="56.67" y="364.84" width="36.42" height="21.38"/>
            <rect class="st3" x="136.08" y="364.84" width="57.81" height="21.38"/>
          </g>
          <g>
            <rect class="st1" x="71.63" y="343.38" width="137.23" height="21.38"/>
            <rect class="st2" x="71.63" y="343.38" width="53.65" height="21.38"/>
            <rect class="st3" x="169.83" y="343.38" width="39.02" height="21.38"/>
          </g>
          <g>
            <rect class="st1" x="63.11" y="322.16" width="137.23" height="21.38"/>
            <rect class="st2" x="63.11" y="322.16" width="40.89" height="21.38"/>
            <rect class="st3" x="144.67" y="322.16" width="55.67" height="21.38"/>
          </g>
          <rect class="st3" x="61.67" y="386.16" width="131.71" height="3.19"/>
          <rect class="st3" x="71.63" y="343.54" width="128.71" height="3.31"/>
        </g>
        <g>
          <rect class="st5" x="208.33" y="85.35" width="207" height="304" rx="18" ry="18"/>
          <rect class="st13" x="190.33" y="143.35" width="243" height="167" transform="translate(538.68 -84.99) rotate(90)"/>
          <rect class="st15" x="237.83" y="164.85" width="9" height="54"/>
          <rect class="st14" x="251.83" y="154.85" width="9" height="64"/>
          <rect class="st15" x="265.83" y="135.85" width="9" height="83"/>
          <rect class="st14" x="279.83" y="157.85" width="9" height="61"/>
          <rect class="st15" x="293.83" y="180.85" width="9" height="38"/>
          <rect class="st15" x="307.83" y="153.35" width="9" height="65.5"/>
          <rect class="st14" x="321.83" y="193.85" width="9" height="25"/>
          <rect class="st15" x="335.83" y="201.35" width="9" height="17.5"/>
          <rect class="st15" x="349.83" y="182.85" width="9" height="36"/>
          <rect class="st14" x="363.83" y="172.85" width="9" height="46"/>
          <rect class="st15" x="377.83" y="164.85" width="9" height="54"/>
          <rect class="st15" x="377.83" y="271.85" width="9" height="54" transform="translate(764.67 597.7) rotate(180)"/>
          <rect class="st14" x="363.83" y="261.85" width="9" height="64" transform="translate(736.67 587.7) rotate(180)"/>
          <rect class="st15" x="349.83" y="242.85" width="9" height="83" transform="translate(708.67 568.7) rotate(180)"/>
          <rect class="st14" x="335.83" y="264.85" width="9" height="61" transform="translate(680.67 590.7) rotate(180)"/>
          <rect class="st15" x="321.83" y="287.85" width="9" height="38" transform="translate(652.67 613.7) rotate(180)"/>
          <rect class="st15" x="307.83" y="260.35" width="9" height="65.5" transform="translate(624.67 586.2) rotate(180)"/>
          <rect class="st14" x="293.83" y="300.85" width="9" height="25" transform="translate(596.67 626.7) rotate(180)"/>
          <rect class="st15" x="279.83" y="308.35" width="9" height="17.5" transform="translate(568.67 634.2) rotate(180)"/>
          <rect class="st15" x="265.83" y="289.85" width="9" height="36" transform="translate(540.67 615.7) rotate(180)"/>
          <rect class="st14" x="251.83" y="279.85" width="9" height="46" transform="translate(512.67 605.7) rotate(180)"/>
          <rect class="st15" x="237.83" y="271.85" width="9" height="54" transform="translate(484.67 597.7) rotate(180)"/>
          <circle class="st13" cx="311.83" cy="366.35" r="10.5"/>
        </g>
        <g>
          <g>
            <rect class="st32" x="246.27" y="207.71" width="201.35" height="103.92"/>
            <path class="st7" d="M419.9,300.26h-145.91v-1.62c0-9.85-7.2-17.86-16.05-17.86h-1.46v-42.22h1.46c8.85,0,16.05-8.01,16.05-17.86v-1.62h145.91v1.62c0,9.85,7.2,17.86,16.05,17.86h1.46v42.22h-1.46c-8.85,0-16.05,8.01-16.05,17.86v1.62ZM276.85,297.02h140.18c.71-10.35,8.16-18.63,17.45-19.42v-35.85c-9.3-.79-16.74-9.08-17.45-19.42h-140.18c-.71,10.35-8.15,18.63-17.45,19.42v35.85c9.3.79,16.74,9.08,17.45,19.42Z"/>
            <g>
              <path class="st7" d="M366.49,241.76h-5.15c-.58-1.46-1.36-2.82-2.3-4.05h5.3l4.48-6.58-2.34-1.78h-36.15l-4.48,6.58,2.34,1.78h17.51c1.8,0,3.49.47,4.95,1.28.79.8,1.46,1.74,1.95,2.77h-23.07l-4.48,6.58,2.34,1.78h25.45c-1.54,3.72-5.2,6.34-9.48,6.34h-17.1v7.53s13.75,24.21,13.75,24.21l2.34,1.78h9.44l-13.99-25.16h7.69c.07,0,.13,0,.2,0,.05,0,.1,0,.15,0,8.5-.07,15.49-6.46,16.54-14.69h1.95l4.48-6.58-2.34-1.78Z"/>
              <path class="st11" d="M356.7,235.93h5.3l4.48-6.58h-36.15l-4.48,6.58h17.51c4.08,0,7.59,2.38,9.24,5.83h-23.07l-4.48,6.58h28.35c-.99,4.64-5.1,8.12-10.03,8.12h-17.1v7.53s13.75,24.21,13.75,24.21h9.44l-13.99-25.16h7.69c.07,0,.13,0,.2,0,.05,0,.1,0,.15,0,8.5-.07,15.49-6.46,16.54-14.69h1.95l4.48-6.58h-6.89c-.59-2.15-1.58-4.12-2.9-5.83Z"/>
            </g>
          </g>
          <g>
            <rect class="st8" x="242.02" y="202.36" width="201.35" height="103.92"/>
            <path class="st29" d="M415.64,294.91h-145.91v-1.62c0-9.85-7.2-17.86-16.05-17.86h-1.46v-42.22h1.46c8.85,0,16.05-8.01,16.05-17.86v-1.62h145.91v1.62c0,9.85,7.2,17.86,16.05,17.86h1.46v42.22h-1.46c-8.85,0-16.05,8.01-16.05,17.86v1.62ZM272.6,291.67h140.18c.71-10.35,8.16-18.63,17.45-19.42v-35.85c-9.3-.79-16.74-9.08-17.45-19.42h-140.18c-.71,10.35-8.16,18.63-17.45,19.42v35.85c9.3.79,16.74,9.08,17.45,19.42Z"/>
            <g>
              <path class="st29" d="M362.24,236.41h-5.15c-.58-1.46-1.36-2.82-2.3-4.05h5.3l4.48-6.58-2.34-1.78h-36.15l-4.48,6.58,2.34,1.78h17.51c1.8,0,3.49.47,4.95,1.28.79.8,1.46,1.74,1.95,2.77h-23.07l-4.48,6.58,2.34,1.78h25.45c-1.54,3.72-5.2,6.34-9.48,6.34h-17.1v7.53s13.75,24.21,13.75,24.21l2.34,1.78h9.44l-13.99-25.16h7.69c.07,0,.13,0,.2,0,.05,0,.1,0,.15,0,8.5-.07,15.49-6.46,16.54-14.69h1.95l4.48-6.58-2.34-1.78Z"/>
              <path class="st12" d="M352.45,230.58h5.3l4.48-6.58h-36.15l-4.48,6.58h17.51c4.08,0,7.59,2.38,9.24,5.83h-23.07l-4.48,6.58h28.35c-.99,4.64-5.1,8.12-10.03,8.12h-17.1v7.53s13.75,24.21,13.75,24.21h9.44l-13.99-25.16h7.69c.07,0,.13,0,.2,0,.05,0,.1,0,.15,0,8.5-.07,15.49-6.46,16.54-14.69h1.95l4.48-6.58h-6.89c-.58-2.15-1.58-4.12-2.9-5.83Z"/>
            </g>
          </g>
          <g>
            <rect class="st26" x="234.98" y="196.58" width="201.35" height="103.92"/>
            <path class="st23" d="M408.61,289.14h-145.91v-1.62c0-9.85-7.2-17.86-16.05-17.86h-1.46v-42.22h1.46c8.85,0,16.05-8.01,16.05-17.86v-1.62h145.91v1.62c0,9.85,7.2,17.86,16.05,17.86h1.46v42.22h-1.46c-8.85,0-16.05,8.01-16.05,17.86v1.62ZM265.56,285.89h140.18c.71-10.35,8.16-18.63,17.45-19.42v-35.85c-9.3-.79-16.74-9.08-17.45-19.42h-140.18c-.71,10.35-8.15,18.63-17.45,19.42v35.85c9.3.79,16.74,9.08,17.45,19.42Z"/>
            <g>
              <path class="st23" d="M355.2,230.64h-5.15c-.58-1.46-1.36-2.82-2.3-4.05h5.3l4.48-6.58-2.34-1.78h-36.15l-4.48,6.58,2.34,1.78h17.51c1.8,0,3.49.47,4.95,1.28.79.8,1.46,1.74,1.95,2.77h-23.07l-4.48,6.58,2.34,1.78h25.45c-1.54,3.72-5.2,6.34-9.48,6.34h-17.1v7.53s13.75,24.21,13.75,24.21l2.34,1.78h9.44l-13.99-25.16h7.69c.07,0,.13,0,.2,0,.05,0,.1,0,.15,0,8.5-.07,15.49-6.46,16.54-14.69h1.95l4.48-6.58-2.34-1.78Z"/>
              <path class="st30" d="M345.41,224.81h5.3l4.48-6.58h-36.15l-4.48,6.58h17.51c4.08,0,7.59,2.38,9.24,5.83h-23.07l-4.48,6.58h28.35c-.99,4.64-5.1,8.12-10.03,8.12h-17.1v7.53s13.75,24.21,13.75,24.21h9.44l-13.99-25.16h7.69c.07,0,.13,0,.2,0,.05,0,.1,0,.15,0,8.5-.07,15.49-6.46,16.54-14.69h1.95l4.48-6.58h-6.89c-.59-2.15-1.58-4.12-2.9-5.83Z"/>
            </g>
          </g>
        </g>
        <g class="st16">
          <polygon class="st18" points="103.38 213.5 98.17 208.83 174.06 124.12 221.96 172.47 313.27 90.2 348.3 140.25 378.74 113.61 383.35 118.87 347.04 150.66 312.08 100.7 221.69 182.13 174.32 134.33 103.38 213.5"/>
          <polygon class="st18" points="387.93 131.09 398.05 101.35 367.24 107.45 387.93 131.09"/>
        </g>
        <g>
          <circle class="st1" cx="382.33" cy="354.07" r="61.26"/>
          <circle class="st33" cx="382.33" cy="354.07" r="47.01"/>
          <circle class="st19" cx="382.33" cy="354.07" r="45.23"/>
          <path class="st33" d="M404.4,335.94h-5.48c-.62-1.56-1.44-3-2.45-4.31h5.65l4.78-7.01-2.49-1.9h-38.51l-4.78,7.01,2.49,1.9h18.66c1.92,0,3.71.5,5.28,1.36.84.86,1.55,1.85,2.08,2.95h-24.58l-4.78,7.01,2.49,1.9h27.11c-1.64,3.96-5.54,6.75-10.1,6.75h-18.22v8.02s14.65,25.79,14.65,25.79l2.49,1.9h10.06l-14.9-26.81h8.19c.07,0,.14,0,.21,0,.05,0,.11,0,.16,0,9.06-.08,16.5-6.88,17.62-15.65h2.07l4.78-7.01-2.49-1.9Z"/>
          <path class="st1" d="M393.98,329.73h5.65l4.78-7.01h-38.51l-4.78,7.01h18.66c4.34,0,8.08,2.54,9.85,6.21h-24.58l-4.78,7.01h30.2c-1.05,4.94-5.44,8.65-10.69,8.65h-18.22v8.02s14.65,25.79,14.65,25.79h10.06l-14.9-26.81h8.19c.07,0,.14,0,.21,0,.05,0,.11,0,.16,0,9.06-.08,16.5-6.88,17.62-15.65h2.07l4.78-7.01h-7.34c-.62-2.29-1.68-4.38-3.09-6.21Z"/>
        </g>
        <rect class="st27" x="212.33" y="354.85" width="91.67" height="54.33"/>
        <g>
          <path class="st10" d="M280.58,264.22s-4-1.75-9-.88l5.5-14,6.37,3.25-2.87,11.62Z"/>
          <circle class="st4" cx="277.02" cy="251.66" r="5.06"/>
          <path class="st10" d="M259.21,246.47s-1.62,8.37-3.25,10.25-3.87,3.62-2.62,5.62,4.13,2.48,6.5,2.12c2.5-.38,5.12-1,6.75-.25s.5-9.75.5-9.75l-3.25-10.87s-5.12,2.75-4.62,2.88Z"/>
          <path class="st4" d="M217.17,313.35s-5,2.33-11.67,4.17c0,0,7,5.17,14.5-.67l-2.83-3.5Z"/>
          <path class="st6" d="M254.67,271.52s-8.33,28-37.5,41.83l2.5,5.17s20-3,41.17-30.17l-6.17-16.83Z"/>
          <path class="st4" d="M208.21,391.22s-5.62,8.38-11.37,10.62c0,0,6.25.5,9.75-2.75s1.62-7.88,1.62-7.88Z"/>
          <path class="st35" d="M224.97,353.04s17.92,39.62,18.86,47.16c.94,7.55-5.97,18.55-5.97,18.55h3.14l10.38-12.89-11.63-48.73,10.38-1.26-5.34-13.52-19.49-.31-.31,11Z"/>
          <path class="st4" d="M226.08,326.63s-8.49-1.89-10.38,5.66c-1.89,7.55-10.86,66.97-10.86,66.97l8.17-2.2,13.83-52.51,22.95.94s-11.46-14.78-23.72-18.86Z"/>
          <path class="st0" d="M213.02,397.06s1.26,3.77-.94,6.6c-2.2,2.83-5.83,7.19-5.83,7.19l-.94-1.57,2.05-5.93-12.79,1.57-7.23-4.09s8.83,1.18,17.51-1.57l8.17-2.2Z"/>
          <path class="st0" d="M241,418.75l10.38-12.89c2.52,3.04,1.89,5.76,1.89,5.76l-.42,10.69h-1.89l-.84-9.22-8.17,8.17h-8.59l4.51-2.52h3.14Z"/>
          <path class="st27" d="M276.36,268.37l9.06,3.96c2.23.97,3.41,3.43,2.77,5.78-1.77,6.49-4.12,23.46-1.74,39.79h-29.18s-4.19-25.81-3.8-44.29c.05-2.33,1.74-4.29,4.03-4.71l8.07-1.45,10.78.92Z"/>
          <path class="st35" d="M280.75,274.35c-.26,3.5-5.28,5.97-11.22,5.53-5.94-.44-10.55-3.63-10.29-7.13s5.28-5.97,11.22-5.53c5.94.44,10.55,3.63,10.29,7.13Z"/>
          <path class="st35" d="M275.24,256.56s.15,7.67,1.38,12.27c0,0-5.52,1.38-12.12,0,0,0,2.61-2.61,3.07-10.74l7.67-1.53Z"/>
          <path class="st27" d="M255.98,277.77l-6.29,12.12s1.99,6.6,10.59,5.83l8.9-5.83-13.19-12.12Z"/>
          <path class="st0" d="M286.45,317.9s4.43,11.95,4.68,19.66c.24,7.37-1.9,16.65-18.63,17.92-15.73,1.19-18.24,1.59-30.29,1.59,0,0-3.33-24.1-11.58-30.76,0,0,12.45-3.96,26.64-8.4h29.18Z"/>
          <path class="st28" d="M288.04,275.12c-.47-.34-.9-.57-1.2-.72-4.08-2.02-8.34,4.48-8.34,4.48,0,0-6.51,13.4-23.09,25.32.53,4.51,1.06,8.29,1.42,10.73,8.17-3.48,17.47-8.84,25.05-16.99,1.56-1.67,2.87-3.23,3.98-4.69.53-6.61,1.5-12.06,2.34-15.14.28-1.02.19-2.06-.15-2.99Z"/>
          <path class="st19" d="M279.17,277.35s-12.67,23.83-45.42,34.92l2.33,5.5s27.33-2.83,45.75-21.25c16.5-16.5,7.93-22.2,5.83-23.33-4-2.17-8.5,4.17-8.5,4.17Z"/>
          <path class="st4" d="M233.75,312.27l-12.25,4.58,2.33,5.67s6.17,1,12.25-4.75l-2.33-5.5Z"/>
          <path class="st20" d="M275.71,263.53c-.09-.85-.17-1.68-.23-2.46l-7.83-2.98h-.07c-.31,5.57-1.63,8.55-2.43,9.88,5.5-.38,8.85-2.72,10.58-4.43Z"/>
          <path class="st4" d="M260.52,243.21h16.26v14.05c0,4.27-3.47,7.74-7.74,7.74h-.79c-4.27,0-7.74-3.47-7.74-7.74v-14.05h0Z"/>
          <path class="st18" d="M272.71,243.6s.12,5.12,3.5,8.25c0,0,1.37-3.62,3.12-1.25s.12,4.87-2.75,5.25c0,0-.87,6.62,1.87,9.5s2.75-2.38,6.37-1.88,6-.5,4-3.75-5.37-11.5-5.75-15.5-1.62-10.38-6.12-8.88c0,0-.62-4.12-5.12-4.38s-7.62,4-11.12,3.38-7,.75-7.5,5c-.61,5.23,1.25,9,7.75,8.12,0,0,9.62-1.5,11.75-3.88Z"/>
        </g>
        <rect class="st17" x="169.74" y="323.77" width="141.76" height="5.39"/>
        <rect class="st34" x="168.12" y="325.91" width="145.01" height="1.11"/>
        <g>
          <circle class="st1" cx="155.35" cy="246.96" r="74.25"/>
          <circle class="st33" cx="155.35" cy="246.96" r="56.98" transform="translate(-119.49 344.88) rotate(-77.44)"/>
          <circle class="st19" cx="155.35" cy="246.96" r="54.82" transform="translate(-120.18 342.91) rotate(-77.03)"/>
          <path class="st33" d="M182.1,224.99h-6.65c-.75-1.88-1.75-3.64-2.97-5.22h6.85l5.79-8.49-3.02-2.3h-46.67l-5.79,8.49,3.02,2.3h22.61c2.32,0,4.5.6,6.4,1.65,1.02,1.04,1.88,2.24,2.52,3.57h-29.8l-5.79,8.49,3.02,2.3h32.86c-1.99,4.8-6.72,8.18-12.24,8.18h-22.08v9.72s17.76,31.26,17.76,31.26l3.02,2.3h12.19l-18.06-32.49h9.93c.08,0,.17,0,.26,0,.07,0,.13,0,.19,0,10.98-.09,20-8.34,21.35-18.97h2.51l5.79-8.49-3.02-2.3Z"/>
          <path class="st1" d="M169.46,217.47h6.85l5.79-8.49h-46.67l-5.79,8.49h22.61c5.26,0,9.8,3.08,11.94,7.53h-29.8l-5.79,8.49h36.61c-1.27,5.99-6.59,10.48-12.96,10.48h-22.08v9.72s17.76,31.26,17.76,31.26h12.19l-18.06-32.49h9.93c.08,0,.17,0,.26,0,.07,0,.13,0,.19,0,10.98-.09,20-8.34,21.35-18.97h2.51l5.79-8.49h-8.89c-.76-2.77-2.04-5.31-3.75-7.53Z"/>
        </g>
        <rect class="st21" x="172.92" y="329.16" width="136.37" height="2.54"/>
        <polygon class="st4" points="164.35 425.8 159.83 425.8 176.48 331.69 183.38 331.69 164.35 425.8"/>
        <polygon class="st4" points="315 425.8 319.52 425.8 302.87 331.69 295.97 331.69 315 425.8"/>
        <g>
          <polygon class="st22" points="227.27 321.28 181.02 321.28 172.92 291.17 219.17 291.17 227.27 321.28"/>
          <polygon class="st25" points="227.37 321.28 226 321.28 217.9 291.17 219.27 292.6 227.37 321.28"/>
          <rect class="st25" x="181.02" y="321.28" width="65.75" height="2.49"/>
          <path class="st25" d="M200.93,306.59c.49,2.62-.95,5.09-3.22,5.51-2.26.42-4.49-1.37-4.98-3.99-.49-2.62.95-5.09,3.22-5.51,2.26-.42,4.49,1.37,4.98,3.99Z"/>
        </g>
        <g>
          <polygon class="st5" points="76.74 416.55 50.18 416.55 46.87 383.5 80.06 383.5 76.74 416.55"/>
          <path class="st5" d="M80.06,383.5c0-1.83-7.43-3.32-16.59-3.32s-16.6,1.48-16.6,3.32,7.43,3.32,16.6,3.32,16.59-1.48,16.59-3.32Z"/>
          <path class="st18" d="M78.04,383.5c0-1.61-6.53-2.91-14.58-2.91s-14.58,1.3-14.58,2.91,6.53,2.91,14.58,2.91,14.58-1.3,14.58-2.91Z"/>
          <path class="st5" d="M76.74,416.44c0-1.83-5.94-3.32-13.28-3.32s-13.28,1.48-13.28,3.32,5.94,3.32,13.28,3.32,13.28-1.48,13.28-3.32Z"/>
          <g>
            <path class="st31" d="M79.38,372.06c.1-1.55-.57-2.69-1.15-3.7-.58-1.01-1.03-1.88-.37-2.85.35-.47,1-.93,1.81-1.42.81-.49,1.77-.99,2.84-1.48,2.09-1.04,4.42-2.12,6.15-3.67.89-.76,1.48-1.54,1.95-2.26.47-.72.76-1.44.94-2.16.35-1.45.36-2.77.46-4.04.06-.62.47-1.23,1.15-1.76.68-.53,1.57-1.03,2.53-1.52.97-.47,2.04-.89,3.02-1.36.97-.48,1.92-.88,2.63-1.43.4-.29.71-.66.97-1.06.27-.38.48-.82.65-1.27.33-.91.49-1.91.55-2.81.13-1.7-.65-3.3-2.17-4.09-.8-.42-1.77-.8-2.81-.95-.52-.08-1.06-.09-1.59-.03-.53.08-1.05.25-1.56.51-.91.5-1.9,1.18-2.8,2.05-.91.86-1.83,1.77-2.68,2.65-.83.9-1.64,1.72-2.4,2.31-.76.59-1.45,1-2.13,1-1.33.02-2.86-.14-4.48.35-.82.23-1.67.6-2.57,1.19-.9.59-1.78,1.45-2.7,2.57-1.82,2.29-2.87,5.21-3.52,7.79-.36,1.27-.59,2.5-.84,3.52-.25,1.03-.52,1.85-.86,2.41-.66,1.13-1.66,1.13-2.88,1.14-1.21.01-2.67,0-4.09,1.23-.56.48-.85,1.24-.96,2.24-.1,1,.03,2.27.21,3.68.17,1.41.5,3.03.82,4.77.28,1.72.68,3.61.92,5.57.17,1.37,1.65,1.86,2.66.95,1.46-1.3,2.89-2.34,4.35-3.15,1.42-.82,2.74-1.46,3.93-1.98,1.18-.52,2.13-.98,2.83-1.44.72-.45,1.14-.93,1.18-1.53Z"/>
            <path class="st13" d="M64.3,384.18c-.2-.06-.3-.28-.23-.5,0,0,.27-.85.74-2.35.22-.75.55-1.64.94-2.66.38-1.02.8-2.18,1.36-3.4,2.11-4.93,5.5-11.29,9.94-16.93,2.14-2.87,4.59-5.49,6.92-7.9,2.41-2.34,4.74-4.43,6.87-6.07,2.09-1.69,3.97-2.91,5.24-3.82,1.33-.83,2.09-1.3,2.09-1.3.19-.12.44-.08.54.1.11.17.04.41-.16.53,0,0-.75.47-2.07,1.29-1.26.9-3.12,2.11-5.19,3.78-2.11,1.62-4.42,3.7-6.8,6.01-2.31,2.39-4.74,4.98-6.85,7.83-4.39,5.58-7.75,11.89-9.84,16.77-.56,1.21-.97,2.36-1.35,3.37-.39,1.01-.72,1.89-.93,2.64-.47,1.48-.74,2.32-.74,2.32-.07.22-.28.35-.48.29Z"/>
          </g>
          <g>
            <path class="st26" d="M68.19,366c-1.05-1.37-2.44-1.64-3.6-1.87-1.16-.23-2.12-.41-2.45-1.53-.18-.56-.23-1.34-.2-2.3.03-.96.12-2.1.1-3.31.03-2.44-.23-5.28-1.4-7.66-.61-1.17-1.23-2.1-1.93-2.77-.71-.67-1.43-1.14-2.14-1.47-1.4-.68-2.87-.74-4.11-.93-.64-.08-1.17-.55-1.75-1.2-.57-.64-1.13-1.51-1.7-2.45-.59-.93-1.24-1.9-1.89-2.81-.32-.46-.68-.89-1.04-1.26-.36-.38-.73-.72-1.1-1-.41-.31-.86-.53-1.32-.66-.48-.12-.98-.16-1.47-.14-.98.03-1.95.3-2.76.61-1.54.6-2.55,2.06-2.79,3.69-.12.86-.2,1.82-.1,2.71.05.44.14.87.3,1.25.14.4.35.77.63,1.08.26.28.57.55.92.8.36.25.73.51,1.11.77.77.53,1.64,1.02,2.41,1.56.75.55,1.45,1.11,1.94,1.66.49.56.72,1.16.62,1.73-.22,1.16-.54,2.37-.6,3.71-.02.66.06,1.34.31,2.03.24.7.59,1.45,1.21,2.23,1.19,1.57,3.07,2.81,4.76,4.01.87.58,1.65,1.16,2.28,1.7.63.54,1.13,1.05,1.33,1.51.37.94-.29,1.62-1.11,2.4-.82.77-1.77,1.64-2.1,2.96-.12.52.14.99.69,1.5.54.51,1.31,1.07,2.28,1.73.99.66,2.07,1.45,3.21,2.42,1.18.97,2.27,2.14,3.34,3.54.74.98,2.29.92,2.82-.22.75-1.64,1.63-3.2,2.36-4.64.77-1.45,1.53-2.8,2.08-4.01.56-1.21,1.03-2.3,1.21-3.21.17-.91.1-1.65-.32-2.18Z"/>
            <path class="st13" d="M61.68,384.3c-.2,0-.37-.16-.38-.36,0,0-.03-.78-.08-2.14,0-.68-.08-1.51-.18-2.45-.09-.94-.17-2.01-.38-3.16-.69-4.61-2.22-10.72-4.92-16.35-1.26-2.85-2.88-5.53-4.44-8-1.65-2.41-3.28-4.6-4.84-6.34-1.51-1.79-2.94-3.11-3.89-4.09-1.02-.91-1.6-1.43-1.6-1.43-.15-.13-.16-.37-.03-.52.13-.15.36-.17.51-.04,0,0,.59.53,1.62,1.44.96.99,2.41,2.33,3.94,4.14,1.58,1.76,3.23,3.98,4.9,6.42,1.58,2.5,3.21,5.21,4.49,8.09,2.73,5.7,4.29,11.88,4.98,16.55.21,1.17.3,2.25.39,3.2.1.96.18,1.79.18,2.48.05,1.38.08,2.17.08,2.17,0,.2-.15.37-.36.37Z"/>
          </g>
          <g>
            <path class="st9" d="M71.16,363.57c-.62-1.68-1.72-2.49-2.7-3.22-.97-.73-1.77-1.37-1.61-2.73.1-.68.48-1.51.99-2.46.51-.95,1.15-2.01,1.9-3.12,1.42-2.25,3.06-4.71,3.96-7.3.48-1.29.68-2.43.8-3.44.12-1,.07-1.9-.08-2.72-.32-1.65-.89-2.96-1.35-4.27-.21-.64-.11-1.49.29-2.41.39-.92,1.01-1.95,1.68-3.01.7-1.05,1.52-2.1,2.22-3.15.35-.53.7-1.04,1.02-1.53.32-.5.6-.98.82-1.46.24-.52.38-1.06.45-1.61.09-.53.09-1.07.05-1.6-.09-1.06-.4-2.1-.74-2.98-.65-1.67-2.11-2.67-3.9-2.49-.94.1-2.03.33-3.07.81-.52.24-1.03.54-1.5.92-.45.39-.86.85-1.21,1.4-.32.5-.61,1.06-.9,1.66-.29.6-.55,1.24-.77,1.92-.45,1.35-.89,2.75-1.28,4.09-.36,1.35-.74,2.6-1.18,3.61-.44,1.01-.88,1.81-1.5,2.2-1.21.79-2.69,1.52-3.93,2.91-.64.69-1.25,1.54-1.81,2.61-.55,1.07-.96,2.41-1.3,4.02-.62,3.25-.25,6.69.32,9.62.25,1.46.59,2.81.83,3.97.24,1.16.37,2.13.31,2.88-.08,1.49-.98,2.04-2.06,2.69-1.08.66-2.38,1.43-3.09,3.4-.29.77-.19,1.69.16,2.75.37,1.06,1.06,2.27,1.87,3.61.79,1.34,1.83,2.82,2.91,4.43,1.04,1.62,2.27,3.36,3.39,5.26.79,1.33,2.33,1.11,2.81-.34.69-2.09,1.48-3.91,2.41-5.51.89-1.6,1.76-2.96,2.59-4.14.81-1.18,1.44-2.17,1.87-3.03.43-.86.59-1.6.36-2.26Z"/>
            <path class="st13" d="M63.35,384.06c-.2.04-.4-.15-.44-.41,0,0-.16-1.02-.43-2.8-.06-.45-.16-.94-.22-1.48-.06-.54-.12-1.13-.19-1.75-.13-1.25-.3-2.66-.36-4.21-.39-6.17-.26-14.48,1.22-22.61.64-4.08,1.7-8.08,2.75-11.8,1.16-3.69,2.37-7.1,3.61-9.93,1.18-2.87,2.38-5.15,3.16-6.78.87-1.58,1.37-2.49,1.37-2.49.13-.23.37-.34.55-.24.18.1.22.37.09.6,0,0-.49.9-1.36,2.47-.77,1.62-1.97,3.88-3.14,6.73-1.23,2.82-2.43,6.2-3.58,9.86-1.04,3.69-2.1,7.66-2.73,11.71-1.47,8.07-1.59,16.32-1.21,22.44.06,1.54.23,2.93.36,4.17.07.62.13,1.2.18,1.74.06.54.15,1.02.21,1.47.27,1.77.43,2.78.43,2.78.04.26-.09.5-.29.53Z"/>
          </g>
        </g>
        <g>
          <polygon class="st5" points="436.74 416.55 410.18 416.55 406.87 383.5 440.06 383.5 436.74 416.55"/>
          <path class="st5" d="M440.06,383.5c0-1.83-7.43-3.32-16.59-3.32s-16.59,1.48-16.59,3.32,7.43,3.32,16.59,3.32,16.59-1.48,16.59-3.32Z"/>
          <path class="st18" d="M438.04,383.5c0-1.61-6.53-2.91-14.58-2.91s-14.58,1.3-14.58,2.91,6.53,2.91,14.58,2.91,14.58-1.3,14.58-2.91Z"/>
          <path class="st5" d="M436.74,416.44c0-1.83-5.94-3.32-13.28-3.32s-13.28,1.48-13.28,3.32,5.94,3.32,13.28,3.32,13.28-1.48,13.28-3.32Z"/>
          <g>
            <path class="st31" d="M439.38,372.06c.1-1.55-.57-2.69-1.15-3.7-.58-1.01-1.03-1.88-.37-2.85.34-.47,1-.93,1.81-1.42.81-.49,1.77-.99,2.84-1.48,2.09-1.04,4.42-2.12,6.15-3.67.89-.76,1.48-1.54,1.95-2.26.47-.72.76-1.44.94-2.16.35-1.45.36-2.77.46-4.04.06-.62.47-1.23,1.15-1.76.68-.53,1.57-1.03,2.53-1.52.97-.47,2.04-.89,3.02-1.36.97-.48,1.92-.88,2.63-1.43.4-.29.71-.66.97-1.06.27-.38.48-.82.65-1.27.33-.91.49-1.91.55-2.81.13-1.7-.65-3.3-2.17-4.09-.8-.42-1.77-.8-2.81-.95-.52-.08-1.06-.09-1.59-.03-.53.08-1.05.25-1.56.51-.91.5-1.9,1.18-2.8,2.05-.91.86-1.83,1.77-2.68,2.65-.83.9-1.64,1.72-2.4,2.31-.76.59-1.45,1-2.13,1-1.33.02-2.86-.14-4.48.35-.82.23-1.67.6-2.57,1.19-.9.59-1.78,1.45-2.7,2.57-1.82,2.29-2.87,5.21-3.52,7.79-.36,1.27-.59,2.5-.84,3.52-.25,1.03-.52,1.85-.86,2.41-.66,1.13-1.66,1.13-2.88,1.14-1.21.01-2.67,0-4.09,1.23-.56.48-.85,1.24-.96,2.24-.1,1,.03,2.27.21,3.68.17,1.41.5,3.03.82,4.77.28,1.72.68,3.61.92,5.57.17,1.37,1.65,1.86,2.66.95,1.46-1.3,2.89-2.34,4.35-3.15,1.42-.82,2.74-1.46,3.93-1.98,1.18-.52,2.13-.98,2.83-1.44.72-.45,1.14-.93,1.18-1.53Z"/>
            <path class="st13" d="M424.3,384.18c-.2-.06-.3-.28-.23-.5,0,0,.27-.85.74-2.35.22-.75.55-1.64.94-2.66.38-1.02.8-2.18,1.36-3.4,2.11-4.93,5.5-11.29,9.94-16.93,2.14-2.87,4.59-5.49,6.92-7.9,2.41-2.34,4.74-4.43,6.87-6.07,2.09-1.69,3.97-2.91,5.24-3.82,1.33-.83,2.09-1.3,2.09-1.3.19-.12.44-.08.54.1.11.17.04.41-.16.53,0,0-.75.47-2.07,1.29-1.26.9-3.12,2.11-5.19,3.78-2.11,1.62-4.42,3.7-6.8,6.01-2.31,2.39-4.73,4.98-6.85,7.83-4.39,5.58-7.75,11.89-9.84,16.77-.56,1.21-.97,2.36-1.35,3.37-.39,1.01-.71,1.89-.93,2.64-.47,1.48-.74,2.32-.74,2.32-.07.22-.28.35-.48.29Z"/>
          </g>
          <g>
            <path class="st26" d="M428.19,366c-1.05-1.37-2.44-1.64-3.6-1.87-1.16-.23-2.12-.41-2.45-1.53-.18-.56-.23-1.34-.2-2.3.03-.96.12-2.1.1-3.31.03-2.44-.23-5.28-1.4-7.66-.61-1.17-1.23-2.1-1.93-2.77-.71-.67-1.43-1.14-2.14-1.47-1.4-.68-2.87-.74-4.11-.93-.64-.08-1.17-.55-1.75-1.2-.57-.64-1.13-1.51-1.7-2.45-.59-.93-1.24-1.9-1.89-2.81-.32-.46-.68-.89-1.04-1.26-.36-.38-.73-.72-1.1-1-.41-.31-.86-.53-1.32-.66-.48-.12-.98-.16-1.47-.14-.98.03-1.95.3-2.76.61-1.54.6-2.55,2.06-2.79,3.69-.12.86-.2,1.82-.1,2.71.05.44.14.87.3,1.25.14.4.35.77.63,1.08.26.28.57.55.92.8.36.25.73.51,1.11.77.77.53,1.64,1.02,2.41,1.56.75.55,1.45,1.11,1.94,1.66.49.56.72,1.16.62,1.73-.22,1.16-.54,2.37-.6,3.71-.02.66.06,1.34.31,2.03.24.7.59,1.45,1.21,2.23,1.19,1.57,3.07,2.81,4.76,4.01.87.58,1.65,1.16,2.28,1.7.63.54,1.13,1.05,1.33,1.51.37.94-.29,1.62-1.11,2.4-.82.77-1.77,1.64-2.1,2.96-.12.52.14.99.69,1.5.54.51,1.31,1.07,2.28,1.73.99.66,2.07,1.45,3.21,2.42,1.18.97,2.27,2.14,3.34,3.54.74.98,2.29.92,2.82-.22.75-1.64,1.63-3.2,2.36-4.64.77-1.45,1.53-2.8,2.08-4.01.56-1.21,1.03-2.3,1.21-3.21.17-.91.1-1.65-.32-2.18Z"/>
            <path class="st13" d="M421.68,384.3c-.2,0-.37-.16-.38-.36,0,0-.03-.78-.08-2.14,0-.68-.08-1.51-.18-2.45-.09-.94-.17-2.01-.38-3.16-.69-4.61-2.22-10.72-4.92-16.35-1.26-2.85-2.88-5.53-4.44-8-1.65-2.41-3.28-4.6-4.84-6.34-1.51-1.79-2.94-3.11-3.89-4.09-1.02-.91-1.6-1.43-1.6-1.43-.15-.13-.16-.37-.03-.52.13-.15.36-.17.51-.04,0,0,.59.53,1.62,1.44.96.99,2.41,2.33,3.94,4.14,1.58,1.76,3.23,3.98,4.9,6.42,1.58,2.5,3.21,5.21,4.49,8.09,2.73,5.7,4.29,11.88,4.98,16.55.21,1.17.3,2.25.39,3.2.1.96.18,1.79.18,2.48.05,1.38.08,2.17.08,2.17,0,.2-.15.37-.36.37Z"/>
          </g>
          <g>
            <path class="st9" d="M431.16,363.57c-.62-1.68-1.72-2.49-2.7-3.22-.97-.73-1.77-1.37-1.61-2.73.1-.68.48-1.51.99-2.46.51-.95,1.15-2.01,1.9-3.12,1.42-2.25,3.06-4.71,3.96-7.3.48-1.29.68-2.43.8-3.44.12-1,.07-1.9-.08-2.72-.32-1.65-.89-2.96-1.35-4.27-.21-.64-.11-1.49.29-2.41.39-.92,1.01-1.95,1.68-3.01.7-1.05,1.52-2.1,2.22-3.15.35-.53.7-1.04,1.02-1.53.32-.5.6-.98.82-1.46.24-.52.38-1.06.45-1.61.09-.53.09-1.07.05-1.6-.09-1.06-.4-2.1-.74-2.98-.65-1.67-2.11-2.67-3.9-2.49-.94.1-2.03.33-3.07.81-.52.24-1.03.54-1.5.92-.45.39-.86.85-1.21,1.4-.32.5-.61,1.06-.9,1.66-.29.6-.55,1.24-.77,1.92-.45,1.35-.89,2.75-1.28,4.09-.36,1.35-.74,2.6-1.18,3.61-.44,1.01-.88,1.81-1.5,2.2-1.21.79-2.69,1.52-3.93,2.91-.64.69-1.25,1.54-1.81,2.61-.55,1.07-.96,2.41-1.3,4.02-.62,3.25-.25,6.69.32,9.62.25,1.46.59,2.81.83,3.97.24,1.16.37,2.13.31,2.88-.08,1.49-.98,2.04-2.06,2.69-1.08.66-2.38,1.43-3.09,3.4-.29.77-.19,1.69.16,2.75.37,1.06,1.06,2.27,1.87,3.61.79,1.34,1.83,2.82,2.91,4.43,1.04,1.62,2.27,3.36,3.39,5.26.79,1.33,2.33,1.11,2.81-.34.69-2.09,1.48-3.91,2.41-5.51.89-1.6,1.76-2.96,2.59-4.14.81-1.18,1.44-2.17,1.87-3.03.43-.86.59-1.6.36-2.26Z"/>
            <path class="st13" d="M423.35,384.06c-.2.04-.4-.15-.44-.41,0,0-.16-1.02-.43-2.8-.06-.45-.16-.94-.22-1.48-.06-.54-.12-1.13-.18-1.75-.13-1.25-.3-2.66-.36-4.21-.39-6.17-.26-14.48,1.22-22.61.64-4.08,1.7-8.08,2.75-11.8,1.16-3.69,2.37-7.1,3.61-9.93,1.18-2.87,2.38-5.15,3.16-6.78.87-1.58,1.37-2.49,1.37-2.49.13-.23.37-.34.55-.24.18.1.22.37.09.6,0,0-.49.9-1.36,2.47-.77,1.62-1.97,3.88-3.14,6.73-1.23,2.82-2.43,6.2-3.58,9.86-1.04,3.69-2.1,7.66-2.73,11.71-1.47,8.07-1.59,16.32-1.21,22.44.06,1.54.23,2.93.36,4.17.07.62.13,1.2.18,1.74.06.54.15,1.02.21,1.47.27,1.77.43,2.78.43,2.78.04.26-.09.5-.29.53Z"/>
          </g>
        </g>
      </g>
    </g>
  </g>
</svg>