<?xml version="1.0" encoding="UTF-8"?>
<svg id="Capa_1" xmlns="http://www.w3.org/2000/svg" version="1.1" xmlns:xlink="http://www.w3.org/1999/xlink" viewBox="0 0 425.2 425.2">
  <!-- Generator: Adobe Illustrator 29.7.1, SVG Export Plug-In . SVG Version: 2.1.1 Build 8)  -->
  <defs>
    <style>
      .st0 {
        fill: #aee0ef;
      }

      .st1 {
        fill: #46c6e6;
      }

      .st2 {
        stroke-dasharray: 1.03 1.03;
      }

      .st2, .st3, .st4, .st5, .st6 {
        fill: none;
      }

      .st2, .st4, .st5, .st6 {
        stroke: #aee0ef;
        stroke-miterlimit: 10;
        stroke-width: .75px;
      }

      .st7, .st8 {
        fill: #fff;
      }

      .st9 {
        fill: #a4def6;
      }

      .st10 {
        fill: #6a54a1;
      }

      .st11 {
        fill: #6881bd;
      }

      .st8 {
        isolation: isolate;
        opacity: .3;
      }

      .st4 {
        stroke-dasharray: .91 .91;
      }

      .st12 {
        fill: #9eabd3;
      }

      .st13 {
        fill: #5c79bc;
      }

      .st14 {
        fill: #fdd371;
      }

      .st5 {
        stroke-dasharray: 1.13 1.13;
      }

      .st15 {
        fill: #8da4ce;
      }

      .st16 {
        fill: #6c3d85;
      }

      .st17 {
        fill: #aed38f;
      }

      .st18 {
        fill: #a5dbef;
      }

      .st19 {
        fill: #00b4db;
      }

      .st20 {
        fill: #6fcff3;
      }

      .st21 {
        clip-path: url(#clippath);
      }

      .st22 {
        fill: #184892;
      }
    </style>
    <clipPath id="clippath">
      <path class="st3" d="M376.06,239.63c0,11.65-9.44,21.1-21.1,21.1s-21.1-9.44-21.1-21.1,9.44-21.09,21.1-21.09,21.1,9.44,21.1,21.09Z"/>
    </clipPath>
  </defs>
  <g>
    <path class="st12" d="M146.66,338.66l-15.66,11.55c0,1.56,1.27,2.82,2.82,2.82h136.54c1.55,0,2.81-1.26,2.81-2.82l-15.66-11.55h-110.85Z"/>
    <g>
      <g>
        <rect class="st22" x="147.1" y="335.05" width="109.97" height="7.83"/>
        <polygon class="st9" points="147.1 335.05 161.67 324.86 242.49 324.86 257.07 335.05 147.1 335.05"/>
      </g>
      <g>
        <path class="st22" d="M341.41,287.3c0,2.15-1.74,3.89-3.88,3.89H66.64c-2.14,0-3.88-1.74-3.88-3.89V112.42c0-2.15,1.74-3.89,3.88-3.89h270.89c2.15,0,3.88,1.74,3.88,3.89v174.88h0Z"/>
        <g>
          <rect class="st10" x="71.45" y="120.47" width="261.27" height="158.79"/>
          <polygon class="st8" points="71.45 120.47 71.45 279.26 332.72 279.26 71.45 120.47"/>
        </g>
      </g>
      <path class="st22" d="M178.8,291.19v36.94c0,2.11,10.43,3.83,23.28,3.83s23.28-1.71,23.28-3.83v-36.94h-46.56Z"/>
    </g>
  </g>
  <rect class="st15" x="232.94" y="79.13" width="135.28" height="95.46"/>
  <g>
    <rect class="st18" x="226.12" y="72.17" width="135.28" height="95.46"/>
    <rect class="st11" x="226.12" y="72.17" width="135.28" height="8.94"/>
    <g>
      <circle class="st9" cx="342.18" cy="76.37" r="2.5"/>
      <circle class="st10" cx="349.18" cy="76.37" r="2.5"/>
      <circle class="st16" cx="355.88" cy="76.37" r="2.5"/>
    </g>
    <rect class="st19" x="234.67" y="89.11" width="27.86" height="27.86"/>
    <rect class="st19" x="234.67" y="126.61" width="27.86" height="27.86"/>
    <g>
      <path class="st6" d="M257.6,141.19c.02-.21.03-.43.03-.65s-.01-.43-.03-.65c-1.78-.76-2.02-1.64-.86-3.16-.18-.37-.39-.72-.62-1.05-1.9.27-2.52-.36-2.25-2.25-.34-.23-.69-.44-1.05-.62-1.52,1.16-2.41.92-3.16-.86-.21-.02-.43-.03-.65-.03s-.43.01-.65.03c-.76,1.78-1.64,2.03-3.16.86-.37.18-.72.39-1.05.62.27,1.9-.35,2.52-2.25,2.25-.23.34-.44.69-.62,1.05,1.17,1.52.92,2.41-.86,3.16-.02.21-.03.43-.03.65s0,.43.03.65c1.78.76,2.03,1.64.86,3.16.18.37.39.72.62,1.05,1.9-.27,2.52.35,2.25,2.25.34.23.69.44,1.05.62,1.52-1.16,2.41-.92,3.16.86.21.02.43.03.65.03s.43-.01.65-.03c.76-1.78,1.64-2.02,3.16-.86.37-.18.72-.39,1.05-.62-.27-1.9.35-2.52,2.25-2.25.23-.34.44-.69.62-1.05-1.17-1.52-.92-2.41.86-3.16Z"/>
      <path class="st6" d="M253.01,140.54c0,2.22-1.8,4.01-4.01,4.01s-4.02-1.8-4.02-4.01,1.8-4.01,4.02-4.01,4.01,1.8,4.01,4.01Z"/>
      <g>
        <path class="st6" d="M249,146.47c-3.27,0-5.93-2.65-5.93-5.93s2.65-5.93,5.93-5.93"/>
        <g>
          <path class="st6" d="M249,134.62c.17,0,.34,0,.5.02"/>
          <path class="st2" d="M250.52,134.82c2.54.67,4.41,2.98,4.41,5.73,0,2.93-2.12,5.36-4.91,5.84"/>
          <path class="st6" d="M249.5,146.45c-.16.01-.33.02-.5.02"/>
        </g>
      </g>
    </g>
    <g>
      <path class="st6" d="M255.28,111.61c0,.85-.69,1.53-1.53,1.53h-9.72c-.85,0-1.53-.69-1.53-1.53v-9.72c0-.85.69-1.53,1.53-1.53h9.72c.85,0,1.53.68,1.53,1.53v9.72Z"/>
      <path class="st6" d="M243.86,106.14v-3.22c0-.67.54-1.2,1.2-1.2h1.12"/>
      <g>
        <line class="st6" x1="245.22" y1="111.77" x2="246.48" y2="111.77"/>
        <line class="st6" x1="247.11" y1="111.77" x2="248.37" y2="111.77"/>
        <line class="st6" x1="249" y1="111.77" x2="250.26" y2="111.77"/>
        <line class="st6" x1="250.89" y1="111.77" x2="252.15" y2="111.77"/>
      </g>
      <path class="st6" d="M248.89,109.58c-1.57,0-2.84-1.27-2.84-2.84s1.27-2.84,2.84-2.84"/>
      <g>
        <path class="st6" d="M248.89,103.91c.17,0,.34.01.5.04"/>
        <path class="st5" d="M250.43,104.36c.78.51,1.29,1.38,1.29,2.38,0,1.2-.74,2.22-1.8,2.64"/>
        <path class="st6" d="M249.39,109.54c-.16.03-.33.04-.5.04"/>
      </g>
      <path class="st6" d="M253.49,100.35h-9.2v-4.01c0-1.87,1.52-3.39,3.39-3.39h2.43c1.87,0,3.39,1.52,3.39,3.39v4.01h0ZM246.05,100.35h5.67v-4.01c0-.89-.73-1.62-1.62-1.62h-2.43c-.9,0-1.62.73-1.62,1.62v4.01h0Z"/>
      <g>
        <line class="st6" x1="245.22" y1="100.08" x2="245.22" y2="99.58"/>
        <path class="st4" d="M245.22,98.67v-2.01s-.1-1.8,1.33-2.51"/>
        <path class="st6" d="M246.98,93.98c.15-.04.31-.07.49-.09"/>
      </g>
      <path class="st0" d="M249.48,106.9l.37-1.92h-1.79l.31,1.97c-.23.18-.38.45-.38.76,0,.53.43.97.97.97s.97-.43.97-.97c0-.34-.18-.64-.45-.81Z"/>
    </g>
    <g>
      <path class="st7" d="M353.38,90.61c0,.92-.74,1.66-1.66,1.66h-76.27c-.91,0-1.66-.74-1.66-1.66h0c0-.91.74-1.65,1.66-1.65h76.27c.92,0,1.66.74,1.66,1.65h0Z"/>
      <path class="st7" d="M353.38,99.74c0,.92-.74,1.66-1.66,1.66h-76.27c-.91,0-1.66-.74-1.66-1.66h0c0-.91.74-1.65,1.66-1.65h76.27c.92,0,1.66.74,1.66,1.65h0Z"/>
      <path class="st7" d="M353.38,108.86c0,.92-.74,1.66-1.66,1.66h-76.27c-.91,0-1.66-.74-1.66-1.66h0c0-.91.74-1.65,1.66-1.65h76.27c.92,0,1.66.74,1.66,1.65h0Z"/>
      <path class="st7" d="M310.31,117.98c0,.92-.74,1.66-1.65,1.66h-33.2c-.91,0-1.66-.74-1.66-1.66h0c0-.91.74-1.65,1.66-1.65h33.21c.91,0,1.65.74,1.65,1.65h0Z"/>
      <path class="st7" d="M353.38,126.86c0,.92-.74,1.66-1.66,1.66h-76.27c-.91,0-1.66-.74-1.66-1.66h0c0-.91.74-1.65,1.66-1.65h76.27c.92,0,1.66.74,1.66,1.65h0Z"/>
      <path class="st7" d="M353.38,135.98c0,.91-.74,1.66-1.66,1.66h-76.27c-.91,0-1.66-.74-1.66-1.66h0c0-.91.74-1.65,1.66-1.65h76.27c.92,0,1.66.74,1.66,1.65h0Z"/>
      <path class="st7" d="M353.38,145.11c0,.91-.74,1.66-1.66,1.66h-76.27c-.91,0-1.66-.74-1.66-1.66h0c0-.91.74-1.65,1.66-1.65h76.27c.92,0,1.66.74,1.66,1.65h0Z"/>
      <path class="st7" d="M331.41,154.23c0,.91-.74,1.66-1.66,1.66h-54.3c-.91,0-1.66-.74-1.66-1.66h0c0-.91.74-1.65,1.66-1.65h54.3c.91,0,1.66.74,1.66,1.65h0Z"/>
    </g>
  </g>
  <polygon class="st15" points="28.26 163.69 28.26 172.63 28.26 259.15 149.37 259.15 149.37 172.63 149.37 163.69 28.26 163.69"/>
  <g>
    <rect class="st15" x="318.53" y="207.93" width="86.52" height="125.86"/>
    <rect class="st18" x="311.7" y="201.34" width="86.52" height="125.86"/>
    <rect class="st11" x="311.7" y="201.34" width="86.52" height="10.08"/>
    <g>
      <path class="st9" d="M385.94,206.38c0,.94-.76,1.7-1.7,1.7s-1.7-.76-1.7-1.7.76-1.7,1.7-1.7,1.7.76,1.7,1.7Z"/>
      <path class="st10" d="M390.7,206.38c0,.94-.76,1.7-1.7,1.7s-1.7-.76-1.7-1.7.76-1.7,1.7-1.7,1.7.76,1.7,1.7Z"/>
      <path class="st16" d="M395.26,206.38c0,.94-.76,1.7-1.7,1.7s-1.7-.76-1.7-1.7.76-1.7,1.7-1.7,1.7.76,1.7,1.7Z"/>
    </g>
    <g>
      <path id="SVGID" class="st7" d="M376.06,239.63c0,11.65-9.44,21.1-21.1,21.1s-21.1-9.44-21.1-21.1,9.44-21.09,21.1-21.09,21.1,9.44,21.1,21.09Z"/>
      <g class="st21">
        <g>
          <path class="st13" d="M357.57,249.08c-1.41-.51-2.29-1.69-3.96-1.54-2.97.26-5.08,3.6-7.93,1.34-3.46-2.74-2.55-19.24-1.05-22.97,1.27-3.17,3.61-.07,6.96-1.14,3.89-1.24,7.24,1.83,9.25,5.01,2.09,3.32,3.17,7.54,2.86,11.43-.28,3.59-.93,9.75-6.12,7.87Z"/>
          <path class="st1" d="M370.84,266.52h-7.29l-1.3-5.26s-1.06-7.99,4.42-8.1c0,0,2.84,1.99,3.61,6.68,0,0,.61,3.75.56,6.68Z"/>
          <path class="st1" d="M345.53,266.52l.98-3.97s1.06-7.99-4.42-8.1c0,0-3.28,2.39-3,12.07h6.43"/>
          <rect class="st9" x="351.03" y="241.61" width="6.65" height="9.73"/>
          <path class="st20" d="M357.68,245.58v-3.97h-6.65v5.72c2.19-.07,4.8-.46,6.65-1.75Z"/>
          <path class="st9" d="M342.22,254.45c1.49-2.31,3.84-2.93,3.84-2.93l5.62-2.08h5.36l6.87,2.08s2.35.62,3.84,2.93h-25.53Z"/>
          <path class="st1" d="M343.6,266.52h22.14l-.14-4.16,3.26-4.93c-.72-4.8-4.94-5.92-4.94-5.92l-5.41-1.54s.32,1.76-4.14,1.76c0,0-3.59,0-4.02-1.81l-4.29,1.59s-3.14.96-4.85,4.13l2.39,6.71v4.16h0Z"/>
          <path class="st9" d="M358.41,242.38c-.23.52-.55,1.01-.99,1.44-1.1,1.06-2.39,1.93-3.81,2.51-1.74.71-4.36.8-5.75-.63-1.12-1.16-1.74-2.92-2.22-4.43-.95-2.93-.93-6.13-.69-9.18.05-.7.12-1.39.24-2.08,1.08-6.64,6.77-6.63,6.77-6.63,4.29-.19,8.2,1.84,8.86,6.36.26,1.73-.08,3.59-.17,5.32-.06,1.27-.22,2.54-.63,3.76-.41,1.24-1.1,2.36-1.61,3.55Z"/>
          <path class="st13" d="M344.49,236.01c-1.6-4.96-.31-10.8,1.61-12.63,5.43-5.18,15.45-3.21,18.52,4.89.95,2.5.5,11.82.07,14.69-.57,3.84-1.99,6.47-4.9,6.47.08-3.17-.17-6.67.11-10.54.28-3.84-.23-3.94-3.43-5.72-1.59-.89-2.51-1.82-3.5-3.26-1.22-1.79-.3-2.41-2.72-2.33,0,0-5.62-.19-5.76,8.44Z"/>
          <path class="st9" d="M358.96,237.32s.57-2.36,2.39-1.39c0,0,.82.42.23,2.04,0,0-.86,2.33-2.61,1.48v-2.13Z"/>
        </g>
      </g>
    </g>
    <g>
      <path class="st7" d="M388.08,270.71c0,.62-.51,1.13-1.13,1.13h-63.99c-.62,0-1.13-.5-1.13-1.13h0c0-.62.51-1.13,1.13-1.13h63.99c.62,0,1.13.5,1.13,1.13h0Z"/>
      <path class="st7" d="M388.08,276.92c0,.62-.51,1.13-1.13,1.13h-63.99c-.62,0-1.13-.5-1.13-1.13h0c0-.62.51-1.13,1.13-1.13h63.99c.62,0,1.13.5,1.13,1.13h0Z"/>
      <path class="st7" d="M388.08,283.13c0,.62-.51,1.13-1.13,1.13h-63.99c-.62,0-1.13-.51-1.13-1.13h0c0-.62.51-1.13,1.13-1.13h63.99c.62,0,1.13.51,1.13,1.13h0Z"/>
      <path class="st7" d="M346.7,289.35c0,.62-.51,1.13-1.13,1.13h-22.61c-.62,0-1.13-.51-1.13-1.13h0c0-.62.51-1.13,1.13-1.13h22.61c.62,0,1.13.51,1.13,1.13h0Z"/>
      <path class="st7" d="M388.08,295.39c0,.62-.51,1.13-1.13,1.13h-63.99c-.62,0-1.13-.51-1.13-1.13h0c0-.62.51-1.13,1.13-1.13h63.99c.62,0,1.13.51,1.13,1.13h0Z"/>
      <path class="st7" d="M388.08,301.6c0,.62-.51,1.13-1.13,1.13h-63.99c-.62,0-1.13-.51-1.13-1.13h0c0-.62.51-1.13,1.13-1.13h63.99c.62,0,1.13.51,1.13,1.13h0Z"/>
      <path class="st7" d="M388.08,307.81c0,.62-.51,1.13-1.13,1.13h-63.99c-.62,0-1.13-.51-1.13-1.13h0c0-.62.51-1.13,1.13-1.13h63.99c.62,0,1.13.51,1.13,1.13h0Z"/>
      <path class="st7" d="M361.07,314.02c0,.62-.51,1.13-1.13,1.13h-36.97c-.62,0-1.13-.5-1.13-1.13h0c0-.62.51-1.13,1.13-1.13h36.97c.62,0,1.13.51,1.13,1.13h0Z"/>
    </g>
  </g>
  <g>
    <g>
      <rect class="st18" x="20.15" y="154.51" width="121.1" height="95.46"/>
      <rect class="st11" x="20.15" y="154.51" width="121.1" height="8.94"/>
      <g>
        <circle class="st9" cx="122.03" cy="158.71" r="2.5"/>
        <circle class="st10" cx="129.03" cy="158.71" r="2.5"/>
        <circle class="st16" cx="135.73" cy="158.71" r="2.5"/>
      </g>
      <rect class="st7" x="28.26" y="171.42" width="104.87" height="71"/>
    </g>
    <polygon class="st17" points="28.26 242.42 55.36 199.92 80.7 228.92 101.36 204.42 133.13 242.42 28.26 242.42"/>
    <circle class="st14" cx="80.7" cy="192.99" r="9.25"/>
    <path class="st18" d="M64.86,185.42c0,1.93-1.57,3.5-3.5,3.5h-18.5c-1.93,0-3.5-1.57-3.5-3.5h0c0-1.93,1.57-3.5,3.5-3.5h18.5c1.93,0,3.5,1.57,3.5,3.5h0Z"/>
    <path class="st18" d="M124.53,196.42c0,1.93-1.57,3.5-3.5,3.5h-18.5c-1.93,0-3.5-1.57-3.5-3.5h0c0-1.93,1.57-3.5,3.5-3.5h18.5c1.93,0,3.5,1.57,3.5,3.5h0Z"/>
  </g>
</svg>