<?xml version="1.0" encoding="UTF-8"?>
<svg xmlns="http://www.w3.org/2000/svg" version="1.1" viewBox="0 0 450 450">
  <!-- Generator: Adobe Illustrator 29.7.1, SVG Export Plug-In . SVG Version: 2.1.1 Build 8)  -->
  <defs>
    <style>
      .st0 {
        fill: #0082a0;
      }

      .st1 {
        fill: #284664;
      }

      .st2 {
        fill: #00b9af;
      }

      .st3, .st4 {
        fill: #007878;
      }

      .st5 {
        fill: #f0f0f0;
      }

      .st6, .st4, .st7 {
        mix-blend-mode: screen;
        opacity: .2;
      }

      .st6, .st8 {
        fill: #f07800;
      }

      .st9, .st7 {
        fill: #dc5500;
      }

      .st10 {
        fill: #009b91;
      }

      .st11 {
        isolation: isolate;
      }

      .st12 {
        fill: #c8c8c8;
      }

      .st13 {
        fill: #ff9600;
      }

      .st14 {
        fill: #00647d;
      }

      .st15 {
        fill: #32506e;
      }

      .st16 {
        fill: #007896;
      }

      .st17 {
        fill: #e6e7e8;
      }
    </style>
  </defs>
  <g class="st11">
    <g id="Layer_1">
      <g>
        <g>
          <rect class="st12" x="308.54" y="231.38" width="5.72" height="32.75"/>
          <rect class="st12" x="158.02" y="262.11" width="161.51" height="4.04"/>
          <rect class="st12" x="280.78" y="151.29" width="6.06" height="35.67"/>
          <path class="st12" d="M276.99,186.96h-5.02c.27-14.97.54-29.95.82-44.92h3.39c.28,14.97.54,29.95.82,44.92Z"/>
          <rect class="st12" x="220.16" y="166.44" width="9.2" height="5.5"/>
          <rect class="st12" x="243.38" y="192.79" width="23.1" height="8.97"/>
          <g>
            <rect class="st12" x="164.75" y="234.41" width="44.42" height="6.5"/>
            <rect class="st12" x="164.75" y="252.24" width="44.42" height="11.89"/>
            <path class="st12" d="M209.17,215.9c0-11.15-9.04-20.19-20.19-20.19h-4.04c-11.15,0-20.19,9.04-20.19,20.19v.34h44.42v-.34Z"/>
            <rect class="st12" x="164.75" y="242.26" width="44.42" height="8.63"/>
            <rect class="st12" x="164.75" y="217.58" width="44.42" height="15.48"/>
          </g>
          <rect class="st12" x="162.12" y="211.02" width="49.69" height="2.69"/>
          <g>
            <path class="st12" d="M298.87,225.32h-8.37v14.47h-.63c1.49,0,2.69,1.21,2.69,2.69v21.65h4.25v-21.65c0-1.49,1.21-2.69,2.69-2.69h-.63v-14.47Z"/>
            <path class="st12" d="M285.75,264.13v-21.65c0-1.49,1.2-2.69,2.69-2.69h-.63v-14.47h-4.84v38.81h2.77Z"/>
            <path class="st12" d="M293.74,186.96h-27.26v27.93h16.49v7.74h18.59v17.16h-.63c1.49,0,2.69,1.21,2.69,2.69v21.65h3.58v-63.71l-13.46-13.46ZM278.85,213.32h-8.75v-8.75h8.75v8.75ZM278.85,199.97h-8.75v-8.75h8.75v8.75ZM292.56,213.32h-8.75v-8.75h8.75v8.75ZM292.56,199.97h-8.75v-8.75h8.75v8.75Z"/>
          </g>
          <path class="st12" d="M237.43,216.24v22.01l10.94-10.94,2.3-2.3v11.52l9.23-9.23,2.3-2.3v11.52l9.23-9.23,2.3-2.3v39.11h7.91v-47.89h-44.19ZM278.21,223.64h-37.35v-4.04h37.35v4.04Z"/>
          <path class="st12" d="M260.85,239.79v-11.53l-11.52,11.53v-11.53l-11.52,11.53h-14.72v24.34h49.3v-35.86l-11.53,11.53ZM246.41,257.54h-6.06v-13.46h6.06v13.46ZM256.87,257.54h-6.06v-13.46h6.06v13.46ZM267.33,257.54h-6.06v-13.46h6.06v13.46Z"/>
          <polygon class="st12" points="221.73 239.79 221.73 238.44 223.08 238.44 224.96 238.44 217.13 227.21 217.13 264.13 221.73 264.13 221.73 239.79"/>
          <polygon class="st12" points="233.16 238.44 219.1 218.25 209.17 218.25 209.17 223.64 216.29 223.64 226.6 238.44 233.16 238.44"/>
          <g>
            <polygon class="st12" points="235.74 239.79 236.09 240.29 236.09 239.79 235.74 239.79"/>
            <path class="st12" d="M236.09,238.44v-23.55h7.29v-42.96h-26.25v44.98h2.67l.4.58,14.59,20.96h1.29ZM235.19,175.52h4.04v10.77h-4.04v-10.77ZM235.19,188.87h4.04v10.77h-4.04v-10.77ZM235.19,202.55h4.04v10.77h-4.04v-10.77ZM225.32,213.32h-4.04v-10.77h4.04v10.77ZM225.32,199.64h-4.04v-10.77h4.04v10.77ZM225.32,186.29h-4.04v-10.77h4.04v10.77ZM232.28,213.32h-4.04v-10.77h4.04v10.77ZM232.28,199.64h-4.04v-10.77h4.04v10.77ZM228.24,186.29v-10.77h4.04v10.77h-4.04Z"/>
          </g>
        </g>
        <g>
          <rect class="st12" x="285.84" y="267.95" width="160.46" height="4.01"/>
          <path class="st12" d="M323.06,269.96h-28.3v-29.42c0-5.91,4.79-10.7,10.7-10.7h6.91c5.91,0,10.7,4.79,10.7,10.7v29.42Z"/>
          <rect class="st12" x="357.61" y="203.1" width="17.6" height="9.8"/>
          <polygon class="st12" points="427.59 244.55 434.49 244.55 442.29 269.96 427.59 269.96 427.59 244.55"/>
          <polygon class="st12" points="423.53 237 420.17 237 420.17 215.56 413.65 215.56 413.65 212.2 423.53 212.2 423.53 237"/>
          <g>
            <path class="st12" d="M346.91,180.37h-10.48c-5.91,0-10.7,4.79-10.7,10.7v77.78h12.7v-21.28h6.46v-9.7l.54-.4,12.16-8.96v-37.43c0-5.91-4.79-10.7-10.7-10.7Z"/>
            <rect class="st12" x="341.12" y="250.24" width="3.79" height="18.61"/>
          </g>
          <rect class="st12" x="384.13" y="138.25" width="22.29" height="2.67"/>
          <rect class="st12" x="334.1" y="177.36" width="15.15" height="6.02"/>
          <polygon class="st12" points="310.25 231.18 307.58 231.18 307.58 165.54 387.04 165.54 387.04 168.22 310.25 168.22 310.25 231.18"/>
          <rect class="st12" x="340.33" y="165.54" width="2.67" height="12.82"/>
          <rect class="st12" x="307.58" y="200.76" width="19.5" height="2.67"/>
          <rect class="st12" x="307.58" y="206.67" width="19.5" height="2.67"/>
          <rect class="st12" x="323.06" y="189.5" width="37.78" height="2.67"/>
          <rect class="st12" x="323.06" y="221.15" width="37.78" height="2.67"/>
          <path class="st12" d="M409.09,194.85v-14.49l-33.87,14.49v33.95l10.95,8.07,19.17-14.13.79-.58.79.58,8.42,6.15v-34.04h-6.24ZM382.23,222.49h-4.01v-10.7h4.01v10.7ZM382.23,208.45h-4.01v-10.7h4.01v10.7ZM389.75,222.49h-4.01v-10.7h4.01v10.7ZM389.75,208.45h-4.01v-10.7h4.01v10.7ZM397.28,222.49h-4.01v-10.7h4.01v10.7ZM397.28,208.45h-4.01v-10.7h4.01v10.7ZM404.8,222.49h-4.01v-10.7h4.01v10.7ZM404.8,208.45h-4.01v-10.7h4.01v10.7ZM412.32,222.49h-4.01v-10.7h4.01v10.7ZM412.32,208.45h-4.01v-10.7h4.01v10.7Z"/>
          <rect class="st12" x="292.48" y="238.7" width="33.26" height="2.67"/>
          <path class="st12" d="M406.12,223.82l-19.96,14.71-19.96-14.71-19.96,14.71v31.42h4.61v-17.05h8.69v17.05h66.71v-31.42l-20.13-14.71ZM375.82,238.95h4.01v10.7h-4.01v-10.7ZM367.52,238.95h4.01v10.7h-4.01v-10.7ZM354.95,249.65h-4.01v-10.7h4.01v10.7ZM363.24,249.65h-4.01v-10.7h4.01v10.7ZM371.96,261.6h-8.69v-8.69h8.69v8.69ZM384.38,261.6h-8.69v-8.69h8.69v8.69ZM417.29,238.95h4.01v10.7h-4.01v-10.7ZM409,238.95h4.01v10.7h-4.01v-10.7ZM400.7,238.95h4.01v10.7h-4.01v-10.7ZM392.41,238.95h4.01v10.7h-4.01v-10.7ZM396.8,261.6h-8.69v-8.69h8.69v8.69ZM409.22,261.6h-8.69v-8.69h8.69v8.69ZM421.64,261.6h-8.69v-8.69h8.69v8.69Z"/>
          <path class="st12" d="M382.51,190.4l22.69-9.7c-2.08-16.86-2.02-45.35-2.02-45.35h-16.71s.1,44.13-3.96,55.05Z"/>
        </g>
        <rect class="st12" y="266.53" width="450" height="33.44"/>
        <g>
          <rect class="st12" x="83.99" y="137.29" width="3" height="18"/>
          <g>
            <polygon class="st12" points="49.49 197.84 42 197.84 42 164.29 81.18 164.29 81.18 171.78 49.49 171.78 49.49 197.84"/>
            <path class="st12" d="M71.62,168.03c0,4.51-3.65,8.16-8.15,8.16s-8.15-3.65-8.15-8.16,3.65-8.15,8.15-8.15,8.15,3.65,8.15,8.15Z"/>
          </g>
          <polygon class="st12" points="160.86 257.68 157.86 257.68 157.86 200.65 145.31 200.65 145.31 197.65 160.86 197.65 160.86 257.68"/>
          <rect class="st12" x="113.77" y="151.72" width="11.68" height="3"/>
          <rect class="st12" x="136.24" y="151.72" width="11.68" height="3"/>
          <path class="st12" d="M81.18,157.54v23.87h16.31v-36.81l-16.31,12.94ZM92.71,174.25h-6.75v-15h6.75v15Z"/>
          <path class="st12" d="M166.86,268.78l-11.06-22.19h-48.31l-12.25,22.19h15.19v-18.41h7.5v18.41h48.93ZM122.06,250.37h31.36v4.5h-31.36v-4.5Z"/>
          <rect class="st12" y="266.53" width="179.98" height="4.5"/>
          <g>
            <rect class="st12" x="117.93" y="219.97" width="30" height="3"/>
            <rect class="st12" x="117.93" y="230.28" width="30" height="3"/>
          </g>
          <path class="st12" d="M66.74,268.78v-36.81h-6.03v-16.65l-16.66,16.65v-16.65l-16.66,16.65v-16.65l-16.65,16.65v37.94h56v-1.12ZM25.65,246.96h-9.75v-9.75h9.75v9.75ZM38.78,246.96h-9.75v-9.75h9.75v9.75ZM51.92,246.96h-9.75v-9.75h9.75v9.75ZM55.31,246.96v-9.75h9.75v9.75h-9.75Z"/>
          <path class="st12" d="M62.21,230.47h4.53v-32.62h-30.56v23.22l6.81-6.81,2.56-2.56v16.65l14.09-14.09,2.56-2.56v18.77ZM40.37,207.91v-4.5h24.37v4.5h-24.37Z"/>
          <g>
            <polygon class="st12" points="103.15 254.46 103.15 255.96 102.31 255.96 95.24 268.78 107.49 268.78 107.49 246.59 103.15 254.46"/>
            <path class="st12" d="M93.93,268.05l6.67-12.09h-28.98v-4.5h31.47l3.09-5.6.43-.77h.88v-63.68h-39.25v87.37h25.28l.4-.73ZM98.65,185.87h4.5v12h-4.5v-12ZM98.65,201.89h4.5v12h-4.5v-12ZM98.65,217.91h4.5v12h-4.5v-12ZM89.96,185.87h4.5v12h-4.5v-12ZM89.96,201.89h4.5v12h-4.5v-12ZM89.96,217.91h4.5v12h-4.5v-12ZM81.27,185.87h4.5v12h-4.5v-12ZM81.27,201.89h4.5v12h-4.5v-12ZM81.27,217.91h4.5v12h-4.5v-12ZM72.58,185.87h4.5v12h-4.5v-12ZM72.58,201.89h4.5v12h-4.5v-12ZM72.58,217.91h4.5v12h-4.5v-12ZM71.62,234.97h31.53v4.5h-31.53v-4.5ZM71.62,243.31h31.53v4.5h-31.53v-4.5Z"/>
          </g>
          <g>
            <path class="st12" d="M124.68,214.02c0-.06,0-.11,0-.17-2.65,1.16-4.5,3.79-4.5,6.87v24.37h5.24c-.12-5.39-.25-10.78-.37-16.18-.12-4.96-.24-9.93-.36-14.89Z"/>
            <path class="st12" d="M118.68,220.72c0-3.9,2.49-7.21,5.97-8.46-.05-2.32-.11-4.64-.15-6.96-.12-4.96-.22-9.93-.35-14.89-.1-4.17-.2-8.32-.3-12.5-.11-4.97-.22-9.93-.35-14.89-.11-5.01-.22-10.02-.35-15.03h-7.08c-.12,5.01-.24,10.02-.34,15.03-.12,4.97-.24,9.93-.35,14.89-.1,4.17-.19,8.33-.3,12.5-.12,4.96-.23,9.93-.35,14.89-.06,2.91-.14,5.82-.2,8.73-.12,4.96-.24,9.93-.36,14.89-.12,5.4-.25,10.78-.37,16.18h4.86v-24.37Z"/>
          </g>
          <g>
            <path class="st12" d="M147.51,228.91c-.12-4.96-.24-9.93-.36-14.89-.06-2.91-.14-5.82-.19-8.73-.12-4.96-.23-9.93-.35-14.89-.11-4.17-.19-8.32-.3-12.5-.1-4.97-.22-9.93-.34-14.89-.11-5.01-.23-10.02-.35-15.03h-7.07c-.12,5.01-.24,10.02-.34,15.03-.14,4.97-.24,9.93-.36,14.89-.1,4.17-.19,8.33-.28,12.5-.12,4.96-.24,9.93-.36,14.89-.04,2.14-.09,4.29-.14,6.43h1.11c4.96,0,9,4.04,9,9l.34,8.2Z"/>
            <path class="st12" d="M138.17,213.22h-1.14c0,.27-.01.54-.02.8-.12,4.96-.24,9.93-.34,14.89-.14,5.4-.26,10.78-.39,16.18h9.39v-24.37c0-4.14-3.36-7.5-7.5-7.5Z"/>
          </g>
          <g>
            <rect class="st12" x="120.17" y="233.28" width="25.5" height="11.81"/>
            <rect class="st12" x="120.17" y="222.97" width="25.5" height="7.31"/>
            <path class="st12" d="M145.6,219.97c-.38-3.79-3.54-6.75-7.42-6.75h-10.5c-3.89,0-7.04,2.97-7.42,6.75h25.34Z"/>
          </g>
        </g>
      </g>
      <path class="st5" d="M122.32,138.47c-2.5-2.75.75-6.25,3.92-5.08-2.5-3.33-.92-9.5,5-8-1-6.58,10.75-10.17,13.42-3.08,3.25-4.25,9.17.58,7.42,3.5,4.75,0,3.92,9.75-3.5,8.92.92,1.58-1.58,3.08-3.08,1.33,2.75,4-3.25,11.17-8.33,5.58-.75,3.17-7.42,1.5-6.17-3.42-1.83,2.83-3.67.83-3.67.42s.58,2.08-1.83,1.58c-2.25,6-7.17-1.17-3.17-1.75Z"/>
      <path class="st17" d="M185.5,145.7c-5.75-6.32,1.72-14.38,9.01-11.69-5.75-7.67-2.11-21.85,11.5-18.4-2.3-15.14,24.73-23.38,30.86-7.09,7.47-9.77,21.08,1.34,17.06,8.05,10.92,0,9.01,22.42-8.05,20.51,2.11,3.64-3.64,7.09-7.09,3.07,6.33,9.2-7.47,25.68-19.17,12.84-1.73,7.28-17.06,3.45-14.18-7.86-4.22,6.52-8.43,1.92-8.43.96s1.34,4.79-4.22,3.64c-5.17,13.8-16.48-2.68-7.28-4.02Z"/>
      <g>
        <g>
          <path class="st3" d="M436.27,263.87c-2.28-10.91-5.54-38.11-6.03-49.02-.49-10.91,0-27.85,0-27.85h-7.55s.49,16.94,0,27.85c-.49,10.91-3.75,38.11-6.03,49.02h19.6Z"/>
          <path class="st4" d="M436.27,263.87c-2.28-10.91-5.54-38.11-6.03-49.02-.49-10.91,0-27.85,0-27.85h-3.77v76.87h9.8Z"/>
          <g>
            <rect class="st10" x="420.09" y="189.55" width="12.76" height="2.61"/>
            <rect class="st10" x="420.09" y="201.16" width="12.76" height="2.61"/>
            <rect class="st10" x="420.09" y="223.56" width="12.76" height="2.61"/>
            <rect class="st10" x="417.81" y="244.27" width="17.32" height="2.61"/>
          </g>
          <path class="st1" d="M413.88,232.84c.21,1.81.45,3.54.71,5.21h24.72v36.89h5.21v-42.1h-30.64Z"/>
          <path class="st1" d="M437.35,235.45c0,3.19-3.28,5.78-7.33,5.78s-7.33-2.59-7.33-5.78,3.28-5.78,7.33-5.78,7.33,2.59,7.33,5.78Z"/>
          <polygon class="st3" points="299.57 298.01 299.57 255.4 316.83 238.3 316.83 298.01 299.57 298.01"/>
          <rect class="st3" x="436.37" y="272.33" width="9.45" height="25.68"/>
          <polygon class="st10" points="318.95 238.3 318.95 298.01 436.37 298.01 436.37 263.87 378.56 263.87 378.56 238.3 318.95 238.3"/>
          <rect class="st9" x="307.38" y="281.13" width="36.64" height="16.88"/>
          <rect class="st1" x="293.65" y="296.06" width="156.35" height="3.91"/>
          <g>
            <rect class="st2" x="324.16" y="232.59" width="12.05" height="5.7"/>
            <rect class="st2" x="341.97" y="232.59" width="12.05" height="5.7"/>
            <rect class="st2" x="359.77" y="232.59" width="12.05" height="5.7"/>
          </g>
          <path class="st9" d="M421.33,263.87s-5.21-11.56-7.49-31.27c-2.28-19.71,0-31.59,0-31.59h-27.79s2.28,11.89,0,31.59c-2.28,19.71-7.49,31.27-7.49,31.27h42.78Z"/>
          <polygon class="st1" points="331.49 232.43 328.88 232.43 328.88 215.82 387.05 215.82 387.05 218.43 331.49 218.43 331.49 232.43"/>
          <rect class="st1" x="346.69" y="217.12" width="2.61" height="15.47"/>
          <rect class="st1" x="364.5" y="217.12" width="2.61" height="15.31"/>
          <rect class="st1" x="383.22" y="204.09" width="33.44" height="2.61"/>
          <path class="st8" d="M387.01,212.24c.08,2.79.07,6.06-.1,9.77h26.07c-.17-3.71-.18-6.97-.1-9.77h-25.87Z"/>
          <path class="st8" d="M415.28,242.2c-.54-2.94-1.03-6.14-1.44-9.61-.03-.28-.05-.54-.08-.81h-27.62c-.03.28-.05.54-.09.81-.4,3.47-.9,6.67-1.43,9.61h30.66Z"/>
          <path class="st8" d="M378.56,263.87h42.78s-2.03-4.51-4.12-12.71h-34.54c-2.08,8.19-4.12,12.71-4.12,12.71Z"/>
          <g>
            <rect class="st13" x="322.21" y="242.1" width="3.91" height="10.42"/>
            <rect class="st13" x="330.28" y="242.1" width="3.91" height="10.42"/>
            <rect class="st13" x="338.35" y="242.1" width="3.91" height="10.42"/>
            <rect class="st13" x="346.42" y="242.1" width="3.91" height="10.42"/>
            <rect class="st13" x="354.49" y="242.1" width="3.91" height="10.42"/>
            <rect class="st13" x="362.56" y="242.1" width="3.91" height="10.42"/>
            <rect class="st13" x="370.63" y="242.1" width="3.91" height="10.42"/>
            <g>
              <rect class="st13" x="322.21" y="256.1" width="3.91" height="10.42"/>
              <rect class="st13" x="330.28" y="256.1" width="3.91" height="10.42"/>
              <rect class="st13" x="338.35" y="256.1" width="3.91" height="10.42"/>
              <rect class="st13" x="346.42" y="256.1" width="3.91" height="10.42"/>
              <rect class="st13" x="354.49" y="256.1" width="3.91" height="10.42"/>
              <rect class="st13" x="362.56" y="256.1" width="3.91" height="10.42"/>
              <rect class="st13" x="370.63" y="256.1" width="3.91" height="10.42"/>
            </g>
            <g>
              <rect class="st13" x="322.21" y="270.7" width="3.91" height="10.42"/>
              <rect class="st13" x="330.28" y="270.7" width="3.91" height="10.42"/>
              <rect class="st13" x="338.35" y="270.7" width="3.91" height="10.42"/>
              <rect class="st13" x="346.42" y="270.7" width="3.91" height="10.42"/>
              <rect class="st13" x="354.49" y="270.7" width="3.91" height="10.42"/>
              <rect class="st13" x="362.56" y="270.7" width="3.91" height="10.42"/>
              <rect class="st13" x="370.63" y="270.7" width="3.91" height="10.42"/>
            </g>
          </g>
          <g>
            <rect class="st3" x="382.25" y="268.42" width="49.51" height="3.91"/>
            <rect class="st3" x="382.25" y="275.82" width="49.51" height="3.91"/>
            <rect class="st3" x="382.25" y="283.22" width="49.51" height="3.91"/>
          </g>
          <rect class="st13" x="306.13" y="255.89" width="5.21" height="16.94"/>
          <rect class="st1" x="310.4" y="285.2" width="30.62" height="3.91"/>
          <polygon class="st1" points="353.56 298.01 350.95 298.01 350.95 286.99 344.03 286.99 344.03 284.39 353.56 284.39 353.56 298.01"/>
          <path class="st7" d="M421.33,263.87s-5.21-11.56-7.49-31.27c-2.28-19.71,0-31.59,0-31.59h-13.9v62.87h21.39Z"/>
          <rect class="st15" x="399.95" y="204.09" width="16.72" height="2.61"/>
        </g>
        <g>
          <rect class="st9" x="254.24" y="213.43" width="24.32" height="47.67"/>
          <path class="st3" d="M254.24,261.1h-34.53v-55.7c0-5.04,4.08-9.12,9.12-9.12h16.29c5.04,0,9.12,4.08,9.12,9.12v55.7Z"/>
          <path class="st4" d="M254.24,261.1v-55.7c0-5.04-4.08-9.12-9.12-9.12h-8.14v64.82h17.26Z"/>
          <rect class="st10" x="163.9" y="247.2" width="62.1" height="50.81"/>
          <g>
            <rect class="st13" x="168.52" y="251.98" width="3.91" height="10.42"/>
            <rect class="st13" x="176.68" y="251.98" width="3.91" height="10.42"/>
            <rect class="st13" x="184.84" y="251.98" width="3.91" height="10.42"/>
            <rect class="st13" x="193" y="251.97" width="3.91" height="10.42"/>
            <rect class="st13" x="201.16" y="251.98" width="3.91" height="10.42"/>
            <rect class="st13" x="209.32" y="251.98" width="3.91" height="10.42"/>
            <rect class="st13" x="217.48" y="251.98" width="3.91" height="10.42"/>
          </g>
          <polygon class="st1" points="296.37 298.01 191.91 298.01 191.91 270.22 201.03 261.1 283.34 261.1 296.37 274.12 296.37 298.01"/>
          <path class="st8" d="M208.42,247.2h-37.78c.89-3.4,1.6-7.88,2.2-13,.39-3.4.73-7.09,1.02-10.92.21-2.59.38-5.25.54-7.95.21-3.62.39-7.3.53-10.92.12-3.14.22-6.23.31-9.22.1-3.84.18-7.52.25-10.91.13-7.77.14-13.95.14-16.94h27.8c0,2.98.01,9.17.14,16.94.06,3.39.14,7.06.25,10.91.09,3,.2,6.08.31,9.22.14,3.62.33,7.3.53,10.92.16,2.7.33,5.36.53,7.95.29,3.83.62,7.52,1.02,10.92.6,5.12,1.32,9.6,2.2,13Z"/>
          <path class="st6" d="M208.42,247.2c-.89-3.4-1.6-7.88-2.2-13-.39-3.4-.73-7.09-1.02-10.92-.21-2.59-.38-5.25-.53-7.95-.21-3.62-.39-7.3-.53-10.92-.12-3.14-.22-6.23-.31-9.22-.1-3.84-.18-7.52-.25-10.91-.13-7.77-.14-13.95-.14-16.94h-13.9v79.85h18.89Z"/>
          <rect class="st9" x="172.15" y="169.95" width="34.74" height="2.61"/>
          <rect class="st1" x="217.16" y="204.15" width="39.63" height="2.61"/>
          <rect class="st14" x="285.83" y="280.75" width="6.41" height="17.26"/>
          <rect class="st1" x="217.16" y="221.25" width="39.63" height="2.61"/>
          <path class="st13" d="M203.82,195.19h-28.58c.1-3.84.18-7.52.25-10.91h28.09c.06,3.39.14,7.06.25,10.91Z"/>
          <path class="st13" d="M204.66,215.33h-30.28c.21-3.62.39-7.3.53-10.92h29.21c.14,3.62.33,7.3.53,10.92Z"/>
          <path class="st13" d="M206.21,234.2h-33.38c.39-3.4.73-7.09,1.02-10.92h31.35c.29,3.83.62,7.52,1.02,10.92Z"/>
          <polygon class="st1" points="293.11 270.87 290.5 270.87 290.5 252.36 278.56 252.36 278.56 249.75 293.11 249.75 293.11 270.87"/>
          <rect class="st1" x="217.16" y="240.96" width="39.63" height="2.61"/>
          <polygon class="st1" points="262.98 261.1 256.46 261.1 256.46 247.47 236.1 247.47 236.1 232.97 205.75 232.97 205.75 226.45 242.62 226.45 242.62 240.96 262.98 240.96 262.98 261.1"/>
          <rect class="st14" x="201.9" y="265.22" width="27.24" height="3.91"/>
          <polygon class="st1" points="180.89 298.01 178.29 298.01 178.29 284.11 191.91 284.11 191.91 286.72 180.89 286.72 180.89 298.01"/>
          <polygon class="st3" points="163.9 258.38 155.32 266.2 155.32 298.01 163.9 298.01 163.9 258.38"/>
          <rect class="st1" x="147.83" y="296.06" width="156.35" height="3.91"/>
          <rect class="st13" x="168.52" y="267.4" width="3.91" height="10.42"/>
          <rect class="st13" x="176.68" y="267.4" width="3.91" height="10.42"/>
          <rect class="st13" x="184.84" y="267.4" width="3.91" height="10.42"/>
          <g>
            <rect class="st9" x="201.51" y="282.97" width="8.47" height="8.47"/>
            <rect class="st9" x="213.47" y="282.97" width="8.47" height="8.47"/>
            <rect class="st9" x="225.44" y="282.97" width="8.47" height="8.47"/>
            <rect class="st9" x="237.4" y="282.97" width="8.47" height="8.47"/>
            <rect class="st9" x="249.36" y="282.97" width="8.47" height="8.47"/>
            <rect class="st9" x="261.32" y="282.97" width="8.47" height="8.47"/>
            <rect class="st9" x="273.29" y="282.97" width="8.47" height="8.47"/>
          </g>
          <rect class="st13" x="259.72" y="217.26" width="5.21" height="16.94"/>
          <rect class="st13" x="269.68" y="217.26" width="5.21" height="16.94"/>
          <rect class="st13" x="269.68" y="240.25" width="5.21" height="16.94"/>
          <rect class="st14" x="254.51" y="265.22" width="27.24" height="3.91"/>
          <rect class="st14" x="232.73" y="265.22" width="17.59" height="3.91"/>
          <rect class="st14" x="201.9" y="274.18" width="27.24" height="3.91"/>
          <rect class="st14" x="254.51" y="274.18" width="27.24" height="3.91"/>
          <rect class="st14" x="232.73" y="274.18" width="17.59" height="3.91"/>
          <g>
            <path class="st3" d="M272.29,213.43h-8.3l.19-6.68c.13-4.44.26-8.9.39-13.34.07-2.51.14-5.04.21-7.56.13-4.46.26-8.9.39-13.36.05-1.95.12-3.9.17-5.85h5.59c.05,1.95.12,3.9.17,5.85.13,4.46.26,8.9.39,13.36.06,2.51.14,5.04.21,7.56.13,4.44.26,8.9.39,13.34l.2,6.68Z"/>
            <path class="st10" d="M271.49,185.85h-6.71c.13-4.46.26-8.9.39-13.36h5.93c.13,4.46.26,8.9.39,13.36Z"/>
            <path class="st10" d="M272.09,206.75h-7.91c.13-4.44.26-8.9.39-13.34h7.13c.13,4.44.26,8.9.39,13.34Z"/>
          </g>
        </g>
        <g>
          <polygon class="st16" points="101.16 298.01 101.16 267.61 142.91 267.61 151.6 279.01 151.6 298.01 101.16 298.01"/>
          <path class="st16" d="M106.64,267.61h-39.52v-57.65c0-10.79,8.75-19.54,19.54-19.54h.44c10.79,0,19.54,8.75,19.54,19.54v57.65Z"/>
          <path class="st0" d="M106.64,267.61v-57.66c0-10.79-8.75-19.54-19.54-19.54h-.43v77.2h19.98Z"/>
          <polygon class="st9" points="80.09 239.06 59.07 253.55 38.06 239.06 16.96 253.6 16.96 298.01 101.16 298.01 101.16 253.6 101.16 253.6 80.09 239.06"/>
          <rect class="st1" y="296.06" width="157.35" height="3.91"/>
          <polygon class="st1" points="8.6 298.01 5.99 298.01 5.99 257.62 16.96 257.62 16.96 260.23 8.6 260.23 8.6 298.01"/>
          <polygon class="st1" points="13.43 298.01 10.83 298.01 10.83 264.68 16.96 264.68 16.96 267.29 13.43 267.29 13.43 298.01"/>
          <polygon class="st1" points="25.76 247.54 25.76 239.06 22.5 239.06 22.5 249.79 25.76 247.54"/>
          <path class="st1" d="M129.01,267.61h-17.16v-83.93c0-4.32,3.5-7.82,7.82-7.82h1.52c4.32,0,7.82,3.5,7.82,7.82v83.93Z"/>
          <path class="st15" d="M129.01,267.61v-83.93c0-4.32-3.5-7.82-7.82-7.82h-1.52v91.75h9.34Z"/>
          <g>
            <rect class="st9" x="64.54" y="204.91" width="44.68" height="2.61"/>
            <rect class="st9" x="64.54" y="201.98" width="44.68" height="1.3"/>
            <rect class="st9" x="64.54" y="227.71" width="44.68" height="2.61"/>
            <rect class="st9" x="64.54" y="232.68" width="44.68" height="1.3"/>
          </g>
          <g>
            <rect class="st16" x="109.17" y="184.96" width="22.53" height="2.61"/>
            <rect class="st16" x="109.17" y="189.76" width="22.53" height="1.3"/>
            <rect class="st16" x="109.17" y="210.69" width="22.53" height="2.61"/>
            <rect class="st16" x="109.17" y="215.5" width="22.53" height="1.3"/>
            <rect class="st16" x="109.17" y="236.01" width="22.53" height="2.61"/>
            <rect class="st16" x="109.17" y="240.82" width="22.53" height="1.3"/>
            <rect class="st16" x="109.17" y="247.99" width="22.53" height="2.61"/>
          </g>
          <polygon class="st1" points="140.63 267.61 138.02 267.61 138.02 204.42 129.01 204.42 129.01 201.81 140.63 201.81 140.63 267.61"/>
          <rect class="st1" x="33.46" y="276.57" width="8.88" height="21.44"/>
          <g>
            <g>
              <rect class="st13" x="49.07" y="283.65" width="8.47" height="8.47"/>
              <rect class="st13" x="61.13" y="283.65" width="8.47" height="8.47"/>
              <rect class="st13" x="73.19" y="283.65" width="8.47" height="8.47"/>
              <rect class="st13" x="85.26" y="283.65" width="8.47" height="8.47"/>
            </g>
            <rect class="st13" x="49.07" y="272.23" width="8.47" height="8.47"/>
            <rect class="st13" x="61.13" y="272.23" width="8.47" height="8.47"/>
            <rect class="st13" x="73.19" y="272.23" width="8.47" height="8.47"/>
            <rect class="st13" x="85.26" y="272.23" width="8.47" height="8.47"/>
          </g>
          <g>
            <rect class="st9" x="104.58" y="273.47" width="5.21" height="16.94"/>
            <rect class="st9" x="112.91" y="273.47" width="5.21" height="16.94"/>
            <rect class="st9" x="121.25" y="273.47" width="5.21" height="16.94"/>
            <rect class="st9" x="129.58" y="273.47" width="5.21" height="16.94"/>
            <rect class="st9" x="137.91" y="273.47" width="5.21" height="16.94"/>
          </g>
          <g>
            <g>
              <rect class="st13" x="89.49" y="254.58" width="5.86" height="13.03"/>
              <rect class="st13" x="81.18" y="254.58" width="5.86" height="13.03"/>
              <rect class="st13" x="72.86" y="254.58" width="5.86" height="13.03"/>
              <rect class="st13" x="64.54" y="254.58" width="5.86" height="13.03"/>
            </g>
            <rect class="st13" x="47.44" y="254.58" width="5.86" height="13.03"/>
            <rect class="st13" x="39.13" y="254.58" width="5.86" height="13.03"/>
            <rect class="st13" x="30.81" y="254.58" width="5.86" height="13.03"/>
            <rect class="st13" x="22.5" y="254.58" width="5.86" height="13.03"/>
          </g>
          <rect class="st13" x="22.82" y="273.47" width="5.21" height="16.94"/>
          <rect class="st1" x="119.02" y="162.73" width="1.3" height="13.14"/>
          <path class="st1" d="M121.63,162.4c0,1.08-.87,1.95-1.95,1.95s-1.95-.87-1.95-1.95.88-1.95,1.95-1.95,1.95.88,1.95,1.95Z"/>
          <rect class="st1" x="67.12" y="216.42" width="39.52" height="5.32"/>
          <polygon class="st1" points="59.07 253.55 61.34 251.98 61.34 214.6 67.12 214.6 67.12 211.99 58.74 211.99 58.74 253.32 59.07 253.55"/>
        </g>
      </g>
      <path class="st17" d="M393,123.48c-2.97-3.27.89-7.42,4.65-6.04-2.97-3.96-1.09-11.28,5.94-9.5-1.19-7.82,12.77-12.08,15.94-3.66,3.86-5.05,10.89.69,8.81,4.16,5.64,0,4.65,11.58-4.16,10.59,1.09,1.88-1.88,3.66-3.66,1.58,3.27,4.75-3.86,13.26-9.9,6.63-.89,3.76-8.81,1.78-7.33-4.06-2.18,3.37-4.36.99-4.36.5s.69,2.47-2.18,1.88c-2.67,7.13-8.51-1.39-3.76-2.08Z"/>
    </g>
  </g>
</svg>