<?xml version="1.0" encoding="UTF-8"?>
<svg id="Layer_1" xmlns="http://www.w3.org/2000/svg" version="1.1" viewBox="0 0 2200 2200">
  <!-- Generator: Adobe Illustrator 29.7.1, SVG Export Plug-In . SVG Version: 2.1.1 Build 8)  -->
  <defs>
    <style>
      .st0 {
        fill: #fff;
      }

      .st1 {
        fill: #59cfd1;
      }

      .st2 {
        fill: #2e3a3a;
      }

      .st3 {
        fill: #c9e2e2;
      }
    </style>
  </defs>
  <g id="Objects">
    <g>
      <ellipse class="st3" cx="1526.29" cy="1500.22" rx="145.78" ry="55.36"/>
      <path class="st2" d="M1672.96,797.05H527.04l-299.11,965.57h1744.15l-299.11-965.57ZM985.29,1486.6l729.89-374.89,185.29,598.13h-701.06l-214.12-223.24ZM1121.31,1709.84h-570.64l382.3-196.36,188.34,196.36ZM565.94,849.84h1068.11l65.26,210.68-752.16,386.33-427.94-446.17,46.73-150.84ZM500.15,1062.22l394.68,411.5-459.7,236.12h-135.6l200.62-647.61Z"/>
      <path class="st1" d="M1777.4,1196.51c-135.99,112.89-240.08,272.84-250.67,289.36-.17.27-.31.5-.44.7-.13-.2-.27-.43-.44-.7-10.58-16.51-114.68-176.47-250.67-289.36-95.17-79-160.36-194.8-158.84-328.41,2.56-225.14,184.79-404.8,409.95-404.33,225.16-.47,407.38,179.19,409.95,404.33,1.52,133.61-63.67,249.41-158.84,328.41Z"/>
      <circle class="st0" cx="1526.29" cy="872.86" r="235.21"/>
    </g>
  </g>
</svg>