<?xml version="1.0" encoding="UTF-8"?>
<svg id="Layer_1" xmlns="http://www.w3.org/2000/svg" version="1.1" viewBox="0 0 450 450">
  <!-- Generator: Adobe Illustrator 29.7.1, SVG Export Plug-In . SVG Version: 2.1.1 Build 8)  -->
  <defs>
    <style>
      .st0 {
        fill: #574943;
      }

      .st1 {
        fill: #7dd2e3;
      }

      .st2 {
        fill: #e09d38;
      }

      .st3 {
        fill: #5e4439;
      }

      .st4 {
        fill: #ffc654;
      }

      .st5 {
        fill: #c84030;
      }

      .st6 {
        opacity: .3;
      }

      .st7 {
        fill: #362c29;
      }

      .st8 {
        fill: #0a0808;
      }

      .st9 {
        fill: #d66b24;
      }

      .st10 {
        fill: #c7a495;
      }

      .st11 {
        fill: #785b56;
      }

      .st12 {
        fill: #c2bebb;
      }

      .st13 {
        fill: #87817c;
      }

      .st14 {
        fill: #d8d1c7;
      }

      .st15 {
        fill: #a16739;
      }

      .st16 {
        fill: #e6e1dd;
      }

      .st17 {
        fill: #573711;
      }

      .st18 {
        fill: #211a1a;
      }

      .st19 {
        fill: #8a1c14;
      }

      .st20 {
        fill: #fa5c52;
      }

      .st21 {
        fill: #ef8f2d;
      }

      .st22 {
        fill: #f7f2e8;
      }

      .st23 {
        fill: #836e69;
      }

      .st24 {
        fill: #fbe979;
      }

      .st25 {
        fill: #b5afa7;
      }

      .st26 {
        fill: #403531;
      }

      .st27 {
        fill: #544540;
      }

      .st28 {
        fill: #fdbd6f;
      }

      .st29 {
        fill: #bfa69d;
      }

      .st30 {
        fill: #a39c95;
      }

      .st31 {
        fill: #fdb053;
      }

      .st32 {
        fill: #685750;
      }

      .st33 {
        fill: #f5f5f5;
      }

      .st34 {
        fill: #87511b;
      }

      .st35 {
        fill: #bfb8af;
      }

      .st36 {
        fill: #f0c6b4;
      }

      .st37 {
        fill: #e3bd5e;
      }

      .st38 {
        fill: #d1d1d1;
      }

      .st39 {
        fill: #b87139;
      }

      .st40 {
        fill: #cc934c;
      }
    </style>
  </defs>
  <g>
    <g>
      <polygon class="st40" points="146.12 379.87 143.58 368.4 160.96 361.94 160.96 371.31 146.12 379.87"/>
      <polygon class="st24" points="110.91 309.48 107.17 309.48 102.77 304.79 117.6 296.23 125.72 300.93 110.91 309.48"/>
      <polygon class="st4" points="168.76 374.47 163.04 364.52 177.85 355.96 183.61 365.92 168.76 374.47"/>
      <polygon class="st40" points="163.04 364.52 165.35 359.39 171.6 353.27 180.19 350.83 177.85 355.96 163.04 364.52"/>
      <polygon class="st40" points="124.01 333.04 122.51 317.27 138.84 310.46 138.84 324.48 133.56 329.48 124.01 333.04"/>
      <polygon class="st24" points="143.37 355.17 132.27 347.36 136.64 341.28 147.11 338.8 153.95 342.76 153.64 350.01 143.37 355.17"/>
      <polygon class="st4" points="124.52 297.82 120.81 295.06 118.79 287.86 133.59 279.29 139.33 289.27 124.52 297.82"/>
      <polygon class="st24" points="130.15 298.37 124.52 297.82 139.33 289.27 144.96 289.81 130.15 298.37"/>
      <path class="st37" d="M165.35,359.39l8.13,4.68v-18.46l-8.13-4.69-2.31-7.83,5.74-3.31-11.31-19.58-5.74,3.32-5.62-5.92v-9.38l-15.97-9.24v9.39l-5.63-.56-5.74-9.96-11.29,6.52,5.75,9.97-2.33,5.14-8.14-4.7v18.46l8.14,4.69,2.33,7.82-5.75,3.32,11.29,19.58,5.74-3.32,5.63,5.94v9.37l15.97,9.23v-9.38l5.62.57,5.74,9.94,11.28-6.52-5.71-9.95,2.31-5.13ZM152.25,349.33l-8.26,4.78-11.71-6.75-8.26-14.32v-13.52l8.26-4.77,11.71,6.76,8.26,14.32v13.5Z"/>
      <polygon class="st24" points="146.12 298.22 130.15 288.98 144.96 280.43 160.96 289.67 146.12 298.22"/>
      <rect class="st24" x="161.98" y="304.41" width="17.12" height="22.61" transform="translate(-135.01 127.56) rotate(-30)"/>
      <polygon class="st40" points="173.49 364.07 173.49 345.61 188.3 337.06 188.3 355.51 173.49 364.07"/>
      <polygon class="st40" points="146.12 307.59 146.12 298.22 160.96 289.67 160.96 299.05 146.12 307.59"/>
      <polygon class="st4" points="165.35 340.92 163.04 333.09 177.85 324.55 180.19 332.36 165.35 340.92"/>
      <polygon class="st2" points="132.27 347.36 124.01 333.04 138.84 324.48 147.11 338.8 132.27 347.36"/>
      <polygon class="st4" points="151.74 313.52 146.12 307.59 160.96 299.05 166.55 304.98 151.74 313.52"/>
      <polygon class="st24" points="173.49 345.61 165.35 340.92 180.19 332.36 188.3 337.06 173.49 345.61"/>
    </g>
    <g>
      <polygon class="st40" points="203.96 404.34 202.49 397.71 212.53 393.98 212.53 399.4 203.96 404.34"/>
      <polygon class="st24" points="183.6 363.66 181.44 363.66 178.9 360.94 187.47 355.99 192.17 358.71 183.6 363.66"/>
      <polygon class="st4" points="217.04 401.23 213.74 395.48 222.3 390.53 225.63 396.29 217.04 401.23"/>
      <polygon class="st40" points="213.74 395.48 215.08 392.51 218.68 388.97 223.65 387.56 222.3 390.53 213.74 395.48"/>
      <polygon class="st40" points="191.18 377.27 190.31 368.16 199.75 364.22 199.75 372.33 196.7 375.21 191.18 377.27"/>
      <polygon class="st24" points="202.36 390.06 195.95 385.55 198.48 382.04 204.53 380.6 208.49 382.9 208.3 387.08 202.36 390.06"/>
      <polygon class="st4" points="191.47 356.91 189.33 355.31 188.15 351.16 196.71 346.2 200.03 351.97 191.47 356.91"/>
      <polygon class="st24" points="194.73 357.23 191.47 356.91 200.03 351.97 203.29 352.28 194.73 357.23"/>
      <path class="st37" d="M215.08,392.51l4.7,2.71v-10.68l-4.7-2.71-1.34-4.53,3.31-1.91-6.54-11.32-3.32,1.92-3.24-3.42v-5.43l-9.23-5.34v5.43l-3.25-.32-3.32-5.75-6.52,3.76,3.32,5.76-1.35,2.97-4.7-2.71v10.67l4.7,2.71,1.35,4.52-3.32,1.92,6.52,11.32,3.32-1.92,3.25,3.43v5.42l9.23,5.33v-5.42l3.24.33,3.32,5.75,6.52-3.77-3.3-5.75,1.34-2.97ZM207.5,386.69l-4.77,2.76-6.78-3.9-4.77-8.28v-7.81l4.77-2.76,6.78,3.91,4.77,8.28v7.81Z"/>
      <polygon class="st24" points="203.96 357.14 194.73 351.8 203.29 346.86 212.53 352.2 203.96 357.14"/>
      <rect class="st24" x="213.13" y="360.72" width="9.89" height="13.07" transform="translate(-154.41 158.24) rotate(-30)"/>
      <polygon class="st40" points="219.78 395.22 219.78 384.54 228.34 379.6 228.34 390.27 219.78 395.22"/>
      <polygon class="st40" points="203.96 362.57 203.96 357.14 212.53 352.2 212.53 357.62 203.96 362.57"/>
      <polygon class="st4" points="215.08 381.83 213.74 377.3 222.3 372.36 223.65 376.89 215.08 381.83"/>
      <polygon class="st2" points="195.95 385.55 191.18 377.27 199.75 372.33 204.53 380.6 195.95 385.55"/>
      <polygon class="st4" points="207.2 365.99 203.96 362.57 212.53 357.62 215.77 361.05 207.2 365.99"/>
      <polygon class="st24" points="219.78 384.54 215.08 381.83 223.65 376.89 228.34 379.6 219.78 384.54"/>
    </g>
    <g>
      <polygon class="st40" points="129.4 287.38 127.93 280.76 137.98 277.02 137.98 282.44 129.4 287.38"/>
      <polygon class="st24" points="109.04 246.69 106.88 246.69 104.34 243.98 112.91 239.03 117.61 241.75 109.04 246.69"/>
      <polygon class="st4" points="142.49 284.26 139.18 278.51 147.74 273.57 151.07 279.32 142.49 284.26"/>
      <polygon class="st40" points="139.18 278.51 140.52 275.55 144.13 272.01 149.1 270.6 147.74 273.57 139.18 278.51"/>
      <polygon class="st40" points="116.62 260.31 115.75 251.2 125.19 247.26 125.19 255.36 122.14 258.25 116.62 260.31"/>
      <polygon class="st24" points="127.81 273.11 121.39 268.59 123.92 265.08 129.97 263.64 133.92 265.93 133.74 270.12 127.81 273.11"/>
      <polygon class="st4" points="116.91 239.95 114.77 238.36 113.59 234.2 122.16 229.24 125.47 235.01 116.91 239.95"/>
      <polygon class="st24" points="120.17 240.27 116.91 239.95 125.47 235.01 128.73 235.32 120.17 240.27"/>
      <path class="st37" d="M140.52,275.55l4.7,2.71v-10.67l-4.7-2.71-1.34-4.53,3.31-1.91-6.53-11.32-3.31,1.92-3.25-3.42v-5.42l-9.23-5.35v5.43l-3.26-.32-3.32-5.75-6.52,3.76,3.32,5.76-1.35,2.97-4.7-2.72v10.67l4.7,2.71,1.35,4.52-3.32,1.91,6.52,11.32,3.32-1.92,3.26,3.43v5.42l9.23,5.34v-5.42l3.25.33,3.31,5.75,6.52-3.77-3.3-5.75,1.34-2.97ZM132.95,269.73l-4.78,2.76-6.77-3.9-4.77-8.28v-7.81l4.77-2.76,6.77,3.9,4.78,8.28v7.81Z"/>
      <polygon class="st24" points="129.4 240.18 120.17 234.84 128.73 229.89 137.98 235.23 129.4 240.18"/>
      <rect class="st24" x="138.57" y="243.76" width="9.9" height="13.07" transform="translate(-105.88 105.22) rotate(-29.98)"/>
      <polygon class="st40" points="145.22 278.25 145.22 267.59 153.78 262.64 153.78 273.3 145.22 278.25"/>
      <polygon class="st40" points="129.4 245.61 129.4 240.18 137.98 235.23 137.98 240.66 129.4 245.61"/>
      <polygon class="st4" points="140.52 264.87 139.18 260.34 147.74 255.4 149.1 259.92 140.52 264.87"/>
      <rect class="st2" x="118.35" y="257.2" width="9.9" height="9.56" transform="translate(-114.35 96.57) rotate(-29.96)"/>
      <polygon class="st4" points="132.65 249.03 129.4 245.61 137.98 240.66 141.21 244.09 132.65 249.03"/>
      <polygon class="st24" points="145.22 267.59 140.52 264.87 149.1 259.92 153.78 262.64 145.22 267.59"/>
    </g>
    <g>
      <polygon class="st30" points="267.69 360.98 262.25 369.56 231.29 371.23 194.55 350.1 163.49 310.97 145.53 263.28 145.53 223.14 163.49 195.82 172.1 196.28 267.69 360.98"/>
      <g>
        <polygon class="st33" points="281.63 337.72 281.63 297.87 264.37 253.39 234.49 216.22 199.97 196.28 170.08 198.96 152.83 223.51 152.83 263.35 170.08 307.83 199.97 345.01 234.49 364.94 264.37 362.27 281.63 337.72"/>
        <polygon class="st1" points="217.06 280.51 281.63 317.79 281.63 337.72 264.37 362.27 234.49 364.94 199.97 345.01 217.06 280.51"/>
        <polygon class="st24" points="264.37 253.39 234.49 216.22 217.06 206.15 217.06 280.51 281.63 317.79 281.63 297.87 264.37 253.39"/>
        <g>
          <g>
            <polygon class="st26" points="219.69 331.98 219.69 292.1 214.44 289.07 214.44 328.95 217.22 333.44 219.69 331.98"/>
            <polygon class="st32" points="215.68 334.33 217.22 333.44 217.22 293.56 211.96 290.53 211.96 330.41 213.5 333.07 215.68 334.33"/>
          </g>
          <g>
            <polygon class="st26" points="213.61 268.45 208.51 271.4 208.51 279.75 213.61 288.6 220.84 292.77 225.95 289.82 225.95 281.48 220.84 272.63 213.61 268.45"/>
            <polygon class="st32" points="208.73 271.28 203.62 274.22 203.62 282.57 208.73 291.42 215.95 295.59 221.06 292.64 221.06 284.3 215.95 275.45 208.73 271.28"/>
          </g>
          <g>
            <polygon class="st26" points="245.05 262.48 242.51 261.01 221.17 273.27 225.53 280.82 246.85 268.56 246.85 265.61 245.05 262.48"/>
            <polygon class="st32" points="242.58 263.94 240.03 262.47 218.7 274.73 223.06 282.27 244.39 270.01 244.39 267.06 242.58 263.94"/>
          </g>
        </g>
        <g>
          <polygon class="st19" points="219.45 225.17 217.23 226.44 212.8 213.21 215.01 211.94 219.45 214.51 219.45 225.17"/>
          <polygon class="st19" points="219.45 349.28 217.23 350.55 212.8 337.32 215.01 336.05 219.45 338.61 219.45 349.28"/>
          <polygon class="st19" points="264.13 307.68 266.35 306.41 275.59 311.75 275.59 316.87 273.37 318.13 264.13 307.68"/>
          <polygon class="st8" points="156.65 245.62 158.87 244.36 168.11 249.69 168.11 254.81 165.89 256.08 156.65 245.62"/>
          <rect class="st19" x="253.42" y="339.9" width="3.62" height="13.06" transform="translate(-139.15 174.32) rotate(-30.04)"/>
          <rect class="st8" x="177.42" y="208.26" width="3.62" height="13.06" transform="translate(-83.35 118.31) rotate(-29.98)"/>
          <rect class="st19" x="251.46" y="255.54" width="7.54" height="6.27" transform="translate(-95.09 162.08) rotate(-29.97)"/>
          <rect class="st8" x="175.46" y="299.42" width="7.54" height="6.27" transform="translate(-127.28 130.17) rotate(-30)"/>
        </g>
        <g>
          <polygon class="st5" points="217.23 226.44 212.8 223.87 212.8 213.21 217.23 215.77 217.23 226.44"/>
          <polygon class="st5" points="217.23 350.55 212.8 347.99 212.8 337.32 217.23 339.88 217.23 350.55"/>
          <polygon class="st5" points="264.14 312.8 264.13 307.68 273.37 313.01 273.37 318.13 264.14 312.8"/>
          <polygon class="st0" points="156.65 250.74 156.65 245.62 165.89 250.96 165.89 256.08 156.65 250.74"/>
          <rect class="st5" x="251.2" y="341.16" width="3.62" height="13.06" transform="translate(-140.07 173.37) rotate(-30.04)"/>
          <rect class="st0" x="175.2" y="209.52" width="3.62" height="13.07" transform="translate(-84.38 117.63) rotate(-30.04)"/>
          <rect class="st5" x="249.24" y="256.8" width="7.54" height="6.27" transform="translate(-96.02 161.14) rotate(-29.97)"/>
          <rect class="st0" x="173.24" y="300.68" width="7.54" height="6.27" transform="translate(-128.2 129.22) rotate(-30)"/>
        </g>
      </g>
      <path class="st14" d="M265.47,252.76l-32.91-40.95-38.01-21.95-32.92,2.94-19,27.03v43.89l19,48.98,32.92,40.95,38.01,21.94,32.91-2.94,19-27.04v-43.88l-19.01-48.98ZM277.96,339.84l-17.26,24.55-29.88,2.67-34.52-19.93-29.89-37.18-17.25-44.48v-39.85l17.25-24.55,29.89-2.67,34.52,19.93,29.88,37.18,17.26,44.47v39.85Z"/>
      <polygon class="st30" points="301.87 335.58 284.48 345.62 284.48 301.74 301.87 291.7 301.87 335.58"/>
      <polygon class="st13" points="282.87 362.62 265.48 372.66 284.48 345.62 301.87 335.58 282.87 362.62"/>
      <polygon class="st16" points="249.96 201.77 232.57 211.81 194.55 189.87 211.94 179.83 249.96 201.77"/>
      <polygon class="st12" points="282.87 242.72 265.47 252.76 232.57 211.81 249.96 201.77 282.87 242.72"/>
      <polygon class="st12" points="211.94 179.83 194.55 189.87 161.64 192.81 179.03 182.77 211.94 179.83"/>
      <polygon class="st25" points="301.87 291.7 284.48 301.74 265.47 252.76 282.87 242.72 301.87 291.7"/>
    </g>
    <g>
      <polygon class="st9" points="315.56 353.35 314.04 346.51 324.4 342.65 324.4 348.25 315.56 353.35"/>
      <polygon class="st28" points="294.56 311.4 292.33 311.4 289.73 308.6 298.54 303.5 303.4 306.29 294.56 311.4"/>
      <rect class="st31" x="326.67" y="341.19" width="10.2" height="6.85" transform="translate(-127.88 212.12) rotate(-30.01)"/>
      <polygon class="st9" points="325.64 344.2 327.02 341.13 330.75 337.5 335.86 336.04 334.47 339.1 325.64 344.2"/>
      <polygon class="st9" points="302.38 325.44 301.49 316.04 311.21 311.97 311.21 320.33 308.08 323.31 302.38 325.44"/>
      <polygon class="st28" points="313.92 338.63 307.31 333.97 309.91 330.35 316.13 328.86 320.23 331.23 320.03 335.54 313.92 338.63"/>
      <polygon class="st31" points="302.68 304.45 300.48 302.81 299.26 298.51 308.09 293.41 311.52 299.34 302.68 304.45"/>
      <polygon class="st28" points="306.03 304.78 302.68 304.45 311.52 299.35 314.87 299.67 306.03 304.78"/>
      <path class="st21" d="M327.02,341.14l4.85,2.8v-11.01l-4.85-2.79-1.39-4.67,3.43-1.98-6.74-11.67-3.42,1.98-3.34-3.53v-5.58l-9.53-5.51v5.6l-3.34-.33-3.42-5.94-6.73,3.89,3.42,5.94-1.39,3.06-4.83-2.8v11l4.83,2.8,1.39,4.66-3.42,1.99,6.73,11.67,3.42-1.97,3.34,3.52v5.6l9.53,5.5v-5.6l3.34.33,3.42,5.94,6.74-3.89-3.43-5.93,1.39-3.06ZM319.2,335.15l-4.92,2.85-6.97-4.02-4.93-8.53v-8.05l4.93-2.84,6.97,4.02,4.92,8.54v8.04Z"/>
      <polygon class="st28" points="315.56 304.69 306.03 299.18 314.87 294.09 324.4 299.58 315.56 304.69"/>
      <rect class="st28" x="325.01" y="308.37" width="10.19" height="13.48" transform="translate(-113.36 207.41) rotate(-30.02)"/>
      <polygon class="st9" points="331.87 343.94 331.87 332.93 340.7 327.84 340.7 338.83 331.87 343.94"/>
      <polygon class="st9" points="315.56 310.27 315.56 304.69 324.4 299.58 324.4 305.18 315.56 310.27"/>
      <polygon class="st31" points="327.02 330.15 325.64 325.47 334.47 320.37 335.86 325.03 327.02 330.15"/>
      <rect class="st2" x="304.16" y="322.22" width="10.2" height="9.85" transform="translate(-122.18 198.6) rotate(-30.02)"/>
      <polygon class="st31" points="318.9 313.81 315.56 310.27 324.4 305.18 327.73 308.71 318.9 313.81"/>
      <polygon class="st28" points="331.87 332.93 327.02 330.15 335.86 325.03 340.7 327.84 331.87 332.93"/>
    </g>
    <g>
      <polygon class="st40" points="311.91 300.59 309.77 290.99 324.33 285.58 324.33 293.42 311.91 300.59"/>
      <polygon class="st24" points="282.4 241.64 279.27 241.64 275.59 237.7 288.01 230.53 294.81 234.46 282.4 241.64"/>
      <polygon class="st4" points="330.86 296.07 326.08 287.74 338.48 280.57 343.3 288.91 330.86 296.07"/>
      <polygon class="st40" points="326.08 287.74 328.01 283.44 333.24 278.31 340.44 276.27 338.48 280.57 326.08 287.74"/>
      <polygon class="st40" points="293.39 261.36 292.12 248.16 305.8 242.45 305.8 254.2 301.38 258.38 293.39 261.36"/>
      <polygon class="st24" points="309.6 279.9 300.3 273.36 303.96 268.27 312.73 266.19 318.46 269.51 318.2 275.58 309.6 279.9"/>
      <polygon class="st4" points="293.81 231.86 290.7 229.56 289 223.52 301.4 216.34 306.22 224.7 293.81 231.86"/>
      <polygon class="st24" points="298.53 232.33 293.81 231.86 306.22 224.7 310.93 225.15 298.53 232.33"/>
      <path class="st37" d="M328.01,283.44l6.82,3.92v-15.46l-6.82-3.93-1.93-6.56,4.8-2.77-9.47-16.4-4.81,2.78-4.7-4.96v-7.85l-13.38-7.74v7.87l-4.72-.47-4.8-8.34-9.46,5.46,4.81,8.35-1.95,4.31-6.81-3.93v15.46l6.81,3.92,1.95,6.55-4.81,2.78,9.46,16.4,4.8-2.78,4.72,4.97v7.85l13.38,7.74v-7.86l4.7.48,4.81,8.33,9.45-5.46-4.79-8.33,1.93-4.3ZM317.04,275.01l-6.93,4-9.81-5.65-6.91-12v-11.32l6.91-3.99,9.81,5.66,6.93,12v11.3Z"/>
      <polygon class="st24" points="311.91 232.2 298.53 224.46 310.93 217.3 324.33 225.03 311.91 232.2"/>
      <polygon class="st24" points="330.88 258.64 321.41 242.24 333.83 235.07 343.3 251.47 330.88 258.64"/>
      <polygon class="st40" points="334.83 287.36 334.83 271.9 347.23 264.74 347.23 280.19 334.83 287.36"/>
      <polygon class="st40" points="311.91 240.05 311.91 232.2 324.33 225.03 324.33 232.89 311.91 240.05"/>
      <polygon class="st4" points="328.01 267.97 326.08 261.41 338.48 254.26 340.44 260.79 328.01 267.97"/>
      <polygon class="st2" points="300.3 273.36 293.39 261.36 305.8 254.2 312.73 266.19 300.3 273.36"/>
      <polygon class="st4" points="316.61 245.01 311.91 240.05 324.33 232.89 329.02 237.86 316.61 245.01"/>
      <polygon class="st24" points="334.83 271.9 328.01 267.97 340.44 260.79 347.23 264.74 334.83 271.9"/>
    </g>
  </g>
  <g>
    <polygon class="st18" points="178.57 129.86 174.19 128.37 173.18 128.79 175.65 137.72 177.01 146.56 179.42 151.23 180.43 150.81 179.96 143.07 179.96 136.82 178.57 129.86"/>
    <polygon class="st3" points="181.84 128.37 177.87 126.71 174.19 128.37 176.66 137.3 178.01 146.15 180.43 150.81 184.96 149.05 185.73 142.26 184.51 136.26 181.84 128.37"/>
    <polygon class="st0" points="252.94 98.49 251.66 101.82 246.72 104.94 246 99.44 249.47 96.74 252.94 98.49"/>
    <polygon class="st36" points="254.38 101.49 261.05 107.26 262.66 112.93 261.38 115.6 259.82 115.82 259.66 114.49 254.38 113.49 251.99 111.76 253.16 110.42 250.66 107.55 250.05 105.57 250.72 100.84 254.38 101.49"/>
    <polygon class="st33" points="250.47 96.74 254.38 101.49 251.55 102.6 250.05 105.57 245.38 101.15 250.47 96.74"/>
    <polygon class="st18" points="236.06 63.92 239.05 66.39 241.39 84.16 252.94 98.49 249.05 99.81 246.72 104.94 233.94 92.57 230.41 78.34 236.06 63.92"/>
    <polygon class="st18" points="226.39 107.55 225.11 112.61 208.25 140.67 198.23 139.32 185.23 139.32 180.43 134.48 181.18 126.82 200.06 125.19 207.22 118.02 226.39 107.55"/>
    <polygon class="st18" points="221.8 188.14 226.22 192.26 234.39 197.19 234.39 198.14 232.11 200.19 227.5 200.19 221.44 197.41 219.17 192.97 216.17 190.42 216.17 189.47 221.8 188.14"/>
    <polygon class="st3" points="226.11 185.53 228 189.3 233.77 194.53 234.39 197.19 232.11 199.25 227.5 199.25 221.44 196.47 219.17 192.03 216.17 189.47 215.61 182.7 226.11 185.53"/>
    <polygon class="st7" points="198.23 110.56 198.89 119.21 214.56 155.14 214.56 183.31 219.76 186.31 227.78 186.31 228.9 150.31 218.64 117.62 226.39 107.55 207.72 103.49 198.23 110.56"/>
    <polygon class="st18" points="198.73 117.02 198.89 119.21 199.55 120.72 208.11 108.96 199.89 111.32 198.73 117.02"/>
    <polygon class="st18" points="227.17 104.11 226.39 107.55 221.83 110.42 209.77 110.11 201.39 105.24 205.93 100.04 227.17 104.11"/>
    <polygon class="st33" points="222.5 73.94 233.44 73.11 235.05 82.27 231 94.51 228.28 103.38 222.5 107.21 212.06 107.55 200.9 101.07 222.5 73.94"/>
    <polygon class="st7" points="230.64 74.28 233.44 81.27 231 94.51 238.26 81.32 234.68 66.39 231 68.14 230.64 74.28"/>
    <polygon class="st10" points="219.76 61.04 218.97 63.92 218.64 68.87 222.6 75.66 227.17 77.49 229.1 77.49 230.08 76.01 232.05 69.87 226.05 60.04 219.76 61.04"/>
    <polygon class="st7" points="216.47 65.16 209.77 69.16 203.84 77.54 198.73 92.57 188.46 100.3 187.84 111.38 196.95 119.71 216.66 100.81 225.11 84.82 223.06 74.91 216.47 65.16"/>
    <polygon class="st18" points="200.61 87.04 209.23 84.91 206.73 82.97 201.44 84.6 200.61 87.04"/>
    <polygon class="st38" points="231.83 73.3 233.44 76.01 233.05 70.44 231 70.16 231.83 73.3"/>
    <polygon class="st33" points="229.44 70.22 230.08 76.01 231.83 73.3 231.61 70.22 229.44 70.22"/>
    <polygon class="st36" points="237.64 54.01 238.05 59.16 237.3 60.25 237.3 64.83 235.22 70.75 231.85 72.45 223.27 67.58 222.89 64.66 220.81 63.23 220.11 61.61 219.76 56.75 230.81 50.71 237.64 54.01"/>
    <polygon class="st27" points="220.11 61.61 220.61 58.27 222.22 58.27 223.56 60.28 224.5 60.28 225.11 59.05 227.67 58.61 228.72 56.44 235.78 55.78 237.77 53.89 234.83 47.67 228.5 45 222.5 46.28 219.28 50.39 217.78 56.22 218.89 60.5 220.11 61.61"/>
    <g>
      <polygon class="st34" points="164.8 137.3 150.27 112.55 156.76 101.12 173.82 125.82 164.8 137.3"/>
      <polygon class="st6" points="168.05 131.6 153.52 106.83 156.76 101.12 171.29 125.88 168.05 131.6"/>
      <polygon class="st15" points="173.69 120.83 160.04 94.51 162.85 92.86 180.03 117.62 173.69 120.83"/>
      <polygon class="st34" points="168.09 130.7 153.56 105.94 160.04 94.51 174.58 119.28 172.73 124.48 168.09 130.7"/>
      <path class="st17" d="M179.61,118.02l-2.27.02-2.39,1.4-10.15,17.86,1.35.43,2.26-.02,1.86-.45,10.14-17.86-.81-1.39Z"/>
      <polygon class="st17" points="168.55 130.7 175.39 123.07 178.74 119.9 179.09 119.13 180.43 119.4 180.03 117.62 177.38 117.63 174.58 119.28 168.09 130.7 168.55 130.7"/>
      <polygon class="st39" points="177.38 117.63 162.85 92.86 165.51 92.85 180.03 117.62 177.38 117.63"/>
      <g>
        <g>
          <polygon class="st16" points="158.4 108.78 156.61 111.92 154.99 109.15 156.77 106 158.4 108.78"/>
          <polygon class="st29" points="158.85 108.78 157.07 111.92 156.61 111.92 158.4 108.78 158.85 108.78"/>
          <polygon class="st22" points="158.85 108.78 157.23 106 156.77 106 158.4 108.78 158.85 108.78"/>
        </g>
        <g>
          <polygon class="st16" points="157.51 109.41 156.91 109.6 157.01 109.22 156.93 108.68 157.5 108.82 157.51 109.41"/>
          <polygon class="st29" points="157.21 109.94 156.77 109.94 156.82 109.56 157.07 109.41 157.51 109.41 157.21 109.94"/>
          <path class="st16" d="M157.06,108.82l-.74-1.26h-.35l-.3.52v.6s.75,1.26.75,1.26h.35s.3-.52.3-.52v-.6Z"/>
          <polygon class="st22" points="157.06 108.82 156.33 107.55 156.76 107.55 157.5 108.82 157.06 108.82"/>
        </g>
      </g>
      <g>
        <g>
          <polygon class="st16" points="167.55 124.37 165.76 127.52 164.13 124.74 165.92 121.59 167.55 124.37"/>
          <polygon class="st29" points="168.01 124.37 166.22 127.51 165.76 127.52 167.55 124.37 168.01 124.37"/>
          <polygon class="st22" points="168.01 124.37 166.37 121.58 165.92 121.59 167.55 124.37 168.01 124.37"/>
        </g>
        <g>
          <polygon class="st16" points="166.66 125 166.05 125.19 166.15 124.81 166.07 124.27 166.66 124.4 166.66 125"/>
          <polygon class="st29" points="166.36 125.52 165.92 125.52 165.97 125.15 166.21 125 166.66 125 166.36 125.52"/>
          <path class="st16" d="M166.21,124.41l-.74-1.26h-.35s-.3.53-.3.53v.59s.75,1.27.75,1.27h.35s.29-.53.29-.53v-.59Z"/>
          <polygon class="st22" points="166.21 124.41 165.47 123.14 165.91 123.14 166.66 124.4 166.21 124.41"/>
        </g>
      </g>
      <g>
        <g>
          <polygon class="st16" points="169.01 100.56 168.47 100.26 168.22 99.83 168.39 99.52 168.89 99.52 169.43 99.82 169.67 100.25 169.5 100.56 169.01 100.56"/>
          <polygon class="st30" points="168.47 100.26 168.22 99.83 167.94 100.33 168.19 100.77 168.48 100.32 168.47 100.26"/>
          <polygon class="st35" points="169.01 100.56 168.47 100.26 168.19 100.77 168.72 101.07 169.03 100.62 169.01 100.56"/>
          <polygon class="st14" points="169.5 100.56 169.01 100.56 168.72 101.07 169.22 101.06 169.5 100.56"/>
        </g>
        <g>
          <polygon class="st11" points="170.38 97.88 170.08 97.7 169.94 97.46 170.04 97.28 170.32 97.28 170.63 97.45 170.77 97.7 170.67 97.87 170.38 97.88"/>
          <polygon class="st0" points="170.08 97.7 169.94 97.46 168.56 99.89 168.7 100.13 170.09 97.74 170.08 97.7"/>
          <polygon class="st7" points="170.38 97.88 170.08 97.7 168.7 100.13 169.01 100.3 170.4 97.91 170.38 97.88"/>
          <polygon class="st8" points="170.67 97.87 170.38 97.88 169.01 100.3 169.29 100.3 170.67 97.87"/>
        </g>
        <g>
          <polygon class="st16" points="174.58 110.07 174.05 109.77 173.8 109.34 173.97 109.03 174.47 109.02 175 109.33 175.26 109.76 175.08 110.06 174.58 110.07"/>
          <polygon class="st30" points="174.05 109.77 173.8 109.34 173.51 109.84 173.76 110.26 174.06 109.82 174.05 109.77"/>
          <polygon class="st35" points="174.58 110.07 174.05 109.77 173.76 110.26 174.3 110.56 174.6 110.13 174.58 110.07"/>
          <polygon class="st14" points="175.08 110.06 174.58 110.07 174.3 110.56 174.8 110.56 175.08 110.06"/>
        </g>
        <g>
          <polygon class="st11" points="175.96 107.38 175.66 107.21 175.52 106.97 175.62 106.78 175.9 106.78 176.2 106.95 176.35 107.2 176.25 107.38 175.96 107.38"/>
          <polygon class="st0" points="175.66 107.21 175.52 106.97 174.14 109.39 174.28 109.64 175.66 107.24 175.66 107.21"/>
          <polygon class="st7" points="175.96 107.38 175.66 107.21 174.28 109.64 174.58 109.81 175.98 107.41 175.96 107.38"/>
          <polygon class="st8" points="176.25 107.38 175.96 107.38 174.58 109.81 174.87 109.81 176.25 107.38"/>
        </g>
        <g>
          <polygon class="st35" points="170.28 96.76 171.16 96.25 172 96.24 172.29 96.75 171.87 97.47 171 97.98 170.18 97.99 169.87 97.48 170.28 96.76"/>
          <polygon class="st16" points="171.16 96.25 172 96.24 171.51 95.43 170.68 95.44 171.08 96.21 171.16 96.25"/>
          <polygon class="st14" points="170.28 96.76 171.16 96.25 170.68 95.44 169.81 95.95 170.19 96.75 170.28 96.76"/>
          <polygon class="st30" points="169.87 97.48 170.28 96.76 169.81 95.95 169.4 96.67 169.87 97.48"/>
        </g>
        <g>
          <polygon class="st11" points="175.63 105.61 176.27 105.24 176.86 105.24 177.08 105.6 176.78 106.12 176.15 106.49 175.55 106.49 175.34 106.13 175.63 105.61"/>
          <polygon class="st23" points="176.27 105.24 176.86 105.24 171.74 96.5 171.14 96.5 176.2 105.21 176.27 105.24"/>
          <polygon class="st32" points="175.63 105.61 176.27 105.24 171.14 96.5 170.51 96.88 175.56 105.6 175.63 105.61"/>
          <polygon class="st26" points="175.34 106.13 175.63 105.61 170.51 96.88 170.21 97.4 175.34 106.13"/>
        </g>
        <g>
          <polygon class="st35" points="175.86 106.27 176.74 105.75 177.57 105.75 177.87 106.25 177.45 106.97 176.58 107.49 175.75 107.5 175.45 106.99 175.86 106.27"/>
          <polygon class="st16" points="176.74 105.75 177.57 105.75 177.09 104.94 176.26 104.94 176.65 105.72 176.74 105.75"/>
          <polygon class="st14" points="175.86 106.27 176.74 105.75 176.26 104.94 175.38 105.45 175.77 106.26 175.86 106.27"/>
          <polygon class="st30" points="175.45 106.99 175.86 106.27 175.38 105.45 174.97 106.17 175.45 106.99"/>
        </g>
      </g>
    </g>
    <polygon class="st36" points="173.42 93.24 169.39 96.05 168.59 100.99 171.32 106.38 175.04 105.6 173.77 103.46 174.36 102.79 175.41 102.74 176.42 104.48 178.95 101.32 178.62 95.7 173.42 93.24"/>
    <polygon class="st33" points="175.12 89.27 173.13 92.77 175.12 95.88 179.06 95.88 181.18 92.57 175.12 89.27"/>
    <polygon class="st7" points="213.64 79.16 209.77 72.45 183.23 74.08 173.82 88.83 175.57 93.49 181.65 93.49 188.56 84.08 209.23 84.91 213.64 79.16"/>
    <polygon class="st38" points="225.72 74.91 227.17 77.49 223.06 76.27 225.72 74.91"/>
    <polygon class="st33" points="218.97 63.92 220.72 69.74 225.72 74.91 222.89 78.66 217.78 71.41 216.47 65.16 218.97 63.92"/>
    <polygon class="st5" points="228.9 79.07 231.77 90.33 230.1 97.42 234.45 90.33 230.41 78.34 229.44 77.91 228.9 79.07"/>
    <polygon class="st20" points="227.17 77.49 230.08 76.01 230.64 77.49 230.41 78.34 228.9 79.07 227.78 78.66 227.17 77.49"/>
  </g>
</svg>