<?xml version="1.0" encoding="UTF-8"?>
<svg id="Layer_1" xmlns="http://www.w3.org/2000/svg" version="1.1" viewBox="0 0 3006.5 2000">
  <!-- Generator: Adobe Illustrator 29.7.1, SVG Export Plug-In . SVG Version: 2.1.1 Build 8)  -->
  <defs>
    <style>
      .st0 {
        fill: #f2b588;
      }

      .st1 {
        fill: #080305;
      }

      .st2 {
        fill: #231347;
      }

      .st3 {
        fill: #f8bd8c;
      }

      .st4 {
        fill: #fcfcfc;
      }

      .st5 {
        fill: #666b6d;
      }

      .st6 {
        fill: #755faa;
      }

      .st7 {
        fill: #2a1656;
      }

      .st8 {
        fill: #fff;
      }

      .st9 {
        fill: #190444;
      }

      .st10 {
        fill: #d1d1d3;
      }

      .st11 {
        fill: #1d1647;
      }

      .st12 {
        fill: #2c2a30;
      }

      .st13 {
        fill: #9e4aff;
      }

      .st14 {
        fill: #0b0635;
      }

      .st15 {
        fill: #ccdde7;
      }

      .st16 {
        fill: #333;
      }

      .st17 {
        fill: #8e8d8e;
      }

      .st18 {
        fill: #1a1a1a;
      }

      .st19 {
        fill: #999;
      }

      .st20 {
        fill: #c5a2fd;
      }

      .st21 {
        fill: #b08174;
      }

      .st22 {
        fill: #ff7c90;
      }

      .st23 {
        fill: #ababab;
      }

      .st24 {
        fill: #1b191b;
      }

      .st25 {
        fill: #e2b897;
      }

      .st26 {
        fill: #31185e;
      }

      .st27 {
        fill: #eab186;
      }

      .st28 {
        fill: #dc4070;
      }
    </style>
  </defs>
  <g>
    <path class="st25" d="M543.64,1836.22H149.61l6.96-193.34.2-5.84.05-1.22,324.02-14.81,46.53-2.12,1.35,18.04,5.94,79.36v.12s2.16,28.83,2.16,28.83h0s.95,12.56.95,12.56l5.86,78.43Z"/>
    <path class="st25" d="M355.85,1836.22h-206.39l3.7-196.49.08-3.92,3.54,1.22,37.76,12.97,93.82,32.23s.05.02.15.05l62.14,21.35,5.2,132.59Z"/>
    <polygon class="st3" points="396.3 1126.19 283.05 1139.46 280.27 1063.21 280.08 1057.96 279.71 1047.93 372.37 1037.07 378.4 1036.37 383.46 1061.79 396.3 1126.19"/>
    <path class="st26" d="M265.61,1114.47s-131.96,54.98-135.62,65.98c-3.67,11-18.33,42.15-18.33,42.15,0,0,64.15,155.78,47.65,208.93-16.49,53.15-5.5,141.12-5.5,168.61s-11,38.49,9.16,45.82c20.16,7.33,86.14,3.66,122.79,0,36.65-3.67,111.8,1.13,128.29,4.23,16.5,3.1,115.46-13.4,115.46-13.4,0,0,12.83-69.64,9.16-104.47-3.67-34.82,1.32-117.3.66-130.12-.66-12.83,6.28-18.33.06-49.48-6.22-31.16,24.94-201.6,24.94-201.6l-152.12-55.44-146.62,18.79Z"/>
    <g>
      <polygon class="st7" points="334.53 1108.04 315.5 1171.68 231.76 1129.43 252.05 1108.04 334.53 1108.04"/>
      <path class="st11" d="M316.42,1173.83l-87.14-43.97,22.13-23.32h85.13l-20.12,67.29ZM234.23,1129l80.34,40.54,17.94-60h-79.81l-18.47,19.46Z"/>
    </g>
    <g>
      <polygon class="st7" points="318.2 1108.04 343.86 1171.68 439.39 1104.42 416.57 1079.83 318.2 1108.04"/>
      <path class="st11" d="M343.18,1174l-26.99-66.94,100.86-28.92,24.61,26.52-98.47,69.34ZM320.22,1109.02l24.33,60.35,92.57-65.18-21.02-22.66-95.89,27.49Z"/>
    </g>
    <path class="st26" d="M176.97,1153.38s56.38,21.84,51.21,242.94l205.39-47.14,25.18,104.05s-225.4,97.54-283.9,95.92c-58.5-1.63-96.36-268.26-84.31-297.53,12.04-29.26,15.35-70.95,84.18-96.96l2.25-1.29Z"/>
    <polygon class="st3" points="444.44 1354.45 497.36 1334.65 484.23 1414.55 442.87 1416.62 433.82 1360.03 444.44 1354.45 444.44 1354.45"/>
    <polygon class="st3" points="279.45 1387.59 236.21 1397.56 234.48 1387.08 231.63 1369.7 234.59 1370.81 279.45 1387.59 279.45 1387.59"/>
    <path class="st26" d="M516.36,1164.87l-33.89,241.18-215.19-28.94-25.42,106.11s291.45,70.75,349.05,51.45c57.61-19.29,30.5-284.58,15.26-318.35-15.26-33.76-25.55-60.17-45.88-66.6-20.33-6.42-43.92,15.15-43.92,15.15h0Z"/>
    <path class="st27" d="M383.46,1061.79c-4.53,10.39-12.42,20.03-24.64,24.42-26.92,9.67-60.6-10.53-78.56-23l-.19-5.25c1.55.24,3.31.45,5.29.62,11.86.98,29.56.67,51.83-4.9,15.93-3.98,27.31-10.42,35.18-16.61l6.03-.7,5.06,25.43Z"/>
    <path class="st3" d="M396.58,937.93c4.94,62.47-24.58,115.89-70.45,119.52-45.87,3.63-87.06-44.08-92-106.55-4.94-62.47,28.24-116.05,74.11-119.68,45.87-3.63,83.4,44.24,88.34,106.71Z"/>
    <path class="st18" d="M333.87,1074.96c-43.91,6.53-86.95-38.85-96.18-101.24-.88-6.01-1.39-11.95-1.69-17.81,10.26,60.63,52.64,104.25,95.74,97.87,39.59-5.86,66.27-51.9,64.37-106.67.22,1.03.37,2.05.51,3.08,9.24,62.39-18.84,118.25-62.75,124.77Z"/>
    <path class="st18" d="M268.67,799.85s-.52,46.43,11.04,53.15,24.78-5.5,35.28-7.33c10.5-1.83,31.74-3.64,46.63,9.33,14.88,12.97,27.66,50.79,27.66,50.79l3.27,12.67s8.7,2.19,9.62-9.72c.92-11.91-1.53-61.86,0-66.74,1.53-4.89.92-9.77-4.58-15.27-5.5-5.5-12.52-14.05-10.39-17.72,2.14-3.67,11.3-13.13,2.44-21.38-8.86-8.25-51.62-13.44-59.56-6.11-7.94,7.33-37.57-20.77-61.4,18.33Z"/>
    <path class="st18" d="M260.57,803.36s-41.69,4.58-42.61,41.24c0,0-5.04,8.25-15.12,21.54-10.08,13.29,1.83,35.74,4.58,49.03,2.75,13.29,8.4,24.28,8.09,28.25-.31,3.97,7.32,11.61,14.2,8.55,6.88-3.05,8.41-11.21,8.41-11.21,0,0,.61-51.72,8.25-60.88,7.64-9.16,20.62-18.17,28.1-21.99,7.48-3.82,9.16-11,9.16-11.91s-9.47-51.01-9.47-51.01l-13.59,8.4Z"/>
    <path class="st3" d="M251.4,960.4c5.74,11.81,3.64,24.67-4.71,28.73-8.34,4.06-19.76-2.23-25.51-14.04-5.74-11.81-3.64-24.67,4.71-28.73,8.34-4.06,19.76,2.23,25.51,14.04Z"/>
    <path class="st3" d="M413.27,944.25c-1.5,13.05-10.19,22.76-19.41,21.7-9.22-1.06-15.47-12.5-13.97-25.54,1.5-13.05,10.19-22.76,19.41-21.7,9.22,1.06,15.47,12.5,13.97,25.54Z"/>
    <path class="st18" d="M287.49,920.62c-5.7.36-11.74,1.12-17.4,2.3-5.65,1.18-11.32,2.88-15.55,5.5l-.21.13c-2.24,1.39-5.17.7-6.56-1.54-1.36-2.2-.72-5.08,1.44-6.5,6.13-4.02,12.42-5.87,18.66-7.44,6.3-1.5,12.43-2.47,18.95-3.08,2.93-.27,5.52,1.88,5.8,4.8.27,2.93-1.88,5.52-4.8,5.79-.05,0-.09,0-.14.01h-.18Z"/>
    <path class="st18" d="M282.64,943.31c.67,4.55-1.89,8.7-5.73,9.27-3.84.57-7.5-2.66-8.17-7.21-.67-4.55,1.89-8.7,5.73-9.27,3.84-.57,7.5,2.66,8.17,7.21Z"/>
    <path class="st18" d="M335.92,914.83c5.64-.94,11.68-1.57,17.47-1.7,5.77-.13,11.68.23,16.39,1.83l.24.08c2.49.84,5.2-.49,6.04-2.99.83-2.45-.46-5.11-2.87-6-6.88-2.53-13.43-2.9-19.87-3.01-6.47-.04-12.67.41-19.15,1.3-2.91.4-4.95,3.08-4.56,5.99.4,2.91,3.08,4.95,5.99,4.55.05,0,.09-.01.14-.02l.18-.03Z"/>
    <path class="st18" d="M345.79,935.83c.38,4.59,3.82,8.05,7.68,7.73,3.87-.32,6.7-4.29,6.32-8.88-.38-4.59-3.82-8.05-7.68-7.73-3.87.32-6.7,4.29-6.32,8.88Z"/>
    <path class="st18" d="M293.1,1046.43c2.41,1.64,10.8-.38,13.51-.96,4.62-.98,9.9-2.74,12.8-6.74,3.31-4.58,1.77-11.47,1.36-16.7-.12-1.49.14-5.61-1.1-6.84,0,0,12.11-1.82,12.22-1.83-1.08.16,2.16,17.23,2.67,18.62,1.38,3.72,5.11,5.82,8.79,6.75,3.84.97,8.02,1.08,11.95.79.97-.07,10.43-.88,10.52-1.87-.07.84-.69,1.51-1.27,2.11-6.17,6.32-13,11.99-19.83,17.58,0,0-32.38,2.75-33.29,1.83-.92-.92-18.3-12.73-18.33-12.75Z"/>
    <path class="st4" d="M353.4,1001.45c-4.25,7.55-13.27,13.86-24.63,16.05-15.1,2.93-29.18-2.2-34.6-11.73,0-.15.15-.29.29-.44,1.91-1.61,3.89-3,6.01-4.18l44.35-5.28c3.45.73,6.53,2.05,8.58,5.57Z"/>
    <path class="st18" d="M290.23,1052.48c-.95-9.24-3.59-38.8.27-47.6v-.6l1.32-1.49c2.44-2.09,4.6-3.59,6.89-4.85,7.19-4.21,16.15-6.64,25.83-6.98,5.32-.24,10.56-.05,15.59.53l1.25.15c1.43.17,2.83.34,4.24.64,3.55.76,8.03,2.27,10.96,7.31,3.04,5.2,4.35,10.82,5.61,16.26.32,1.4.65,2.8,1,4.18,2.12,8.46,2.78,15.62,2.07,22.54l-7.29-.75c.61-6.05.01-12.4-1.89-20-.36-1.42-.69-2.87-1.04-4.32-1.19-5.13-2.31-9.98-4.8-14.22-1.2-2.08-2.94-3.15-6.17-3.84-1.19-.26-2.36-.39-3.54-.53l-1.28-.15c-4.6-.54-9.46-.71-14.41-.49-8.5.3-16.28,2.38-22.5,6.02-1.8.99-3.45,2.12-5.11,3.49l-.06.08c-2.13,3.27-1.53,25.31.37,43.85l-7.29.75Z"/>
    <path class="st18" d="M311.18,975.31c-.36,0-.7-.19-.88-.53-.26-.49-.07-1.09.41-1.35l7.88-4.2c2.51-1.33,3.9-3.75,3.55-6.15l-4-27.77c-.08-.55.3-1.05.85-1.13.54-.07,1.05.3,1.13.85l4,27.77c.47,3.25-1.34,6.47-4.59,8.2l-7.88,4.2c-.15.08-.31.12-.47.12Z"/>
    <path class="st5" d="M356.19,1799.7c-1.08,0-1.97-.86-2-1.95-.78-33.11-2.81-86.9-4.98-92.65-7.27-4.33-43.16-15.54-61.42-20.94-1.06-.31-1.66-1.43-1.35-2.49.31-1.06,1.43-1.66,2.49-1.35,2.21.66,54.34,16.12,62.81,21.64,1.32.86,2.97,1.94,4.94,49.45.95,22.99,1.5,46.02,1.51,46.25.03,1.1-.85,2.02-1.95,2.05-.02,0-.03,0-.05,0ZM349.11,1704.86h0Z"/>
    <path class="st11" d="M233.63,1399.56c-.42,0-.83-.13-1.18-.38-.49-.36-.79-.92-.82-1.52-.29-5.95-8.3-100.94-8.38-101.9-.09-1.1.72-2.07,1.82-2.16,1.1-.09,2.07.72,2.16,1.83.31,3.64,7.05,83.58,8.23,99.58,11.21-3,59.35-15.82,78.62-19.63,1.08-.22,2.14.49,2.35,1.57.21,1.08-.49,2.14-1.57,2.35-21.63,4.28-80.12,20.04-80.7,20.2-.17.05-.35.07-.52.07Z"/>
    <path class="st11" d="M181.24,1547.11c-6.34,0-12.13-.65-16.9-2.21-28.69-9.4-48.32-86.51-49.14-89.79-.27-1.07.38-2.16,1.45-2.43,1.07-.27,2.16.38,2.43,1.45.2.78,19.9,78.24,46.51,86.96,27.01,8.85,92.1-14.22,92.75-14.45,1.04-.38,2.18.17,2.56,1.21.37,1.04-.17,2.18-1.21,2.56-2.27.81-47.12,16.7-78.44,16.7Z"/>
    <path class="st11" d="M338.01,1501.87c-.73,0-1.44-.4-1.79-1.1-.49-.99-.1-2.19.89-2.68l60.87-30.5c.99-.5,2.19-.09,2.68.89.49.99.1,2.19-.89,2.68l-60.87,30.5c-.29.14-.59.21-.89.21Z"/>
    <path class="st11" d="M480.54,1407.06c-.11,0-.21,0-.32-.03-1.09-.17-1.83-1.2-1.66-2.29l16.82-104.95c.17-1.09,1.21-1.84,2.29-1.66,1.09.17,1.83,1.2,1.66,2.29l-16.82,104.95c-.16.98-1.01,1.68-1.97,1.68Z"/>
    <path class="st11" d="M510.1,1536.55c-.1,0-.2,0-.31-.02l-100.82-15.65c-1.09-.17-1.84-1.19-1.67-2.28.17-1.09,1.19-1.84,2.28-1.67l100.82,15.65c1.09.17,1.84,1.19,1.67,2.28-.15.99-1,1.69-1.97,1.69Z"/>
  </g>
  <g>
    <polygon class="st3" points="1014.71 921.2 996.54 987.59 1035.73 1033.47 1091.72 1005.4 1089.37 935.48 1014.71 921.2"/>
    <polygon class="st26" points="1214.77 1507.03 1214.77 1836.22 1047.81 1836.22 1047.81 1515.37 1203.82 1507.58 1214.77 1507.03"/>
    <path class="st26" d="M1102.07,1522.33l-5.71,15.8-5.62,15.6-18.92,52.37-24.02,66.49-38.56,163.64h-151.05c.09.46.13.69.13.69l-20.74.5.14-1.2,8.32-67.02,1.22-9.83,3.26-26.29,3.06-24.61,2.31-18.6,10.8-87.05,2.94-23.69,7.05-56.8h225.39Z"/>
    <path class="st20" d="M1000.82,975.39s-82.08,50.11-118.26,67.72c-36.17,17.61-59.82,43.34-68.17,58.24-8.35,14.9-27.83,28.44-26.43,37.92,1.39,9.48-32,50.11-38.96,83.97-6.96,33.86-19.48,146.27-19.48,150.33s22.26,97.51,22.26,97.51c0,0,65.39,65.01,79.3,79.91,13.91,14.9,55.65,39.28,61.22,39.28s40.35-23.02,38.96-46.05c-1.39-23.02-11.13-89.38-20.87-100.22-7.62-8.47-16.93-16.12-23.96-27.47-1.96-3.16-3.74-6.62-5.26-10.45-6.96-17.61,12.52-59.59,12.52-59.59,0,0,62.61-148.98,59.82-169.29-2.78-20.32,18.09-92.09,12.52-111.05-5.56-18.96,34.78-90.74,34.78-90.74Z"/>
    <path class="st20" d="M1222.03,1158.15s13.91,191.03,12.52,223.54c-1.39,32.5-8.15,51.46.1,88.03,8.25,36.57,4.27,47.4,0,60.94-4.27,13.54-57.14,12.19-57.14,12.19l-247.74-14.43-93.12-134.55,121.04-376.5,43.13-41.98s49.39,41.98,90.43,16.93c0,0,114.08,64.33,130.08,76.52,16,12.19.7,89.31.7,89.31Z"/>
    <path class="st20" d="M1222.96,1073.81s39.88,39.73,38.96,65.91c-.93,26.18,10.2,123.69,8.35,151.68-1.85,27.99,2.78,28.89,6.49,49.66,3.71,20.77,19.01,62.3,20.41,108.35,1.39,46.05,21.56,79.23,7.65,102.25-13.91,23.02-24.35,29.79-24.35,29.79,0,0-3.48-35.14-9.74-38.56-6.26-3.42-36.08-12.23-36.08-12.23l-33.02-364.76,21.33-92.09Z"/>
    <path class="st27" d="M1005.74,930.44c-4-9.33,26.68,51.65,58,48.23,26.86-2.93,27.98-52.58,27.98-52.58,0,0-9.54,15.68-37.89,15.72-31.62.04-48.09-11.36-48.09-11.36h0Z"/>
    <path class="st0" d="M1147.31,851.47c-.72,13.4-9.61,23.81-19.84,23.26-10.24-.55-17.95-11.86-17.22-25.26.72-13.4,9.61-23.81,19.84-23.26,10.24.55,17.95,11.86,17.22,25.26Z"/>
    <path class="st0" d="M999.04,843.28c-.72,13.4-9.61,23.81-19.84,23.26-10.24-.55-17.95-11.86-17.22-25.26.72-13.4,9.61-23.81,19.84-23.26,10.24.55,17.95,11.86,17.22,25.26Z"/>
    <path class="st3" d="M1138.95,850.83c-9.71,57.05-42.79,106.06-88.38,103.6-45.59-2.46-69.52-44.92-76.72-112.52-6.31-59.3,42.79-106.06,88.38-103.6,45.59,2.46,86.73,53.67,76.72,112.52Z"/>
    <path class="st26" d="M1034.31,760.74c.13,3.77-.45,9.85-.08,11.68,1.01,5.04,3.66,9.95,7.95,12.28,2.96,1.61,6.39,1.85,9.71,1.94,12.11.32,24.76-4.9,36.38-4.36,5.35.25,9.41,4.12,13.95,7.16,8.4,5.6,23.85,4.29,23.86,4.29,7.92,11.07,8.68,27.57,16.76,37.8,1.94-1.21,3.69-2.8,5.52-4.33,10.86-9.14,11.5-10.8,7.98-25.14-2.82-11.48,4.9-16.38,8.81-25.58,5.36-12.62,14.69-24.3,5.19-34.13-12.35-12.78-21.33-23.05-29.2-39.77-4.39-9.33-10.28-19.52-19.91-21.31-15.53-2.89-27.35,14.17-42.98,3.76-5.69-3.79-11.16-8.68-17.83-9.53-6.92-.89-13.68,2.8-19.31,7.25-7.03,5.55-13.41,12.06-21.61,15.62-13.53,5.88-29.08,8.23-40.19,19.21-7.43,7.34-11.52,17.3-15.27,27.12-3.17,8.32-8.8,17.89-9.62,26.84-.93,10.07,4.94,31.65,12.91,38.02,3.85,3.08,6.69,10.43,6.69,10.43,0,0,12.25-22.55,14.31-27.7s12.15-18.46,19.1-23.35c6.95-4.88,9.28-6.67,14.76-9.24,3.62-1.69,11.88-5.7,12.12,1.06Z"/>
    <path class="st24" d="M1019.17,839.49c-.21,3.96-3.6,7-7.56,6.79-3.96-.21-7-3.6-6.79-7.56.21-3.96,3.6-7,7.56-6.79,3.96.21,7,3.6,6.79,7.56Z"/>
    <path class="st24" d="M1104.87,844.11c-.21,3.96-3.6,7-7.56,6.79s-7-3.6-6.79-7.56c.21-3.96,3.6-7,7.56-6.79,3.96.21,7,3.6,6.79,7.56Z"/>
    <path class="st26" d="M994.74,818.81c-1.87-.01-3.65-1.12-4.41-2.96-1.02-2.45.14-5.27,2.59-6.3,23.18-9.65,40.69-.41,41.42-.02,2.34,1.27,3.21,4.19,1.95,6.53-1.27,2.33-4.16,3.21-6.51,1.95-.67-.36-14.45-7.37-33.16.43-.62.25-1.26.37-1.88.36Z"/>
    <path class="st26" d="M1081.93,821.87c-1.87-.13-3.57-1.35-4.21-3.23-.87-2.51.47-5.25,2.98-6.12,23.74-8.17,40.63,2.16,41.34,2.6,2.26,1.41,2.94,4.39,1.53,6.64-1.41,2.25-4.35,2.94-6.62,1.54-.64-.4-13.96-8.27-33.12-1.66-.63.21-1.28.29-1.9.24Z"/>
    <path class="st24" d="M1141.69,829.96h0c-.16-1.05-.66-2.01-1.38-2.75-.17-.18-.36-.34-.56-.48,0,0,0,0,0,0-.38-.29-.79-.52-1.24-.69-1.69-.64-4.04-1.38-7.13-2.06-1.82-.41-4.73-.96-8.33-1.53-3.45-.56-7.54-1.14-11.91-1.62h-.03c-6.25-.69-13.08-1.2-19.46-1.19h0c-3.48,0-6.83.17-9.88.54-1,.13-1.94.25-2.81.39-11.5,1.77-12.02,4.59-11.92,6.16.02.25-.24.4-.45.27-2.41-1.5-5.25-2.12-8.03-2.28-2.77-.15-5.67.17-8.23,1.4-.22.11-.46-.07-.42-.32.29-1.66,0-4.85-13.96-8.1-.27-.07-.55-.13-.83-.18-3.56-.77-7.55-1.32-11.7-1.68h0c-4.87-.43-9.95-.62-14.79-.65h0c-7.15-.06-13.74.23-18.32.56-1.77.13-3.22.25-4.3.38-3.33.38-5.89.9-7.73,1.36-.96.24-1.77.76-2.38,1.48h0c-.72.82-1.17,1.85-1.23,2.98,0,.09,0,.18,0,.27,0,1.91,1.07,3.73,2.84,4.46.73.3,1.5.83,2.17,1.73,1.77,2.36,2.22,4.37,4.34,5.36.12.05.18.15.17.27-.33,4.67-.28,12.63,1.55,18.65,1.17,3.81,2.89,6.83,5.33,9.21,2.32,2.3,5.31,4,9.08,5.24,3.67,1.21,7.91,1.94,12.13,2.16,4.43.24,8.85-.07,12.59-.97,8.11-1.96,14.28-7.73,17.34-16.23,2.79-7.74,3.92-15.35,3.72-19.8.64.2,1.22.08,1.8-.41h.08c.12-.11.27-.22.38-.35.97-.9,4.07-3.16,10.18-2.84,6.12.34,8.94,2.91,9.81,3.91.1.14,0,.26.09.38h-.19c.44.44,1.07.67,1.65.66.19,0,.35.13.33.33-.59,4.46-.09,11.96,1.79,19.74,2.13,8.79,7.69,15.19,15.55,18.01,3.61,1.3,8,2.08,12.43,2.32,4.23.23,8.53-.04,12.29-.84,2.36-.51,4.46-1.22,6.32-2.15,4.36-2.19,7.41-5.63,9.56-10.67,2.47-5.79,3.35-13.69,3.52-18.37,0-.13.09-.22.2-.26,2.2-.75,2.67-2.71,4.68-4.87.7-.75,1.43-1.19,2.09-1.43.79-.28,1.48-.75,2.02-1.35.45-.51.81-1.12,1.02-1.77.14-.41.22-.85.25-1.3,0-.09,0-.17,0-.27,0-.26-.02-.51-.06-.75ZM1040.53,851.51c-2.86,7.97-8.59,13.36-16.14,15.17-6.97,1.69-16.5,1.22-23.71-1.15-3.55-1.17-6.33-2.74-8.48-4.87-2.19-2.17-3.73-4.94-4.81-8.47-2-6.54-1.75-15.51-1.31-19.62v-.04c.63-2.6,2.2-7.53,5.58-10.09.49-.37,1.02-.68,1.59-.95,6.07-2.71,18.87-3.96,31.43-1.21,12.57,2.75,17.31,6.06,19.14,9.75.06.13.13.26.2.39.77,3.41-.31,12.24-3.49,21.08ZM1129.78,840.34c0,4.12-.73,13.07-3.42,19.36-2.09,4.89-4.98,8.1-9.26,10.09-1.59.74-3.38,1.32-5.38,1.75-7.42,1.58-16.95,1.01-23.7-1.42-7.29-2.61-12.41-8.59-14.41-16.82-2.21-9.12-2.33-18.03-1.2-21.34.09-.11.16-.23.24-.36,2.21-3.47,7.28-6.25,20.07-7.63,11.89-1.29,23.6.88,29.81,3.89.47.22.91.46,1.31.69,4.26,2.49,5.56,8.7,5.94,11.74v.05Z"/>
    <path d="M1051.2,914.72c-8.94,0-15.07-4.12-15.17-4.18-.34-.24-.43-.7-.19-1.04.24-.34.7-.43,1.04-.19.61.42,15.08,10.07,32.14-2.2.34-.24.8-.17,1.05.17.24.34.16.81-.17,1.05-6.79,4.88-13.26,6.4-18.7,6.4Z"/>
    <path d="M1053.02,887.09c-.14,0-.28-.04-.4-.12-.15-.09-3.62-2.34-3.91-5.1-.25-2.48.78-15.06.83-15.59.03-.41.4-.72.81-.69.41.03.72.4.69.81-.37,4.48-1.02,13.44-.83,15.31.17,1.7,2.38,3.46,3.22,3.99.35.22.45.69.23,1.04-.14.22-.39.35-.63.35Z"/>
    <path class="st13" d="M873.35,1260.46c-.29,0-.58-.06-.85-.19-1-.47-1.42-1.67-.95-2.66,2.18-4.6,20.39-59.16,20.7-63.36.08-1.1,1.05-1.93,2.14-1.85,1.1.08,1.93,1.04,1.85,2.14-.37,5-19.13,60.67-21.08,64.77-.34.72-1.06,1.14-1.81,1.14Z"/>
    <path class="st13" d="M1063.95,1002.84c-7.76,0-17.16-1.44-28.24-5.48-1.45-.53-21.8-10.9-25.87-12.98-.98-.5-1.37-1.71-.87-2.69.5-.98,1.71-1.38,2.69-.87,9.2,4.69,24.24,12.32,25.43,12.79,35.58,12.96,52.62-2.57,52.78-2.73.8-.76,2.07-.72,2.82.07.76.8.73,2.06-.06,2.82-.53.51-9.77,9.08-28.68,9.08Z"/>
    <path class="st13" d="M1047.81,1674.58c-.23,0-.45-.04-.68-.12-1.04-.38-1.58-1.52-1.2-2.56l24.01-66.5c.38-1.04,1.52-1.58,2.56-1.2,1.04.38,1.58,1.52,1.2,2.56l-24.01,66.5c-.29.81-1.06,1.32-1.88,1.32Z"/>
  </g>
  <g>
    <g>
      <g>
        <polygon class="st3" points="1747.17 1049.27 1627.49 1051.39 1635.95 953.57 1736.6 953.57 1747.17 1049.27"/>
        <path class="st18" d="M1771.45,880.76c0,63.91-38.48,115.72-85.94,115.72s-85.94-51.81-85.94-115.72c0-26.53-6.38-67.18,4.77-86.7,15.71-27.5,53.4-29.02,81.16-29.02s60.3-6.43,76.02,20.82c11.3,19.59,9.92,68.17,9.92,94.9Z"/>
        <path class="st18" d="M1784.54,832.1s9.17-89.69-4.94-104.52c-14.1-14.83-6.24-19.07-21.45-23.31-15.21-4.24-15.43-12.01-40.5-12.01-4.32,0-6.42-2.82-30.41-2.82-7.76,0-20.45-6.36-38.43,3.53-17.98,9.89-29.44-3.88-42.39,12.8-12.96,16.69-17.89,7.68-29.17,33.81-11.28,26.13,3.53,38.84,6.35,67.09,2.82,28.25,17.65,50.85,17.65,50.85l179.28-5.75,4.02-19.67Z"/>
        <path class="st3" d="M1771.45,861.98c0,63.91-38.48,115.72-85.94,115.72s-85.94-51.81-85.94-115.72c0-26.53-6.38-67.18,4.77-86.7,15.71-27.5,53.4-29.02,81.16-29.02s60.3-6.43,76.02,20.82c11.3,19.59,9.92,68.17,9.92,94.9Z"/>
        <path class="st3" d="M1617.05,868.48c1.11,13.58-5.06,25.17-13.79,25.89-8.73.72-16.71-9.71-17.83-23.29-1.11-13.58,5.06-25.17,13.79-25.89,8.73-.72,16.71,9.71,17.83,23.28Z"/>
        <path class="st3" d="M1752.47,867.48c-1.97,13.48,3.46,25.44,12.13,26.71,8.67,1.27,17.29-8.63,19.26-22.11,1.97-13.48-3.46-25.44-12.13-26.71-8.67-1.27-17.29,8.63-19.26,22.11Z"/>
        <path class="st18" d="M1659.98,804.04c-2.08-.06-3.9,0-5.82.07-1.9.07-3.79.21-5.68.39-3.78.37-7.55.89-11.3,1.62-3.76.76-7.51,1.68-11.19,2.96-3.69,1.31-7.32,2.96-10.72,5.14-1.61,1.04-2.43,3.04-1.88,4.97.67,2.37,3.14,3.74,5.51,3.07l.23-.07c3.18-.91,6.45-1.62,9.77-2.24,3.34-.57,6.74-1.04,10.16-1.4,3.44-.33,6.9-.57,10.37-.73,1.74-.09,3.48-.14,5.21-.19,1.71-.07,3.53-.07,5.08-.09h.19c3.58-.06,6.52-2.93,6.63-6.55.11-3.73-2.82-6.84-6.54-6.95Z"/>
        <path class="st18" d="M1749.74,814.23c-3.4-2.19-7.04-3.83-10.72-5.14-3.69-1.28-7.44-2.2-11.19-2.96-3.75-.74-7.53-1.26-11.3-1.62-1.89-.18-3.78-.32-5.68-.39-1.93-.07-3.74-.13-5.82-.07-3.58.11-6.49,3.02-6.55,6.64-.06,3.73,2.92,6.8,6.64,6.86h.17c1.55.03,3.37.03,5.08.09,1.73.06,3.47.11,5.21.19,3.47.16,6.94.4,10.37.73,3.43.37,6.82.83,10.16,1.4,3.32.62,6.58,1.33,9.77,2.24l.24.07c1.84.52,3.88-.19,4.97-1.88,1.33-2.07.73-4.83-1.34-6.16Z"/>
        <path class="st18" d="M1648.46,849.75c0,4.29-2.8,7.77-6.26,7.77s-6.26-3.48-6.26-7.77,2.8-7.77,6.26-7.77,6.26,3.48,6.26,7.77Z"/>
        <path class="st18" d="M1730.16,849.75c0,4.29-2.8,7.77-6.26,7.77s-6.26-3.48-6.26-7.77,2.8-7.77,6.26-7.77,6.26,3.48,6.26,7.77Z"/>
        <path class="st12" d="M1685.65,897.04s-.01,0-.02,0c-.92-.04-9.02-.48-10.85-3.06-.39-.55-.49-1.18-.29-1.82,1.11-3.64,5.25-27.69,5.29-27.93.05-.27.3-.45.58-.41.27.05.46.31.41.58-.17.99-4.19,24.36-5.32,28.05-.11.35-.06.65.15.95,1.31,1.86,7.72,2.54,10.08,2.64.28.01.49.25.48.52-.01.27-.23.48-.5.48Z"/>
        <path class="st18" d="M1589.04,756.15s19.23,27.68,37.17,22.82c17.93-4.86,28.12-25.39,36.62-16.1,8.5,9.29,23.23,7.79,34.73.54,11.51-7.25,7.74,2.06,22.84,4.43,15.1,2.37,22.44-2.32,33.49,11.7,11.06,14.01,22.38,7.32,18.61-11.7-3.78-19.02-29.45-59.85-52.1-48.19-22.65,11.67-131.36,36.49-131.36,36.49Z"/>
        <path class="st18" d="M1771.21,822.24c-.37-.11-.74-.19-1.12-.28-5.76-1.34-12.09-2.15-18.54-2.56-6.54-.41-13.21-.41-19.56-.08h-.02c-12.42.64-23.63,2.47-30.25,4.65-5.37,1.77-11.7,4.29-17.09,4.29s-11.71-2.52-17.08-4.29c-7.2-2.37-19.81-4.33-33.53-4.79h-.03c-6.71-.22-13.69-.09-20.42.54-5.46.5-10.75,1.32-15.6,2.54-.02,0-.04,0-.05,0-1.52.38-2.99.79-4.42,1.24l.69,12.8s1.94-.42,3.62.75c.29.2.57.45.83.76.45.53.85,1.24,1.13,2.18.32,1.07.74,2.91,1.26,5.21.79,3.42,1.81,7.85,3.12,12.21,1.59,5.34,3.61,10.57,6.1,13.74,1.77,2.24,4.04,3.96,6.61,5.27,8.03,4.11,19.01,4.23,27.08,3.88,14.32-.62,23.71-6.99,27.71-17.79.95-2.56,1.79-5.03,2.57-7.34,2.52-7.48,4.3-13.4,6.25-15.63,1.39-1.58,2.94-1.7,4.16-1.7s2.78.12,4.17,1.7c1.89,2.16,3.63,7.8,6.02,14.97.84,2.51,1.77,5.2,2.8,8,4,10.79,13.39,17.17,27.71,17.79,8.02.34,18.93.23,26.93-3.81,2.62-1.31,4.94-3.05,6.74-5.33,3.31-4.19,5.77-12.04,7.54-18.94.63-2.43,1.17-4.75,1.63-6.74.55-2.41.98-4.36,1.32-5.47.37-1.23.94-2.07,1.58-2.64.13-.13.27-.23.41-.32,1.67-1.16,3.58-.73,3.58-.73l.69-12.8c-1.47-.47-2.98-.9-4.55-1.27ZM1665.24,862.52c-3.85,7.25-10.32,10.95-20.02,12.18-9.69,1.23-21.3-.67-27.14-4.16-.33-.19-.64-.42-.95-.66-3.22-2.59-5.29-7.86-6.65-12.66-.53-1.93-.95-3.77-1.28-5.34-.18-.87-.39-1.88-.58-3h0c-1.12-6.42-1.92-16.12,3.19-19.66,6-4.17,21.1-4.48,31.1-3.86,7.54.46,23.85,2.47,26.93,8.32,2.22,4.21.48,14.22-1.83,21.69-.91,2.93-1.9,5.48-2.78,7.14ZM1760.06,851.88c-.04.18-.08.37-.12.55-1.18,5.49-3.42,13.83-7.73,17.38-.33.28-.67.52-1.03.73-5.86,3.49-17.45,5.39-27.14,4.16-9.7-1.23-16.17-4.93-20.01-12.18-.98-1.84-2.11-4.81-3.11-8.19-2.13-7.34-3.62-16.63-1.51-20.64,3.09-5.86,19.4-7.86,26.94-8.32,10-.62,25.1-.31,31.1,3.86,5.41,3.75,4.19,14.42,2.99,20.77-.12.69-.26,1.32-.38,1.89Z"/>
        <g>
          <path class="st25" d="M1870.56,1051.35s70.89,29.34,85.35,46.46c14.47,17.12,63.66,163.25,63.66,239.93s11.57,194.41,0,216.57c-11.58,22.16-63.66,132.04-98.38,157.4-34.72,25.35-48.95,23.46-48.95,23.46l-8.49-114.14,37.19-180.56-18.87-272.07-11.51-117.04Z"/>
          <path class="st6" d="M1683.08,1673.68c-3.56,16.62-8.08,81.81-12.21,153.5-.16,3.01-.34,6.02-.51,9.05h-179.69c-1.97-109.08,1.7-213.84,1.7-213.84,0,0,1.69.09,4.75.27,1.56.11,3.48.22,5.72.38.21.02.43.03.66.05.04,0,.08,0,.12,0,16.31,1.12,48.16,3.7,80.58,8.5,16.94,2.51,34.04,5.62,49.16,9.45,21.21,5.36,38.53,12.13,46.01,20.61.52.59.99,1.18,1.42,1.78h0c.28.41.54.81.78,1.23,1.64,2.83,2.22,5.83,1.53,9.02Z"/>
          <polygon class="st6" points="1872.24 1641.04 1872.24 1836.22 1673.33 1836.22 1671.61 1828.51 1670.87 1827.17 1631.77 1755.34 1586.92 1674.04 1579.52 1660.62 1578.68 1659.09 1568.71 1641.04 1872.24 1641.04"/>
          <path class="st22" d="M1627.49,1001.6h119.69l15.51,27.98,107.87,21.45s71.92,34.51,74.03,40.11c2.12,5.6,27.5,294.73,16.92,365.62-10.58,70.88-4.23,149.23-14.81,184.67-10.58,35.44-437.85,14.92-437.85,14.92,0,0-86.72-526.04-59.23-550.29s165.69-61.87,170.27-69.95c4.58-8.08,7.58-34.51,7.58-34.51Z"/>
          <path class="st25" d="M1961.51,1459.72c-10.57,71.35-4.22,150.2-14.81,185.87-3.81,12.85-59.7,30.26-132.16,32.1-54.88,1.39-119.09-14.77-173.63-16.08-4.12-.1-8.2-.19-12.23-.27-67.62-1.4-119.84-.72-119.84-.72,0,0-86.72-529.47-59.23-553.88,24.12-21.4,133.4-53.17,162.99-66.13l85.77,151.41,74.91-160.13,97.26,19.47s71.92,34.73,74.03,40.36,27.5,296.65,16.92,368Z"/>
          <path class="st21" d="M1870.14,1371.02c-1.09,0-1.98-.88-2-1.97l-1.27-90.66c-.16-11.31-5.06-45.67-5.1-46.01-.16-1.09.6-2.11,1.7-2.26,1.08-.15,2.11.6,2.26,1.7.2,1.42,4.98,34.95,5.15,46.52l1.27,90.66c.02,1.1-.87,2.01-1.97,2.03h-.03Z"/>
        </g>
        <path class="st8" d="M1656.03,926.21c1.9,9.79,15.27,16.71,30.69,15.6,13.4-.96,24.04-7.68,26.52-15.92l-57.21.32Z"/>
      </g>
      <path class="st21" d="M1699.6,1194.15c-.72,0-1.38-.39-1.74-1.01l-40.8-72.02c-.54-.96-.21-2.18.75-2.73.96-.54,2.18-.21,2.73.75l38.89,68.64,48.28-103.21c.47-1,1.66-1.43,2.66-.96,1,.47,1.43,1.66.96,2.66l-49.92,106.72c-.32.68-.99,1.12-1.73,1.15-.03,0-.05,0-.08,0Z"/>
      <path class="st11" d="M1803.52,1679.75c-23.51,0-51.81-1.82-81.81-7.7-74.64-14.65-125.35-10.07-125.85-10.02-1.11.1-2.08-.7-2.18-1.8s.7-2.08,1.8-2.18c.51-.05,51.8-4.68,127,10.08,76.48,15.01,142.75,3.15,143.35,3.01,1.08-.25,2.15.43,2.4,1.5.25,1.07-.42,2.15-1.49,2.4-.37.08-25.67,4.72-63.21,4.72Z"/>
    </g>
    <path class="st11" d="M1698.78,1792.78c-1.1,0-2-.9-2-2v-54.02c0-.14.01-.28.04-.41l6.35-29.9c.23-1.08,1.29-1.78,2.37-1.54,1.08.23,1.77,1.29,1.54,2.37l-6.3,29.7v53.81c0,1.1-.9,2-2,2Z"/>
  </g>
  <g>
    <g>
      <path class="st14" d="M713.2,957.26s24.77-9.16,47.17,2.28c23.85,12.19,35.95,24.37,41.44,126.75,5.48,102.37,4.87,153.56,5.48,161.48.61,7.92-194.99,5.48-194.99,5.48v-254.71l100.9-41.28Z"/>
      <path class="st4" d="M614.44,1248.75s-99.58,10.85-97.71,182.45c1.88,171.6-34.7,159.63-4.79,281.85,0,0,67.66,13.69,106.44-13.97l-3.93-337.52v-112.81h0Z"/>
      <path class="st22" d="M857.17,1837.42l.14-1.2h-319.4c3.19-19.09,10.48-47.32,19.46-78.43.83-2.88,1.68-5.81,2.54-8.74l.05-.17c3.16-10.79,6.5-21.85,9.91-32.92l.16-.54c15.5-50.39,32.44-101.01,41.71-128.3,0-.02,0-.03,0-.04,2.19-6.42,3.95-11.55,5.15-15.07v-.02c1.23-3.52,1.89-5.44,1.89-5.44h207.84c.6,1.73,1.66,6.2,3.08,12.82h0c.36,1.66.73,3.44,1.13,5.35,4.11,19.77,10.44,52.84,17.12,88.63t0,.02c.52,2.78,1.04,5.55,1.57,8.35,2.99,16.05,6.02,32.47,8.94,48.34.34,1.86.68,3.7,1.01,5.55.73,3.98,1.46,7.92,2.17,11.8.06.34.13.68.18,1.01.67,3.65,1.33,7.24,1.97,10.77.63,3.41,1.23,6.74,1.84,10.01,6.44,35.36,11.31,62.43,12.14,67.02.09.46.13.69.13.69l-20.74.5Z"/>
      <path class="st4" d="M618.97,1252.74s-45.16,13.12-39.07,108.05c6.09,94.93-45.13,212.64,28.63,226.33l203.22-2.53c19.17-.24,34.58-15.85,34.58-35.02v-298.96l-42.6-7.39-184.76,9.52h0Z"/>
      <polygon class="st3" points="743.3 1218.52 669.77 1220.73 672.3 1157.58 739.65 1157.58 743.3 1218.52"/>
      <path class="st4" d="M663.41,1209.19h93.86c6.06,0,11.29,4.5,12.52,10.78l5.33,27.14-129.14,5.01,4.8-31.54c1-6.56,6.35-11.38,12.63-11.38Z"/>
      <path class="st27" d="M741.02,1180.43c-4.17,8.86-11.83,17.66-22.73,18.88-18.73,2.1-36.99-18.67-46.01-30.17-1.8-2.3-2.67-4.22-3.67-5.52,1.55.92,3.95,2.51,8.28,4.12,7.22,2.71,18.28,5.52,32.98,5.5,10.65-.01,18.79-2.55,24.67-5.5l5.69-.09.79,12.79Z"/>
      <path class="st3" d="M772.6,1083.41c1.59,50.76-28.66,92.9-67.56,94.12s-71.74-38.94-73.33-89.7c-1.59-50.76,28.66-92.9,67.56-94.12,38.91-1.22,71.74,38.94,73.33,89.7Z"/>
      <path class="st3" d="M788.65,1088.97c0,10.51-9.12,20.66-16.64,20.66s-13.62-8.52-13.62-19.03,9.99-19.03,17.51-19.03,12.74,6.89,12.74,17.4Z"/>
      <path d="M746.66,1056.12c-.57,0-1.14-.09-1.71-.27-15.12-4.96-25.07-.45-25.49-.26-2.72,1.27-6,.11-7.29-2.61-1.29-2.72-.18-5.96,2.53-7.28.57-.28,14.11-6.68,33.66-.28,2.88.94,4.45,4.04,3.5,6.92-.76,2.31-2.9,3.78-5.21,3.78Z"/>
      <path d="M641.57,1064.81c-1.76,0-3.48-.84-4.54-2.4-1.69-2.49-1.08-5.86,1.39-7.58.52-.35,12.93-8.76,33.23-5.39,2.99.49,5.01,3.32,4.52,6.3-.49,2.99-3.34,5-6.31,4.51-15.69-2.58-24.85,3.37-25.23,3.62-.94.62-2,.93-3.06.93Z"/>
      <path d="M701.87,1108.07h-5.48c-.51,0-.91-.41-.91-.91v-20.57c0-.5.41-.91.91-.91s.91.41.91.91v19.65h4.57c.51,0,.91.41.91.91s-.41.91-.91.91Z"/>
      <path d="M667.13,1082.14c0,4.23-2.73,7.66-6.09,7.66s-6.09-3.43-6.09-7.66,2.73-7.66,6.09-7.66,6.09,3.43,6.09,7.66Z"/>
      <path d="M737.97,1074.48c0,4.23-2.73,7.66-6.09,7.66s-6.09-3.43-6.09-7.66,2.73-7.65,6.09-7.65,6.09,3.43,6.09,7.65Z"/>
      <path class="st4" d="M679.96,1133.51c2.06,9.4,13.12,15.51,25.37,13.76,10.64-1.52,18.76-8.5,20.27-16.6l-45.64,2.84Z"/>
      <path class="st14" d="M711.32,955.26c19.12,38.35-27.04,52.13-44.52,72.88-19.1,22.69-32.31,67.48-31.28,97.3,2.81,81.37,30.32,146.6-23.34,221.07,11.12-45.22-5.79-79.79-19.89-120.83-15.51-45.14-15.25-91.41-9.89-138.31,4.03-35.33,5.35-92.49,31.92-119.17,15.26-15.32,84.81-37.37,97-12.94Z"/>
      <path class="st14" d="M706.9,994.01s8.55,15.04,27.71,24.29c27.13,13.09,32.94,56.19,32.94,56.19l11.01-6-21.31-80.19-50.35,5.72Z"/>
      <path class="st3" d="M863.94,1748.16l-13.51-4.42s-1.68-2.39.18-5.45c1.86-3.06,6.29-2.96,8.44-2.74,2.16.22,6.63,1.9,6.63,1.9,0,0,5.29-6.05,10.71-8.79,0,0-1.41-7.43,1.1-12.27,0,0-5.55-5.66-4.95-14.01,0,0-.57-1-1.41-2.55-.71.32-2.08.94-2.96,1.45-1.23.71-1.34,4.73-.85,7.14.49,2.42,1.03,10.08.26,14.46-.77,4.38-4.11,7.35-9.1,7.19-4.99-.17-5.15-5.06-6.12-9.4-.97-4.34-.55-8.41-.21-16.22.35-7.81-1.68-11.72-3.17-19.1-1.49-7.38-.95-13.31-.95-13.31.66-6.16,3.11-13.6,3.76-15.52-.72-4.45-.66-8.63.75-11.75,2.54-5.59-5.71-46.4-5.71-46.4l41.71,4.71-3.88,46.17s13.06,27.33,17.38,39.62c4.32,12.28,7.47,18.76,6.86,24.86,0,0-6.34,24.56-12.85,29.99-6.67,5.56-21.51,15.31-25.85,15.65-4.67.36-17.09-1.31-17.09-1.31,0,0-2.77-.12-4.83-1.25,0,0-2,.03-.46-4.15,1.54-4.17,5.82-3.13,16.11-4.5Z"/>
      <path class="st4" d="M823.35,1246.33s58.37-4.18,78.93,77.69c20.56,81.87,18.4,112.55,17.31,164.7-1.08,52.14,59.73,155.09,4.53,221.44,0,0-46.73-23.26-90.02-32.11,0,0-7.57-8.26-3.24-94.3,4.32-86.04-7.52-337.42-7.52-337.42h0Z"/>
      <path class="st27" d="M570.02,1715.42s-17.34,1.07-20.7,1.02c0,0,.25,24.18,10.35,32.41l.24.2,10.11-33.63Z"/>
    </g>
    <path class="st15" d="M598.45,1542.17c-1.01,0-1.88-.76-1.99-1.79-.08-.81-2.01-20.04,2.36-40.12,2.24-10.29.71-16.22-1.61-25.21-2.06-7.98-4.62-17.92-5.66-34.73-2.25-36.21,11.2-56.62,11.77-57.47.62-.92,1.86-1.16,2.78-.54.92.62,1.16,1.86.54,2.78-.21.31-13.25,20.33-11.09,54.99,1.02,16.43,3.53,26.16,5.55,33.98,2.37,9.2,4.08,15.84,1.65,27.05-4.23,19.46-2.31,38.66-2.29,38.85.11,1.1-.68,2.08-1.78,2.2-.07,0-.14.01-.21.01Z"/>
    <path class="st15" d="M824.98,1572.97c-.07,0-.14,0-.21-.01-1.1-.11-1.9-1.1-1.78-2.2,1.64-15.78,2.87-29.99,1.42-44.02-.76-7.36-1.67-14.75-2.55-21.89-1.96-15.86-3.98-32.26-4.4-48.92-.03-1.1.84-2.02,1.95-2.05,1.1-.05,2.02.84,2.05,1.95.42,16.46,2.34,32.04,4.38,48.53.88,7.16,1.8,14.56,2.56,21.96,1.49,14.41.24,28.84-1.42,44.85-.11,1.03-.98,1.79-1.99,1.79Z"/>
    <path class="st28" d="M729.17,1589.12h-120.64c-1.1,0-2-.9-2-2s.9-2,2-2h120.64c1.1,0,2,.9,2,2s-.9,2-2,2Z"/>
  </g>
  <g>
    <rect class="st3" x="2277.94" y="946.23" width="99.23" height="89.48"/>
    <path class="st27" d="M2377.16,953.52v27.82c-7.27,7.35-17.2,13.18-29.69,14.31-26.82,2.41-53.05-17.51-69.54-32.93v-9.23c.08.02.16.05.24.07,12.1,3.6,30.58,7.36,55.22,7.33,17.82-.02,31.45-3.39,41.29-7.33l2.48-.03Z"/>
    <path class="st0" d="M2259.83,869.88c1.23,14.95-4.61,27.63-13.05,28.33-8.44.7-16.29-10.86-17.52-25.81-1.23-14.95,4.61-27.63,13.05-28.33,8.44-.7,16.29,10.86,17.52,25.81Z"/>
    <path class="st0" d="M2423.01,872.95c-1.78,14.9-10.03,26.16-18.44,25.16-8.41-1-13.79-13.89-12.02-28.79,1.77-14.9,10.03-26.16,18.44-25.16,8.41,1,13.79,13.89,12.02,28.79Z"/>
    <ellipse class="st3" cx="2326.99" cy="870.03" rx="80.53" ry="107.37"/>
    <path class="st25" d="M2307.18,712.33c-2.4,0-23.97-15.82-51.77,10.54-27.8,26.36-21.41,21.25-29.08,28.28-7.67,7.03-5.75,14.45-15.98,20.96-10.23,6.52-12.14,9.71-7.67,17.38,4.47,7.67,7.6,15.34-2.27,20.45-9.87,5.11-13.71,6.39-8.59,10.86,5.11,4.47.8,10.39,12.3,12.3,11.5,1.92,17.73,3.14,19.65,8.04,1.92,4.9,6.23,4.9,11.98,6.82,5.75,1.92,6.71,2.88,8.63,5.75,1.92,2.88,3.98,1.92,3.98,1.92,0,0,11.62-28.36,12.21-40.54s4.42.28,13.53-12.18c9.11-12.46,10.96-11.41,18.69-21.21,7.74-9.8,3.16-3.65,9.49-10.63,6.33-6.98,4.89-58.75,4.89-58.75Z"/>
    <path class="st1" d="M2327.63,902.15c-.92,0-1.59-.03-1.84-.04-.53-.02-.94-.47-.91-1,.03-.53.47-.96,1-.91,3.8.18,10.4-.23,11.92-2.05,1.46-1.75.76-11.83-.21-18.42-.08-.52.29-1.01.81-1.09.53-.08,1.01.29,1.09.81.41,2.79,2.33,16.88-.21,19.93-2.04,2.45-8.4,2.78-11.65,2.78Z"/>
    <path class="st8" d="M2300.95,923.7h53.2s-16.94,27.88-43.08,9.83c-.9-.62-10.13-9.83-10.13-9.83Z"/>
    <path class="st1" d="M2307.95,834.85c-3.12.33-6.4.58-9.57.83-3.19.28-6.36.53-9.5.86-3.14.33-6.24.74-9.3,1.17-3.05.5-6.04,1.06-9.02,1.68l-.19.04c-2.1.43-4.16-.92-4.59-3.03-.35-1.72.49-3.41,1.96-4.2,3.19-1.72,6.59-2.87,9.99-3.72,3.41-.81,6.85-1.3,10.28-1.59,3.43-.23,6.85-.3,10.26-.1,3.42.19,6.75.54,10.21,1.32,1.84.41,2.99,2.24,2.58,4.08-.33,1.46-1.55,2.49-2.96,2.64h-.15Z"/>
    <path class="st1" d="M2346.05,828.11c3.46-.78,6.78-1.14,10.21-1.32,3.41-.19,6.83-.12,10.26.1,3.43.29,6.87.78,10.28,1.59,3.41.85,6.8,2,9.99,3.72,1.89,1.02,2.59,3.38,1.58,5.27-.83,1.55-2.56,2.3-4.2,1.96l-.2-.04c-2.98-.61-5.97-1.18-9.02-1.68-3.07-.43-6.17-.84-9.3-1.17-3.14-.33-6.31-.59-9.5-.86-3.17-.26-6.44-.5-9.57-.83l-.15-.02c-1.87-.2-3.23-1.88-3.03-3.75.16-1.49,1.26-2.66,2.64-2.97Z"/>
    <path class="st1" d="M2293.12,861.32c0,4.81-2.97,8.71-6.63,8.71s-6.63-3.9-6.63-8.71,2.97-8.71,6.63-8.71,6.63,3.9,6.63,8.71Z"/>
    <path class="st1" d="M2372.48,861.32c0,4.81-2.97,8.71-6.63,8.71s-6.63-3.9-6.63-8.71,2.97-8.71,6.63-8.71,6.63,3.9,6.63,8.71Z"/>
    <path class="st25" d="M2293.54,749.26s1.92,37.65,37.39,46.93c0,0,10.07-1.03,17.74,13.41,7.67,14.44-.48,12.89,8.63,17.53,9.11,4.64,8.15-.52,22.53,5.67,14.38,6.19,9.59,10.44,20.13,16.57,10.54,6.12,31.16,1.48,34.03-3.67,2.88-5.16,7.67-6.7,9.11-11.86,1.44-5.16,0-27.85,0-27.85,0,0-17.26-12.38-23.01-26.82-5.75-14.44,1.92-20.63-10.54-29.91-12.46-9.28-31.63-17.53-35.47-21.66-3.83-4.13-8.63-24.75-24.92-23.72-16.3,1.03-36.43-.59-43.62-.04-7.19.55-11.02,6.74-11.98,13.45-.96,6.7,0,31.97,0,31.97Z"/>
    <path class="st22" d="M2535.68,1836.22h-183.85c-3.71-48.1-6.97-97.31-7.45-126.62-.1-5.9,0-14.83,0-14.83l-8.69,141.45h-208.86c.16-39.75,2.28-88.22,7.96-145.64.2-1.96.4-3.94.61-5.91,1.94-19.07,4.28-39.11,7.09-60.13.99-7.51,2.04-15.16,3.16-22.93,1.19-8.26,2.45-16.66,3.78-25.2.97-6.31,2-12.7,3.06-19.17.49-3.04,1-6.11,1.52-9.18h0c.91-5.4,1.83-10.83,2.81-16.34,1.86-10.67,3.84-21.53,5.92-32.6h340.12s1.46,5.88,3.77,16.48c.81,3.65,1.7,7.85,2.67,12.57,0,.03.02.05.02.08.17.83.35,1.68.52,2.54,2.06,10.05,4.43,22.21,6.89,36.09,1.92,10.78,3.89,22.59,5.82,35.23,3.18,20.85,6.26,43.98,8.77,68.52.41,4.01.81,8.06,1.2,12.15,4.5,48.47,6.64,101.72,3.16,153.45Z"/>
    <path class="st6" d="M2468.64,1039.64s74.44,23.31,89.63,36.9c15.19,13.6,66.85,129.66,66.85,190.56s12.15,154.41,0,172.01c-12.15,17.6-66.85,104.88-103.31,125.01-36.46,20.14-51.4,18.63-51.4,18.63l-8.92-90.66,39.05-143.41-19.81-216.1-12.08-92.96Z"/>
    <path class="st6" d="M2236.01,1021.91c8.17-3.05,30.05-9.26,45.36-3.56,15.31,5.7,52.16,11.4,69.73,3.56,17.58-7.84,40.25-8.89,56.13-5.51,15.87,3.38,60.66,12.64,86.74,34.02,26.08,21.38,41.94,424.78,17.85,459-8.41,11.95-50.34,52.68-116.72,40.46-53.04-9.76-113.18,32.92-169.77,3.86-44.2-22.7-79.46-22.93-79.46-22.93,0,0-53.29-356.36-23.81-437.61,0,0,3.4-29.93,113.96-71.27Z"/>
    <path class="st11" d="M2344.38,1696.77s-.04,0-.07,0c-1.1-.04-1.97-.96-1.93-2.07.34-10.3,5.93-17.65,14.38-28.78,6.22-8.19,13.97-18.39,22.45-33.44.54-.96,1.76-1.3,2.72-.76.96.54,1.3,1.76.76,2.72-8.62,15.29-16.45,25.6-22.75,33.89-8.27,10.89-13.27,17.46-13.57,26.49-.04,1.08-.92,1.93-2,1.93Z"/>
    <path class="st6" d="M2237.42,1027.4s-60.75,37.19-86.96,52.62c-26.21,15.43-43.34,37.98-49.39,51.03-6.05,13.05-20.16,24.92-19.15,33.23,1.01,8.31-23.18,43.91-28.22,73.58-5.04,29.67-14.11,128.17-14.11,131.73s16.13,85.45,16.13,85.45c0,0,47.37,56.96,57.45,70.02,10.08,13.05,40.32,34.41,44.35,34.41s29.23-20.17,28.22-40.35c-1.01-20.17-8.06-78.33-15.12-87.82-5.52-7.42-12.27-14.12-17.36-24.07-1.42-2.77-2.71-5.8-3.81-9.16-5.04-15.43,9.07-52.22,9.07-52.22,0,0,45.36-130.54,43.34-148.34-2.02-17.8,13.1-80.7,9.07-97.31-4.03-16.62,26.49-72.79,26.49-72.79Z"/>
    <path class="st11" d="M2259.23,1565.13c-35.43,0-51.48-19.26-52.17-20.1-.7-.86-.57-2.12.29-2.81.86-.7,2.12-.57,2.81.29.25.3,16.69,19.8,52.4,18.57,30.91-1.07,46.5-4.82,59.02-7.83,2.58-.62,5.02-1.21,7.5-1.75,22.59-4.96,53.91-10.85,65.06-4.65.96.54,1.31,1.75.78,2.72-.54.96-1.75,1.31-2.72.78-11.12-6.17-49.61,2.28-62.26,5.06-2.43.54-4.86,1.12-7.42,1.73-12.7,3.05-28.5,6.85-59.82,7.94-1.18.04-2.34.06-3.47.06Z"/>
    <path class="st11" d="M2158.52,1388.22c-.92,0-1.76-.64-1.96-1.59-4.56-21.55-2.23-40.92,6.91-57.58,8.41-15.32,13.83-30.84,19.57-47.26,3.37-9.63,6.84-19.58,10.96-29.4.43-1.02,1.6-1.5,2.62-1.07,1.02.43,1.5,1.6,1.07,2.62-4.07,9.71-7.53,19.6-10.87,29.17-5.54,15.86-11.28,32.25-19.84,47.87-8.67,15.79-10.85,34.24-6.5,54.83.23,1.08-.46,2.14-1.54,2.37-.14.03-.28.04-.42.04Z"/>
    <path class="st11" d="M2319.57,1028.08c-15.2,0-41.09-8.5-42.26-8.89-1.05-.35-1.62-1.48-1.27-2.53.35-1.05,1.48-1.62,2.53-1.27.3.1,30.25,9.93,43.83,8.55,7.66-.78,12.8-.59,16.21-.47,2.19.08,4.09.15,4.62-.19.93-.6,2.17-.33,2.76.6.6.93.33,2.17-.6,2.76-1.58,1.02-3.6.95-6.93.82-3.3-.12-8.28-.3-15.66.45-1.01.1-2.09.15-3.23.15Z"/>
  </g>
  <g>
    <path class="st2" d="M2835.8,1203.84c-17.1,21.99-43.98,39.9-72.5,40.71-2.71.07-7.35.39-13.54.88-45.35,3.59-173.56,17.06-230.19,23.07-16.91,1.78-27.44,2.93-27.49,2.93-6.79.73-11.92-23.99-12.17-27.63-.85-12.61,3.64-24.85,9.75-35.67,6.21-11.02,19.79-23.82,14.78-37.68-4.42-12.29-21.4-14.86-28.78-25.63-5.3-7.77-4.45-18.47-.27-26.88,6.16-12.44,17.67-22.87,30.13-28.61,10.73-4.94,19.96-10.7,24.78-20.7,1.08-2.22,1.93-4.64,2.54-7.33,3.35-15.05.29-34.01,10.56-47.23,8.55-11,29.32-22.6,48.87-44.59,3.08-3.47,6.23-6.72,9.43-9.77.71-.68,1.44-1.37,2.17-2.03,16.49-15.12,34.08-24.48,48.87-25.46,18.33-1.22,48.87,3.05,55.59,20.77,6.72,17.71,15.27,15.27,26.27,21.99,11,6.72,36.04,12.22,41.73,50.5,3.23,21.58-.02,31.76-.12,39.02-.05,4.18.93,7.38,4.79,11.24,1.32,1.34,3,2.74,5.11,4.3,18.74,13.85,38.29,25.24,49.7,43.18,11.39,17.91,17.1,58.64,0,80.63Z"/>
    <path class="st26" d="M2835.8,1203.84c-17.1,21.99-43.98,39.9-72.5,40.71-2.71.07-7.36.39-13.54.88,1.59-9.04,2.96-19.74,2.17-26.93-1.56-14.66-2.49-8.16-5.74-17.93-3.25-9.77,6.52-25.24,5.69-36.65-.81-11.39-13.83-18.72-19.55-39.09-5.69-20.35,6.71-33.12,6.71-33.12l37.15-27.2c-.05,4.18.93,7.38,4.79,11.24,1.32,1.34,3.01,2.74,5.11,4.3,18.74,13.85,38.29,25.24,49.7,43.18,11.39,17.91,17.1,58.64,0,80.63Z"/>
    <path class="st3" d="M2697.83,1233.44c-6.96,3.05-15.14,5.88-24.26,7.72h-42.93c-6.3-1.29-12.8-3.22-19.47-5.96l.51-23.19,3.49-54.91.28-4.34.63-9.93,71.77,1.93,1.19,9.36,2.33,18.33,5.07,39.96,1.39,21.04Z"/>
    <path class="st3" d="M2740.42,1088.01c-2.44,9.27-10.85,15.09-18.79,13-7.94-2.09-12.41-11.29-9.97-20.56,2.44-9.27,10.85-15.09,18.79-13,7.94,2.09,12.41,11.29,9.97,20.56Z"/>
    <path class="st8" d="M2829.98,1255.79l-14.42,337.08-106.43,3.36-204.49,6.44-16.29-352.4,123.34-38.26s29.37,22.02,84.76.4c1.33-.52,7.18.59,15.75,2.71,13.34,3.31,33.28,9.08,53,15,8.96,6.53,17.97,12.96,35.84,14.88,8.76.95,19.03,5.04,28.95,10.79Z"/>
    <path class="st26" d="M2588.19,1110.89s6.52,33.13-5.3,54.32c-11.8,21.18-16.69,22.41-11.8,41.73,4.89,19.35,5.94,14.95,4.89,26.24-.54,6.06-29.27,22.46-56.39,35.31-16.91,1.78-27.44,2.93-27.49,2.93-6.79.73-11.92-23.99-12.17-27.63-.85-12.61,3.64-24.85,9.75-35.67,6.21-11.02,19.79-23.82,14.78-37.68-4.42-12.29-21.4-14.86-28.78-25.63-5.3-7.77-4.45-18.47-.27-26.88,6.16-12.44,17.67-22.87,30.13-28.61,10.73-4.94,19.96-10.7,24.78-20.7,1.08-2.22,1.93-4.64,2.54-7.33,3.35-15.05.29-34.01,10.56-47.23,8.55-11,29.32-22.6,48.87-44.59,3.08-3.47,6.23-6.72,9.43-9.77.71-.68,1.44-1.37,2.17-2.03l6.96,77.73-22.65,75.5Z"/>
    <path class="st3" d="M2720.95,1073.51c0,52.63-30.08,95.29-67.19,95.29s-70.86-40.22-70.86-92.85,33.75-97.74,70.86-97.74,67.19,42.66,67.19,95.29Z"/>
    <path d="M2626.39,1048.08c-1.77-.55-4.13-1.08-6.29-1.44-2.21-.37-4.44-.66-6.69-.8-4.49-.32-9.01-.18-13.45.4h-.07c-2.54.34-4.87-1.46-5.19-4-.32-2.48,1.39-4.76,3.83-5.17,5.09-.85,10.25-1.2,15.38-1.02,2.57.07,5.13.3,7.69.64,2.61.36,4.99.76,7.85,1.54,2.75.75,4.38,3.59,3.63,6.34-.75,2.75-3.59,4.38-6.34,3.63-.06-.02-.11-.03-.17-.05l-.19-.06Z"/>
    <path d="M2668.4,1038.73c2.88-.71,5.27-1.04,7.89-1.34,2.57-.27,5.13-.44,7.71-.45,5.14-.05,10.29.42,15.35,1.4,2.52.49,4.16,2.92,3.67,5.43-.47,2.45-2.8,4.08-5.25,3.7h-.07c-4.43-.7-8.94-.96-13.44-.74-2.25.09-4.49.32-6.71.63-2.16.31-4.54.78-6.32,1.29l-.17.05c-2.74.79-5.6-.8-6.39-3.54-.79-2.74.8-5.6,3.54-6.39.06-.02.13-.04.19-.05Z"/>
    <path d="M2622.4,1063.26c0,3.98-2.83,7.2-6.31,7.2s-6.31-3.23-6.31-7.2,2.83-7.2,6.31-7.2,6.31,3.22,6.31,7.2Z"/>
    <path d="M2687.86,1064.48c0,3.98-2.83,7.2-6.31,7.2s-6.31-3.23-6.31-7.2,2.83-7.2,6.31-7.2,6.31,3.22,6.31,7.2Z"/>
    <path class="st3" d="M2599.24,1075.95c5.12,8.1,3.32,18.43-4.04,23.08-7.35,4.65-17.47,1.86-22.59-6.24-5.12-8.1-3.32-18.43,4.04-23.08,7.35-4.65,17.47-1.86,22.59,6.24Z"/>
    <path class="st26" d="M2780.99,1075.73c-10.73,9.38-23.6,20.5-25.02,22.63-2.44,3.67-24.11,4.12-20.55-1.53,1.17-1.86,5.89-29.62-10.6-27.18-16.49,2.44-17.71-7.33-21.97-14.05-4.25-6.72-.64-24.43-.02-30.76.61-6.3-8.55-15.66-20.16-11.39-11.61,4.28-35.43,14.66-42.15,10.38-6.72-4.28-1.22-17.71-20.77-14.66-19.55,3.05-20.16-22.6-20.16-22.6l2.1-26.88c17.13-16.32,35.6-26.46,51.04-27.49,18.33-1.22,48.87,3.05,55.59,20.77,6.72,17.71,15.27,15.27,26.27,21.99,11,6.72,36.04,12.22,41.73,50.5,5.08,33.96-5.91,39.71,4.67,50.26Z"/>
    <path class="st25" d="M2829.29,1836.22h-321.19c1.34-49.34,12.78-106.77,24.41-153.45,1.16-4.67,2.33-9.23,3.48-13.66,8.09-31.04,15.79-55.88,19.72-68.06,1.7-5.28,2.68-8.18,2.68-8.18l43.34-2.32,12.35-.67,96.75-5.19,61.37-3.29s.25,4.75,1.15,12.79c1.86,16.76,6.52,47.82,17.57,79.72,3.9,11.3,8.6,22.72,14.28,33.64,15.92,30.69,21.93,85.22,24.1,128.66Z"/>
    <path class="st20" d="M2598.43,1211.41c1.07-.2,2.01.68,1.91,1.75-1.55,15.95-11.34,115.91-13.59,120.41-2.44,4.89-4.89,25.25-5.7,41.54-.81,16.29-.81,21.99,0,44.8.81,22.81,3.26,47.24,5.7,62.71,2.44,15.47,12.62,70.25,13.24,85.52.61,15.27,1.22,22.09,4.28,35.48,3.05,13.39,7.94,26.22,6.72,35.38-1.22,9.16-127.67,46.42-127.67,46.42,0,0-12.83-8.55-14.66-21.99-1.83-13.44-10.38-20.16-12.22-34.21-1.83-14.05-6.52-96.49,3.26-136.21s-26.88-69.04-25.25-75.55c1.63-6.52,1.22-121.15,12.83-132.15,11.61-11,40.76-37.87,63.53-40.32,22.77-2.44,31.15-12.22,43.37-20.16,10.38-6.75,36.62-12.01,44.26-13.43Z"/>
    <path class="st13" d="M2563.95,1422.14c-.63,0-1.26-.3-1.65-.86-3.49-5.04-2.09-9-.6-13.19,1.65-4.68,3.53-9.98.35-19.5-2.86-8.57-7.31-15.32-11.63-21.84-4.97-7.53-9.67-14.63-10.85-23.29-1.03-7.52,1.81-18.04,4.56-28.2,2.94-10.89,5.99-22.16,3.35-27.1-2.67-5.02-8.81-9.85-14.75-14.52-5.92-4.66-11.51-9.06-13.51-13.6-1.25-2.83-1.06-8.21,14.99-22.2,8.37-7.3,17.32-13.65,17.41-13.71.9-.64,2.15-.42,2.79.48.64.9.42,2.15-.48,2.79-16.47,11.65-32.87,26.9-31.05,31.03,1.6,3.63,6.81,7.73,12.33,12.07,6.26,4.93,12.73,10.02,15.8,15.78,3.38,6.34.27,17.84-3.02,30.02-2.64,9.78-5.38,19.9-4.46,26.62,1.06,7.76,5.3,14.18,10.22,21.63,4.25,6.43,9.06,13.72,12.08,22.78,3.61,10.83,1.31,17.34-.38,22.1-1.37,3.88-2.2,6.22.12,9.58.63.91.4,2.15-.51,2.78-.35.24-.74.36-1.14.36Z"/>
    <path class="st20" d="M2447.27,1286.55c-3.26,6.9-44.21,48.93-48.4,79.54-4.19,30.61-18.85,42.09-17.63,80.35s-3.67,51.02,13.44,70.15c17.1,19.13,17.1,35.71,29.32,59.95,12.22,24.23-1.12,35.71,23.26,51.02,24.38,15.31,34.16-66.32,52.48-81.63,18.33-15.3,7.33-13.1,0-38.43-7.33-25.34-37.87-49.57-39.09-58.5s7.74-20.3,9.77-27.34c1.64-5.68,17.1-138.39,19.55-155.05,2.44-16.66-12.89-6.12-12.89-6.12l-29.82,26.06Z"/>
    <path class="st13" d="M2480.54,1587.25c-.25,0-.51-.05-.75-.15-1.02-.42-1.51-1.58-1.1-2.61,9.02-22.1,11.01-24.59,14.3-28.7,1.25-1.56,2.66-3.32,4.78-6.62,3.34-5.22,5.53-7.63,6.98-9.23,1.81-2,2.3-2.53,3.01-6.51,1.05-5.86-4.04-10.65-5.29-11.72-1.14-.46-1.55-2.27-4.42-17.73-2.35-12.61-12.41-34.45-24.48-40.96-5.89-3.17-12.66-7.77-12.75-15.2-.05-4.02,1.38-7.7,2.77-11.26l.35-.9c7.05-18.25,10.12-37.95,12.21-54.81.86-7,1.07-14.13,1.26-21.03.19-6.85.39-13.94,1.24-20.97.13-1.1,1.13-1.88,2.22-1.75,1.1.13,1.88,1.13,1.75,2.22-.82,6.85-1.02,13.84-1.21,20.61-.2,6.99-.4,14.22-1.29,21.4-2.11,17.1-5.24,37.1-12.44,55.76l-.35.91c-1.3,3.35-2.53,6.51-2.5,9.76.06,5.32,5.42,8.91,10.65,11.73,13.33,7.18,23.97,30.02,26.52,43.75,2.07,11.14,2.86,14.48,3.13,15.46,1.8,1.55,8,7.55,6.59,15.43-.88,4.91-1.8,6.08-3.99,8.49-1.44,1.59-3.41,3.76-6.58,8.7-2.23,3.48-3.71,5.33-5.02,6.96-3.07,3.83-4.92,6.15-13.72,27.71-.32.78-1.06,1.24-1.85,1.25ZM2505.21,1519.07h.01-.01Z"/>
    <path class="st21" d="M2614.08,1591.89c-1.05,0-1.94-.83-2-1.89-.06-1.1.79-2.05,1.89-2.11l115.08-6.24c1.07-.06,2.05.78,2.11,1.89.06,1.1-.79,2.05-1.89,2.11l-115.08,6.24s-.07,0-.11,0Z"/>
    <path class="st20" d="M2852.14,1493.01c9.77,39.71,5.09,122.16,3.26,136.21-1.83,14.05-10.39,20.77-12.22,34.2-1.49,10.92-10.23,18.61-13.46,21.12-.73.57-1.68.73-2.57.47-13.67-4.06-125.16-37.42-126.3-46.02-1.23-9.16,3.67-21.99,6.71-35.38.61-2.69,1.13-5.11,1.56-7.39,1.74-9.08,2.23-15.89,2.72-28.09.61-15.27,10.78-70.04,13.23-85.52,2.44-15.47,4.88-39.91,5.7-62.71.81-22.81.81-28.51,0-44.8-.82-16.29-3.26-36.65-5.7-41.54-2.19-4.36-11.03-97.99-12.9-117.87-.02-.19-.02-.39,0-.58.16-1.6,1.66-2.81,3.33-2.52,9.06,1.51,32.39,5.9,42.13,12.24,2.62,1.71,5.07,3.5,7.53,5.28,8.96,6.53,17.97,12.96,35.84,14.88,8.76.95,19.03,5.04,28.95,10.79,14.88,8.64,28.98,21.06,35.99,32.23,13.13,20.88,8.14,50.9,9.17,74.27.76,17.31-1.98,38.27,2.25,55.17,1.62,6.52-35.02,35.83-25.25,75.56Z"/>
    <path class="st13" d="M2741.2,1423.65c-.39,0-.79-.12-1.14-.36-.91-.63-1.13-1.88-.51-2.78,2.32-3.35,1.49-5.7.12-9.58-1.68-4.76-3.98-11.27-.38-22.1,3.02-9.07,7.84-16.35,12.08-22.78,4.92-7.44,9.16-13.87,10.22-21.63.92-6.72-1.82-16.84-4.46-26.62-3.29-12.18-6.4-23.68-3.02-30.02,3.07-5.76,9.54-10.85,15.8-15.78,5.52-4.34,10.73-8.44,12.33-12.07,1.91-4.33-12.86-20.31-27.65-32.64-.85-.71-.96-1.97-.26-2.82.71-.85,1.97-.96,2.82-.26,7.76,6.46,32.75,28.26,28.74,37.33-2.01,4.54-7.6,8.94-13.51,13.6-5.93,4.67-12.07,9.5-14.75,14.52-2.63,4.94.41,16.2,3.35,27.1,2.75,10.17,5.59,20.68,4.56,28.2-1.18,8.66-5.88,15.77-10.85,23.29-4.31,6.53-8.77,13.28-11.63,21.85-3.17,9.52-1.3,14.83.35,19.5,1.48,4.19,2.88,8.15-.6,13.19-.39.56-1.01.86-1.65.86Z"/>
    <path class="st20" d="M2864.08,1286.55c3.26,6.9,44.21,48.93,48.4,79.54,4.19,30.61,18.85,42.09,17.62,80.35-1.22,38.26,3.67,51.02-13.44,70.15-17.1,19.13-17.1,35.71-29.32,59.95-12.22,24.23,1.12,35.71-23.26,51.02-24.38,15.31-34.16-66.32-52.48-81.63-18.33-15.3-7.33-13.1,0-38.43,7.33-25.34,37.87-49.57,39.09-58.5,1.22-8.93-7.74-20.3-9.77-27.34-1.64-5.68-17.1-138.39-19.55-155.05-2.44-16.66,12.89-6.12,12.89-6.12l29.82,26.06Z"/>
    <path class="st13" d="M2801.57,1610.28c-.73,0-1.43-.4-1.79-1.09-.04-.07-3.7-7.14-12.09-14.84-1.38-1.26-2.74-2.42-4.06-3.53-7.08-5.98-13.2-11.14-10.97-25.59,1.26-8.2,3.81-11.87,6.51-15.76,2.77-3.99,5.64-8.12,7.93-18.17,4.62-20.26,34.49-98.75,35.76-102.08.39-1.03,1.55-1.55,2.58-1.16,1.03.39,1.55,1.55,1.16,2.58-.31.81-31.04,81.56-35.59,101.55-2.47,10.81-5.69,15.46-8.54,19.56-2.53,3.65-4.72,6.8-5.84,14.09-1.88,12.23,2.69,16.09,9.6,21.93,1.35,1.14,2.75,2.32,4.19,3.64,8.96,8.23,12.79,15.66,12.95,15.98.5.99.11,2.19-.88,2.69-.29.15-.6.22-.9.22Z"/>
    <path class="st21" d="M2659.62,1829.16c-1.1,0-2-.9-2-2v-118.58l-25.88-21.63c-.85-.71-.96-1.97-.25-2.82.71-.85,1.97-.96,2.82-.25l26.59,22.23c.45.38.72.94.72,1.53v119.51c0,1.1-.9,2-2,2Z"/>
    <path class="st27" d="M2691.37,1172.44c-5.23,7.12-13.09,13.21-23.44,14.24-21.12,2.08-41.74-17.52-52.75-29.58l.28-4.34c1.1.45,2.34.93,3.78,1.39,8.5,2.79,21.49,5.69,38.8,5.67,12.52-.02,22.1-2.62,29.02-5.67l2-.03,2.33,18.33Z"/>
    <path d="M2651.01,1093.18h-5.48c-.5,0-.91-.41-.91-.91v-20.57c0-.5.41-.91.91-.91s.91.41.91.91v19.65h4.57c.5,0,.91.41.91.91s-.41.91-.91.91Z"/>
    <path class="st18" d="M2647.46,1127.71c-4.18,0-8.51-.75-12.76-2.31-.52-.19-.78-.76-.59-1.28.19-.52.76-.79,1.28-.59,12.58,4.62,25.99,1.76,32.61-6.93.34-.44.96-.53,1.4-.19.44.33.52.96.19,1.4-4.88,6.41-13.13,9.9-22.13,9.9Z"/>
    <path d="M2582.9,1096.3c0,.81-.66,1.46-1.46,1.46s-1.46-.66-1.46-1.46.66-1.46,1.46-1.46,1.46.66,1.46,1.46Z"/>
    <path d="M2724.47,1096.8c0,.81-.66,1.46-1.46,1.46s-1.46-.66-1.46-1.46.65-1.46,1.46-1.46,1.46.66,1.46,1.46Z"/>
    <circle cx="2576" cy="1092.08" r="1.1"/>
  </g>
  <g>
    <g>
      <g>
        <path class="st3" d="M2138.01,1188.91l-34.56,41.13-10.98,13.07-97.59,116.15,5.75-161.95c13.32-.82,23.71-11.86,23.71-25.21v-54.39l69.29,2.52c.94,6.23,1.88,12.48,2.82,18.72.16,1.06.32,2.12.48,3.17.03.16.04.3.07.46.54,3.58.86,7.81,1.27,12.25.08.9.16,1.81.25,2.73,1.6,16,5.05,33.46,23.94,32.28l15.56-.95Z"/>
        <path class="st27" d="M2098.26,1154.84c-4.66,8.13-12.28,15.58-22.69,16.71-19.89,2.17-39.28-19.25-48.85-31.1-1.02-1.27-1.76-2.42-2.38-3.42v-1.38c1.62.93,3.89,2.14,7.28,3.36,7.67,2.79,19.4,5.69,35.01,5.67,11.3-.02,19.95-2.63,26.19-5.67l3.62-.06c.16,1.06.32,2.12.48,3.17.03.16.04.3.07.46.54,3.58.86,7.81,1.27,12.25Z"/>
        <path d="M2129.3,1103.95s82.72-8.96,49.06-112.48c-33.66-103.52-137.19-79.11-137.19-79.11,0,0-76.59,31.21-85.85,96.82-9.26,65.61,46.28,83.61,46.28,83.61l127.7,11.16Z"/>
        <path d="M2093.22,917.66s23.75-39.89,14.6-49.9c-9.15-10.01-20.66-21.63-43.79-17.48-23.13,4.16-28.04,27.08-25.82,34.73,2.22,7.66,7.91,22.9,15.44,35.27,7.53,12.37,39.56-2.63,39.56-2.63Z"/>
        <path class="st3" d="M1999.61,1057.72c-4.73,49.67,22.29,92.88,60.36,96.51,38.07,3.63,72.77-33.7,77.5-83.37,4.73-49.67-22.29-92.88-60.36-96.51-38.07-3.63-72.77,33.7-77.5,83.37Z"/>
        <path d="M2057.16,962.01s28.62,57.65,84.16,88.79c55.55,31.14,5.47-79.11,5.47-79.11l-89.63-9.68Z"/>
        <path class="st3" d="M1978.55,1052.2c0,11.34,9.84,22.29,17.95,22.29s14.69-9.19,14.69-20.53-10.78-20.53-18.89-20.53-13.75,7.43-13.75,18.77Z"/>
        <path class="st3" d="M2151.44,1057.96c0,11.34-9.84,22.29-17.95,22.29s-14.69-9.19-14.69-20.53,10.78-20.53,18.89-20.53,13.75,7.43,13.75,18.77Z"/>
        <path d="M2033.79,1050.05c0,4.39,2.72,7.94,6.07,7.94s6.07-3.56,6.07-7.94-2.72-7.94-6.07-7.94-6.07,3.56-6.07,7.94Z"/>
        <ellipse cx="2101.37" cy="1053.96" rx="6.07" ry="7.94"/>
        <path d="M2050,1031.67c-.49.06-1,.05-1.51-.02-13.58-2.01-21.9,2.15-22.24,2.33-2.27,1.17-5.22.67-6.56-1.12-1.34-1.79-.63-4.19,1.62-5.38.47-.25,11.77-6.1,29.33-3.51,2.58.38,4.2,2.41,3.61,4.54-.48,1.7-2.23,2.95-4.24,3.18Z"/>
        <path d="M2119.16,1035.88c-.49-.1-.97-.26-1.43-.48-12.32-6.06-21.51-4.63-21.89-4.57-2.52.42-5.17-.95-5.91-3.07-.74-2.11.68-4.18,3.19-4.63.53-.09,13.07-2.22,29,5.59,2.34,1.15,3.26,3.58,2.05,5.42-.97,1.48-3.02,2.13-5.01,1.73Z"/>
        <path class="st1" d="M2070.57,1081.77c-1.04,0-2.06-.32-2.9-.94-2.57-1.88-2.7-3.21-2.4-6.24l1.25-12.77c.05-.48.48-.82.95-.78.48.05.83.47.78.95l-1.25,12.78c-.27,2.72-.17,3.31,1.7,4.67.72.53,1.65.72,2.56.53l3.24-.68c.46-.1.93.2,1.03.67.1.47-.2.93-.67,1.03l-3.24.68c-.34.07-.69.11-1.04.11Z"/>
        <path class="st8" d="M2043.37,1103.98c1.52,9.8,12.51,16.79,25.22,15.76,11.05-.89,19.83-7.55,21.91-15.79l-47.13.03Z"/>
        <path class="st1" d="M1995.61,1067.42c1.01.59,1.36,1.88.77,2.89-.58,1.01-1.88,1.36-2.89.77-1.01-.58-1.36-1.88-.77-2.89.58-1.01,1.88-1.36,2.89-.78Z"/>
        <path class="st1" d="M2138.65,1071.53c1.01.58,1.36,1.88.77,2.89-.58,1.01-1.88,1.36-2.89.77-1.01-.58-1.36-1.88-.77-2.89.59-1.01,1.88-1.36,2.89-.77Z"/>
        <polygon class="st3" points="2188.05 1667.55 2130.21 1692.56 2096.85 1657.46 2169.56 1604.98 2200.52 1662.65 2188.05 1667.55"/>
        <path class="st3" d="M1860.46,1806.58l13.06-4.27s1.62-2.31-.18-5.27c-1.8-2.96-6.08-2.87-8.16-2.65-2.08.22-6.41,1.83-6.41,1.83,0,0-5.12-5.85-10.35-8.5,0,0,1.37-7.19-1.06-11.86,0,0,5.37-5.47,4.78-13.55,0,0,.55-.97,1.36-2.47.69.31,2.01.91,2.86,1.4,1.19.68,1.29,4.57.82,6.91-.47,2.34-.99,9.75-.25,13.98s3.98,7.11,8.8,6.95c4.82-.16,4.98-4.89,5.92-9.09.94-4.19.54-8.13.2-15.68-.34-7.55,1.63-11.33,3.07-18.47,1.44-7.13.91-12.86.91-12.86-.64-5.95-3-13.15-3.64-15,.7-4.3.64-8.34-.73-11.35-2.46-5.41,5.52-44.85,5.52-44.85l-40.32,4.56,3.75,44.62s-12.62,26.42-16.8,38.3c-4.18,11.88-7.22,18.14-6.64,24.04,0,0,6.13,23.74,12.42,28.99,6.45,5.37,20.79,14.8,24.98,15.12,4.52.35,16.52-1.26,16.52-1.26,0,0,2.67-.12,4.67-1.21,0,0,1.93.03.44-4.01-1.49-4.04-5.63-3.03-15.57-4.35Z"/>
        <path class="st23" d="M1930.44,1226.32s-34.88,19.06-39.93,45.97-21.88,64.9-31.14,80.72c-9.26,15.83-21.04,48.28-22.72,59.36s-25.25,170.15-18.52,208.14c6.73,37.99,1.51,67.53,14.5,72.81,12.99,5.28,54.51,0,54.51,0l60.6-369.33-17.3-97.67Z"/>
        <path class="st9" d="M2182.99,1836.22h-334.66c.76-6.46,1.59-13.14,2.49-20,1.04-7.9,2.18-16.05,3.43-24.42.73-4.92,1.5-9.91,2.31-14.97h0c3.63-22.64,8.05-46.65,13.45-71.55h0c.35-1.62.7-3.23,1.06-4.85,0,0,0-.02,0-.03.38-1.74.76-3.46,1.16-5.21.03-.14.06-.27.09-.41,1.72-7.58,3.52-15.25,5.42-22.97,1.11-4.54,2.26-9.12,3.45-13.7,4.8-18.61,10.17-37.48,16.17-56.47h0c1.06-3.37,2.14-6.73,3.24-10.1,0,0,.99-.96,3.63-2.4,5.87-3.22,19.9-8.85,49.36-11.7h0s.09-.02.13-.02c14.37-1.39,32.41-2.1,54.95-1.56,24.98.6,55.5,2.75,92.7,7.27,0,0,2.05,7.13,5.56,18.51,3.19,10.33,7.58,24.17,12.71,39.35,4.73,13.98,10.09,29.09,15.74,43.66.63,1.62,1.25,3.23,1.89,4.83,7.36,18.61,15.13,35.99,22.55,48.51,10.84,18.29,18.41,57.58,23.16,98.21Z"/>
        <path class="st23" d="M1900.61,1484.67c.84-8.42,5.45-64.81,5.45-64.81,0,0,2.96-79.96.17-107.73-1.78-17.44,10.4-51.81,19.7-74.97,1.62-4.01,3.13-7.64,4.51-10.84l18.11-7.47,62.05-25.65s-12.36,93.12-5.62,143.62c0,0,98.74-103.22,118.94-150.35,0,0,67.33,12.32,84.17,10.1,16.83-2.25,55.01,7.84,70.7,125.68,15.72,117.83,66.22,179.54,68.48,200.88,2.22,21.31,13.47,44.88-13.47,71.81-26.93,26.93-71.84,68.44-77.43,76.32-5.62,7.84-60.6,21.31-60.6,21.31l-57.13-103.7c-1.85-3.37-.41-7.6,3.12-9.12,9.59-4.14,26.79-11.61,31.56-14,6.73-3.37,49.93-25.79,49.93-25.79,0,0-33.94-46.02-38.14-94.84-1.89-21.82-2.76-39.05-3.13-51.51-.5,41.85-5.86,129.31-40.06,174.39l-17.98,33.66h-226.55s-1.12-7.07,0-13.32c2.02-11.25,2.4-95.25,3.24-103.67Z"/>
      </g>
      <path class="st17" d="M1841.03,1695.96c-.17,0-.35-.02-.53-.07l-12.18-3.33c-2.86-.78-6.35-4.16-7.99-23.47-.82-9.65-.8-19.18-.79-20.23l-4.6-54.56c0-.1,0-.19,0-.29l2.92-46.94c.11-1.02,10.34-92.34,13.59-112.64,3.4-21.25,8.55-46.46,21-72.4,12.35-25.75,33.15-77.72,33.36-78.25.41-1.03,1.57-1.52,2.6-1.12,1.03.41,1.52,1.57,1.12,2.6-.21.52-21.05,52.62-33.46,78.49-12.22,25.48-17.3,50.34-20.65,71.3-3.23,20.21-13.45,111.44-13.55,112.36l-2.9,46.7,4.6,54.5c0,.06,0,.12,0,.19-.18,20.72,2.5,38.99,5.84,39.91l12.18,3.33c1.07.29,1.69,1.39,1.4,2.46-.24.89-1.05,1.47-1.93,1.47Z"/>
      <path class="st17" d="M1894,1564.18c-.54,0-1.08-.22-1.47-.65-.64-.7-6.33-8.19-7.15-53.96-.82-45.81,8.44-79.97,10.92-83.47.64-.9,1.89-1.11,2.79-.47.9.64,1.11,1.87.48,2.77-1.69,2.72-11.01,35.48-10.19,81.09.78,43.3,5.84,50.95,6.16,51.39.68.82.61,2.03-.18,2.76-.38.35-.87.53-1.35.53Z"/>
      <path class="st17" d="M2004.97,1338.81c-.22,0-.45-.04-.66-.11-.72-.25-1.24-.9-1.32-1.66-.07-.63-6.89-63.47,5.23-143.19.17-1.09,1.18-1.85,2.28-1.68,1.09.17,1.84,1.19,1.68,2.28-10.25,67.43-6.87,122.62-5.6,137.92,16.58-16.81,96.67-99.49,115.49-146.65.41-1.03,1.57-1.53,2.6-1.12,1.03.41,1.53,1.57,1.12,2.6-21.23,53.18-115.39,147.06-119.39,151.03-.38.38-.89.58-1.41.58Z"/>
      <path class="st17" d="M2256.36,1673.25c-.45,0-.91-.15-1.29-.47-.84-.71-.96-1.97-.24-2.82.2-.23,19.94-23.6,57.19-56.5l1.3-1.15c12.87-11.36,28.89-25.49,33.9-42.23,6.22-20.81,1.75-45.42-13.28-73.17-12.45-22.98-22.17-47.75-31.58-71.72-1.01-2.57-2.02-5.14-3.03-7.71-.41-1.03.1-2.19,1.13-2.59,1.03-.4,2.19.1,2.59,1.13,1.01,2.57,2.02,5.14,3.03,7.72,9.36,23.85,19.04,48.51,31.37,71.27,15.56,28.71,20.13,54.36,13.59,76.22-5.33,17.83-21.83,32.39-35.08,44.08l-1.3,1.14c-37,32.69-56.58,55.85-56.77,56.08-.4.47-.96.71-1.53.71Z"/>
      <path class="st17" d="M2172.9,1490.54c-.12,0-.25-.01-.37-.04-1.09-.21-1.8-1.25-1.59-2.34.01-.06,1.17-6.23,3.65-21.55,2.47-15.25,5.35-72.53,5.38-73.11.05-1.1,1.02-1.95,2.1-1.9,1.1.05,1.95.99,1.9,2.1-.12,2.36-2.92,58.08-5.42,73.55-2.49,15.39-3.66,21.6-3.67,21.66-.18.96-1.02,1.63-1.96,1.63Z"/>
    </g>
    <path class="st1" d="M2051.95,1215.71c-2.95,0-5.79-.37-8.51-1.12-18.67-5.13-24.9-26.61-24.96-26.83l.96-.27c.06.21,6.14,21.16,24.27,26.13,16.65,4.56,37.89-5.31,63.13-29.37l.69.72c-21.43,20.43-40.08,30.73-55.58,30.73Z"/>
  </g>
  <g>
    <g>
      <path class="st27" d="M1508.22,1686.76s20.97,6.24,25.12,7.14c0,0-7.18,29.6-21.92,36.83l-.35.17-2.84-44.15Z"/>
      <g>
        <g>
          <path class="st18" d="M1490.11,1213.62s5.47-4.19,12.48,1.98c37.36,32.85,33.77,90.02,33.25,104.69-.52,14.66,12.9,68.18,19.96,88.26,7.06,20.08,15.61,31.96,20.83,66.91,5.22,34.95-.01,104.04.58,112.56.6,8.52,7.43,49.87,11.01,61.21,2.67,8.48-.42,34.23-9.72,38.37-9.31,4.14-15.35,9.53-49.61,5.3-34.25-4.24-25.48-15.6-26.04-31.42-.56-15.81-5.54-29.93-5.69-36.98-.15-7.04-1.51-20.34-1.45-38.02.06-17.68,1.29-10.81-2.17-27.93-3.46-17.12-28.3-103.7-19.3-125.02,9-21.32-24.7-92.8-24.16-98.19.55-5.39-8.13-54.37-8.13-54.37,0,0,7.38-23.05,19.14-39.51,11.75-16.46,27.31-25.58,29.01-27.84h0Z"/>
          <path class="st23" d="M1361.77,1513.64v65.16l-1.4,65.83-.22,10.06s0,.02,0,.03l-3.87,181.5h-156.81l15.3-184.64,1.7-20.48.46-5.62.84-10.05h0s3.26-39.36,3.26-39.36l3.13-37.86,2.04-24.56h135.57Z"/>
          <path class="st23" d="M1521.27,1836.22h-156.81l-3.95-184.79s0-.02,0-.03l-.13-6.77-1.41-65.83v-65.16h135.57l7.96,95.98h0s1.11,13.47,1.11,13.47l.13,1.49v.05l.72,8.67h0s4.45,53.67,4.45,53.67l.06.67,3.52,42.54,8.79,106.06Z"/>
          <path class="st10" d="M1207.07,1140.72s-8.86-55.52,12.8-84.05c21.67-28.53,14.77-52.98,14.77-66.22s3.94-55.01,22.65-70.29c18.71-15.28,26.59-48.9,87.65-36.68,0,0,15.76-9.17,56.13-4.08,40.38,5.09,57.12,58.07,59.09,69.28,1.97,11.21,5.91,34.64,15.76,45.84,9.85,11.21,19.7,36.68,12.8,62.14-6.89,25.47-7.21,30.56,2.3,54,9.51,23.43,4.59,30.05,4.59,30.05,0,0-115.22,47.37-288.55,0Z"/>
          <polygon class="st3" points="1405.5 1183.5 1309.37 1183.5 1319.16 1116.42 1319.82 1111.93 1321.19 1102.51 1393.68 1102.51 1395.23 1113.09 1398.06 1132.47 1405.5 1183.5"/>
          <path class="st27" d="M1398.06,1132.47c-5.46,7.14-13.53,13.19-24.08,14.21-21.9,2.14-43.26-17.79-54.82-30.26l.66-4.49c.99.39,2.1.79,3.35,1.19,8.87,2.88,22.43,5.86,40.47,5.85,13.07-.02,23.06-2.72,30.28-5.85l1.31-.02,2.83,19.38Z"/>
          <ellipse class="st3" cx="1354.17" cy="1016.03" rx="82" ry="110.93"/>
          <path class="st3" d="M1297.29,1035.44c4.24,11.5.57,23.63-8.2,27.08-8.77,3.46-19.31-3.06-23.55-14.56-4.24-11.5-.57-23.63,8.2-27.08,8.77-3.46,19.31,3.06,23.55,14.56Z"/>
          <path class="st3" d="M1422.08,1035.44c-4.23,11.5-.56,23.63,8.21,27.08,8.77,3.45,19.31-3.07,23.54-14.58,4.23-11.5.56-23.63-8.21-27.08-8.77-3.45-19.31,3.07-23.54,14.58Z"/>
          <path class="st18" d="M1297.58,994.35c-1.73,0-3.36-1.05-4.08-2.79-.96-2.33.1-5.03,2.35-6.02,21.3-9.34,37.48-.63,38.16-.26,2.16,1.19,2.98,3.98,1.83,6.21-1.15,2.23-3.81,3.08-5.98,1.9-.62-.33-13.35-6.94-30.54.61-.57.24-1.15.36-1.73.36Z"/>
          <path class="st18" d="M1376.27,994.35c-1.73,0-3.36-1.05-4.08-2.79-.96-2.33.1-5.03,2.35-6.02,21.3-9.34,37.48-.63,38.16-.26,2.16,1.19,2.98,3.98,1.83,6.21-1.15,2.23-3.8,3.08-5.98,1.9-.62-.33-13.35-6.94-30.54.61-.57.24-1.15.36-1.73.36Z"/>
          <path class="st18" d="M1321.19,1018.19c0,5.23-3.24,9.46-7.23,9.46s-7.23-4.24-7.23-9.46,3.24-9.46,7.23-9.46,7.23,4.24,7.23,9.46Z"/>
          <path class="st18" d="M1400.92,1018.19c0,5.23-3.24,9.46-7.23,9.46s-7.23-4.24-7.23-9.46,3.24-9.46,7.23-9.46,7.23,4.24,7.23,9.46Z"/>
          <path class="st10" d="M1344.95,915.06s-48.26,68.92-55.15,104.76c-6.89,35.83-46.29,24.63-50.23,25.65-3.94,1.02,23.64-114.1,23.64-114.1l81.74-35.66v19.36Z"/>
          <path class="st10" d="M1344.95,891.25v23.81c10.79,22.6,24.37,43.83,40.6,62.65,17.21,19.94,38.69,37.33,59.71,52.76,3.57,2.62,8.81,5.48,12.1,8.4-2.95-17.42-8.35-34.8-11.65-52.17-2.96-15.61-4.87-32.2-9.67-47.7-1.48-2.29-91.09-47.75-91.09-47.75Z"/>
          <path class="st18" d="M1303.8,1136.74s-4.46,8.77-4.46,17.07,7.14,30.45-11.6,31.37c-18.73.92-80.21,41.52-96.3,53.51-16.08,12-11.62,37.83-11.62,37.83,0,0,33,334.24,38.35,339.77,5.35,5.54,82.28-74.04,111.04-70.58,28.76,3.46,19.62,9.92,31.22,9,11.59-.92,16.05-10.15,19.62-9.69,3.57.46,15.61,2.77,21.41,6.92,5.8,4.15,28.1-2.31,43.26,11.53,15.16,13.84,75.81,59.97,75.81,59.97,0,0,8.03-65.51-5.35-85.81-13.38-20.3,5.35-199.3,0-205.76-5.35-6.46-9.81-114.41-9.81-114.41,0,0-56.41-30.22-74.48-30.91-18.06-.69-13.38-44.29-13.38-44.29l-113.72-5.54Z"/>
          <path class="st18" d="M1354.15,1092.56c-4.18,0-8.51-.75-12.76-2.31-.52-.19-.78-.76-.59-1.28.19-.52.77-.78,1.28-.59,12.58,4.61,25.99,1.76,32.61-6.93.33-.44.96-.52,1.4-.19.44.34.52.96.19,1.4-4.88,6.41-13.13,9.9-22.13,9.9Z"/>
          <path class="st18" d="M1431.79,1091.67c-.2,0-.41,0-.61-.01-5.11-.2-9.49-2.82-12.02-7.18-.21-.36-.09-.82.27-1.02.36-.21.82-.09,1.03.27,2.27,3.91,6.2,6.25,10.78,6.43,4.8.21,9.41-2.09,12.08-5.95,4.05-5.86,4.67-14.53,1.48-20.61-2.2-4.2-5.91-6.51-10.44-6.51-.41,0-.75-.34-.75-.75s.34-.75.75-.75h0c5.12,0,9.3,2.6,11.77,7.32,3.43,6.55,2.77,15.88-1.58,22.16-2.84,4.11-7.69,6.61-12.76,6.61Z"/>
          <path class="st18" d="M1276.31,1091.67c-5.07,0-9.92-2.5-12.76-6.61-3.8-5.49-4.1-13.13-.78-19.47,2.95-5.63,8.22-8.99,14.1-8.99h0c.41,0,.75.34.75.75s-.34.75-.75.75c-5.39,0-10.05,2.99-12.77,8.19-3.07,5.85-2.8,12.88.69,17.92,2.67,3.86,7.3,6.15,12.08,5.95,4.59-.18,8.52-2.53,10.79-6.43.21-.36.67-.48,1.03-.27.36.21.48.67.27,1.02-2.53,4.36-6.91,6.98-12.02,7.18-.2,0-.41.01-.61.01Z"/>
          <path class="st18" d="M1354.69,1051.38h-1.2c-3.98,0-7.2-3.34-7.2-7.45v-21.73c0-.68.54-1.24,1.2-1.24s1.2.56,1.2,1.24v20.49c0,3.43,2.69,6.21,6,6.21h0c.66,0,1.2.56,1.2,1.24s-.54,1.24-1.2,1.24Z"/>
          <path class="st3" d="M1316.95,1598.26l-43.16-26.22,3.03-8.82c2.15-3.07,4.57-6.65,1.78-9.29-2.88-2.72-7.5-3.33-11.16-1.47l-48.24,24.53-34.11,27.91c22.16,21.85,38.53,23.53,48.51,20.97,1.04.46,2.08.93,3.15,1.35l37.01,14.27c3.35,1.77,7.69.93,9.89-1.92,1.6-2.06,2.58-5.56-4.33-9.75l6.91,4.19c3.55,1.88,8.14.93,10.39-2.13,2.09-2.7.64-6.76-3.33-9.76l5.36,2.62c3.87,2.05,8.98.84,11.09-2.82,1.83-3.18.39-7.07-2.94-9.09l-7.62-4.61,8.86.98c4.26,1.92,10.1,2.63,12.19-1.34,1.79-3.41.2-7.47-3.3-9.61h0Z"/>
          <path class="st18" d="M1191.44,1238.69s-94.16,89.17-102.94,102.62c-8.27,12.67-13.79,15.74-19.55,20.24-5.76,4.5-3.98,8.16-23.59,40.62-14.63,24.21-23.38,64.36-13.32,92.11,10.41,28.7,38.13,48.3,63.82,62.29,27.85,15.16,33.17,20.07,55.39,33.59,22.23,13.53,28.05,16.1,40.19,29.07,7.25,7.75,24.48,11.44,34.87,14.81,4.57,1.48,10.17-3.64,11.52-8.39l20.15-68.39s-17.41-43.01-52.25-60.47c-19.87-9.96-43.08-20.37-54.43-30.39-9.22-8.13,24.14-25.43,31.06-31.39,5.7-4.91,27.73-24.73,31.66-26.08,3.92-1.35,15.69-57.82,15.69-58.66s-38.26-111.59-38.26-111.59Z"/>
        </g>
        <path class="st19" d="M1355.21,1772.57s-.04,0-.06,0c-1.1-.03-1.98-.95-1.94-2.05.12-4.49,3.01-110.09,5.81-122.38,3.18-13.98,28.5-40.33,29.57-41.44.77-.8,2.03-.82,2.83-.05.79.77.82,2.03.05,2.83-.26.27-25.62,26.66-28.55,39.55-2.71,11.91-5.68,120.5-5.71,121.6-.03,1.09-.92,1.95-2,1.95Z"/>
      </g>
    </g>
    <path class="st16" d="M1196.78,1425.45c-.59,0-1.17-.26-1.57-.76-.69-.87-.54-2.12.33-2.81,11.77-9.32,22.25-20.67,31.15-33.74,1.53-2.25,3-4.9,4.55-7.71,3.64-6.59,7.41-13.4,12.95-16.83.94-.58,2.17-.29,2.75.65.58.94.29,2.17-.65,2.75-4.65,2.87-8.16,9.22-11.55,15.36-1.6,2.89-3.11,5.62-4.74,8.02-9.12,13.4-19.88,25.05-31.97,34.63-.37.29-.81.43-1.24.43Z"/>
    <path class="st16" d="M1257.6,1533.53c-.74,0-1.46-.42-1.8-1.13h0c-.06-.12-6.12-12.32-19.39-18-14.36-6.15-18.51-10.21-18.68-10.38-.78-.78-.78-2.05,0-2.83.78-.78,2.05-.78,2.83,0,.03.03,3.98,3.77,17.42,9.53,14.69,6.29,21.15,19.38,21.42,19.94.48.99.06,2.19-.93,2.67-.28.14-.58.2-.87.2Z"/>
    <path class="st16" d="M1505.34,1578.87c-.16,0-.32-.02-.48-.06-1.07-.26-1.73-1.34-1.47-2.42.02-.1,2.44-10.54-.84-29.58l-.7-4.05c-1.78-10.23-1.85-10.63-.69-16,.46-2.13,1.09-5.04,1.86-10,2.76-17.7-13.27-79.78-13.43-80.41-.28-1.07.36-2.16,1.43-2.44,1.07-.28,2.16.36,2.44,1.43.67,2.59,16.4,63.51,13.51,82.03-.79,5.07-1.43,8.05-1.9,10.22q-1,4.61.72,14.47l.7,4.06c3.43,19.96.89,30.76.78,31.21-.22.91-1.04,1.53-1.94,1.53Z"/>
  </g>
</svg>