<?xml version="1.0" encoding="UTF-8"?>
<svg xmlns="http://www.w3.org/2000/svg" version="1.1" xmlns:xlink="http://www.w3.org/1999/xlink" viewBox="0 0 800 800">
  <!-- Generator: Adobe Illustrator 29.7.1, SVG Export Plug-In . SVG Version: 2.1.1 Build 8)  -->
  <defs>
    <style>
      .st0, .st1 {
        fill: #247d6c;
      }

      .st1, .st2, .st3 {
        fill-rule: evenodd;
      }

      .st4, .st2, .st5 {
        fill: #fff;
      }

      .st6 {
        fill: #ffe0b8;
      }

      .st7, .st8 {
        fill: none;
      }

      .st9 {
        isolation: isolate;
      }

      .st10 {
        fill: #6cbab4;
      }

      .st11 {
        fill: #355566;
      }

      .st2, .st8, .st5 {
        mix-blend-mode: soft-light;
      }

      .st3, .st12, .st13 {
        fill: #8cd3cb;
      }

      .st8 {
        stroke: #fff;
        stroke-width: 30px;
      }

      .st8, .st13 {
        stroke-miterlimit: 10;
      }

      .st13 {
        stroke: #247d6c;
        stroke-width: 6px;
      }

      .st14 {
        clip-path: url(#clippath);
      }
    </style>
    <clipPath id="clippath">
      <circle class="st7" cx="403.24" cy="407" r="316.57" transform="translate(-169.69 404.34) rotate(-45)"/>
    </clipPath>
  </defs>
  <g class="st9">
    <g id="objects">
      <g class="st14">
        <rect class="st10" x="30.02" y="29.94" width="737.76" height="737.76"/>
        <polygon class="st5" points="579.37 418.19 397.94 418.04 399.03 229.1 410.22 214.05 421.42 229.23 420.46 395.96 579.67 395.81 594.13 407 579.37 418.19"/>
        <circle class="st8" cx="403.24" cy="407" r="282.8" transform="translate(-169.69 404.34) rotate(-45)"/>
        <g>
          <path class="st6" d="M312.57,489.07l15.2.11s7.82-20.04,20.89-24.07l141.07-2.65s12.43-1.32,12.43,11.06c0,5.55-1.95,10.21-9.09,10.21l-73.73,1.35,1.88,5.72,83,.33s11.85.49,11.85,9.77-8.61,10.57-8.61,10.57l-79.86,2.57-1.02,6.17,87.47-.97s9.17-.53,9.17,10.04-10.55,10.55-10.55,10.55l-86.91.47v6.35l77.53.88s10.35,1.06,10.35,10.35c0,9.29-8.15,10.59-8.15,10.59l-193.12-4.27.2-75.14Z"/>
          <path class="st12" d="M467.56,558.79c-22.58,22.58-59.2,22.58-81.78,0-22.58-22.58-22.58-59.2,0-81.78,22.58-22.58,59.2-22.58,81.78,0,22.58,22.58,22.58,59.2,0,81.78Z"/>
          <path class="st4" d="M381.29,563.29c-25.03-25.02-25.03-65.74,0-90.77,25.03-25.03,65.74-25.03,90.77,0,25.02,25.02,25.02,65.74,0,90.77-25.03,25.02-65.74,25.02-90.77,0ZM464.3,480.27c-20.75-20.75-54.51-20.75-75.26,0-20.75,20.75-20.75,54.51,0,75.26,20.75,20.75,54.51,20.75,75.26,0,20.75-20.75,20.75-54.51,0-75.26Z"/>
          <path class="st11" d="M376.16,568.41c-27.85-27.85-27.85-73.16,0-101.01,27.85-27.85,73.17-27.85,101.02,0,27.85,27.85,27.85,73.17,0,101.01-27.85,27.85-73.17,27.85-101.02,0ZM468.55,476.02c-23.09-23.09-60.67-23.09-83.76,0-23.09,23.09-23.09,60.67,0,83.76,23.09,23.09,60.67,23.09,83.76,0,23.09-23.09,23.09-60.67,0-83.76Z"/>
          <path class="st4" d="M393.26,484.31c-2.27,2.27-5.95,2.27-8.22,0-2.27-2.27-2.27-5.95,0-8.22,2.27-2.27,5.95-2.27,8.22,0,2.27,2.27,2.27,5.95,0,8.22Z"/>
          <path class="st4" d="M468.39,559.44c-2.27,2.27-5.95,2.27-8.22,0-2.27-2.27-2.27-5.95,0-8.22,2.27-2.27,5.95-2.27,8.22,0,2.27,2.27,2.27,5.95,0,8.22Z"/>
          <path class="st4" d="M468.39,484.38c-2.27,2.27-5.95,2.27-8.22,0-2.27-2.27-2.27-5.95,0-8.22,2.27-2.27,5.95-2.27,8.22,0,2.27,2.27,2.27,5.95,0,8.22Z"/>
          <path class="st4" d="M393.04,559.73c-2.27,2.27-5.95,2.27-8.22,0-2.27-2.27-2.27-5.95,0-8.22,2.27-2.27,5.95-2.27,8.22,0,2.27,2.27,2.27,5.95,0,8.22Z"/>
          <path class="st4" d="M430.92,521.97c-2.27,2.27-5.95,2.27-8.22,0-2.27-2.27-2.27-5.95,0-8.22,2.27-2.27,5.95-2.27,8.22,0,2.27,2.27,2.27,5.95,0,8.22Z"/>
          <rect class="st4" x="422.11" y="474.5" width="1.4" height="44.36" transform="translate(-83.74 85.74) rotate(-10.54)"/>
          <rect class="st4" x="437.98" y="507.99" width="1.4" height="25.36" transform="translate(-165.58 834.36) rotate(-77.32)"/>
          <path class="st6" d="M309.16,525.65s28.86-5.93,45.91,5.43c17.04,11.36,21.53,25.12,21.53,25.12l44.03,1.89s18.54,1.2,19.29,20.78l-95.46-1.89s-10.84.9-22.73-12.33l-12.67-.44.1-38.56Z"/>
          <rect class="st4" x="302.71" y="480.2" width="9.66" height="92.18"/>
          <rect class="st11" x="36.46" y="469.36" width="266.25" height="112.69"/>
          <path class="st4" d="M291.69,482.16c0,2.55-2.07,4.61-4.61,4.61s-4.61-2.06-4.61-4.61,2.06-4.61,4.61-4.61,4.61,2.06,4.61,4.61Z"/>
          <path class="st4" d="M267.4,482.16c0,2.55-2.06,4.61-4.61,4.61s-4.61-2.06-4.61-4.61,2.06-4.61,4.61-4.61,4.61,2.06,4.61,4.61Z"/>
        </g>
        <g>
          <path class="st6" d="M602.83,347.21s-35.66,20.43-48.32,21.52c-12.66,1.09-91.33-67.78-91.33-67.78,0,0,19.76-24.45,25.76-25.29,5.99-.84,75.68,12.93,75.68,12.93l13.27-6.02,24.95,64.64Z"/>
          <g>
            <rect class="st0" x="315.15" y="315.94" width="193.26" height="106.3" transform="translate(-78.08 112.52) rotate(-14.23)"/>
            <rect class="st12" x="322.29" y="323.17" width="178.99" height="91.83" transform="translate(-78.07 112.51) rotate(-14.23)"/>
            <path class="st0" d="M480.52,297.28c6.62-1.67,13.33,2.33,15.01,8.94,1.68,6.61-2.32,13.33-8.94,15.01-6.62,1.68-13.33-2.33-15.01-8.94-1.67-6.62,2.33-13.33,8.94-15.01Z"/>
            <path class="st0" d="M500.46,375.95c6.61-1.68,13.33,2.32,15.01,8.94,1.68,6.61-2.32,13.33-8.94,15.01-6.61,1.68-13.33-2.32-15.01-8.94-1.68-6.61,2.32-13.33,8.94-15.01Z"/>
            <path class="st0" d="M317.13,338.71c6.61-1.68,13.33,2.33,15.01,8.94,1.67,6.61-2.32,13.33-8.94,15.01-6.61,1.68-13.33-2.33-15.01-8.94-1.68-6.61,2.32-13.33,8.94-15.01Z"/>
            <path class="st0" d="M404.56,340.61c15.73-3.99,31.71,5.53,35.69,21.25,3.99,15.73-5.53,31.71-21.25,35.69-15.73,3.99-31.71-5.53-35.69-21.25-3.99-15.73,5.53-31.71,21.25-35.69Z"/>
            <path class="st0" d="M337.08,417.37c6.61-1.68,13.33,2.32,15.01,8.94,1.68,6.61-2.32,13.33-8.94,15.01-6.61,1.68-13.33-2.32-15.01-8.94-1.68-6.61,2.32-13.33,8.94-15.01Z"/>
          </g>
          <rect class="st4" x="589.5" y="268.28" width="9.26" height="88.37" transform="translate(-72.09 230.2) rotate(-20.7)"/>
          <rect class="st0" x="315.15" y="292.11" width="193.26" height="106.3"/>
          <rect class="st12" x="322.29" y="299.35" width="178.99" height="91.83"/>
          <path class="st0" d="M496.06,292.55c6.82,0,12.35,5.53,12.35,12.35s-5.53,12.35-12.35,12.35-12.35-5.53-12.35-12.35,5.53-12.35,12.35-12.35Z"/>
          <path class="st0" d="M500.68,371.99c6.82,0,12.35,5.53,12.35,12.35s-5.53,12.35-12.35,12.35-12.35-5.53-12.35-12.35,5.53-12.35,12.35-12.35Z"/>
          <path class="st0" d="M327.51,292.55c6.82,0,12.35,5.53,12.35,12.35s-5.53,12.35-12.35,12.35-12.35-5.53-12.35-12.35,5.53-12.35,12.35-12.35Z"/>
          <path class="st13" d="M411.42,315.89c16.22-.2,29.53,12.79,29.73,29.01.2,16.22-12.79,29.54-29.01,29.74-16.23.2-29.54-12.79-29.74-29.01-.2-16.22,12.78-29.54,29.01-29.74Z"/>
          <path class="st0" d="M327.51,373.7c6.82,0,12.35,5.53,12.35,12.35s-5.53,12.35-12.35,12.35-12.35-5.53-12.35-12.35,5.53-12.35,12.35-12.35Z"/>
          <path class="st6" d="M557.39,368.23s-30.25,6.22-48.11-5.69c-17.86-11.91-20.95-21.34-20.95-21.34l-41.18-2.72s-14.07-5.49-14.86-26.02l88.11,1.98s11.36-.94,23.82,12.93l13.28.46-.11,40.41Z"/>
          <path class="st1" d="M411.36,319.88c-14.03.24-25.19,11.8-24.96,25.81.23,14.02,11.79,25.18,25.81,24.96,14.02-.24,25.18-11.79,24.94-25.81-.23-14.02-11.79-25.19-25.8-24.95ZM418.95,354.38c-1.14,1.28-2.61,2.14-4.42,2.56v2.3h-4.31v-2c-1.25-.08-2.43-.34-3.52-.78-1.35-.56-2.66-1.42-3.91-2.61l2.98-5.01c.98,1.12,1.97,1.94,2.99,2.48.48.26.97.45,1.47.59.53.14,1.06.2,1.6.19.85-.02,1.54-.27,2.09-.77.28-.25.48-.52.61-.83v-2.1c-.12-.3-.3-.54-.53-.76-.47-.42-1.55-.85-3.22-1.27-.18-.05-.37-.1-.55-.16-2.26-.63-3.86-1.41-4.82-2.36-1.04-1.02-1.57-2.44-1.6-4.26-.04-2.22.63-4.05,2.01-5.45,1.11-1.13,2.58-1.91,4.42-2.31v-2.68h4.31v2.43c.75.11,1.5.3,2.22.56.95.33,1.89.81,2.82,1.41l-2.05,4.85c-.77-.63-1.56-1.1-2.36-1.42-.21-.08-.41-.15-.63-.2-.59-.17-1.19-.25-1.78-.24-.81,0-1.46.21-1.95.6-.28.21-.47.47-.58.75-.1.23-.14.47-.14.74s.06.53.14.75c.11.29.29.53.54.73.44.37,1.32.71,2.61,1.03l.22.06c.32.08.63.17.93.25,2.26.63,3.78,1.34,4.56,2.12.6.6,1.06,1.32,1.37,2.16.33.84.5,1.77.52,2.8.05,2.34-.64,4.29-2.03,5.86Z"/>
          <polygon class="st11" points="617.53 360.9 579.52 262.94 763.22 187.4 791 284.87 617.53 360.9"/>
          <path class="st4" d="M650.96,327.31c1.18,2.25.31,5.04-1.95,6.22-2.26,1.18-5.04.31-6.22-1.95-1.18-2.26-.31-5.04,1.95-6.22,2.26-1.18,5.04-.31,6.22,1.95Z"/>
          <path class="st4" d="M630.68,336.69c1.18,2.26.31,5.04-1.95,6.22-2.26,1.18-5.04.31-6.22-1.95-1.18-2.26-.31-5.04,1.95-6.22,2.26-1.18,5.04-.31,6.22,1.95Z"/>
          <path class="st3" d="M414.53,329.15v2.43c-.23-.03-.45-.06-.68-.07l-2.2.06c-.5.06-.98.14-1.43.26v-2.68h4.31Z"/>
          <path class="st3" d="M414.53,356.94v2.3h-4.31v-2c.29.02.6.03.9.03l2.17-.1c.42-.05.84-.12,1.23-.22Z"/>
        </g>
        <path class="st2" d="M408.78,153.76c-14.03.24-25.19,11.8-24.96,25.81.23,14.02,11.8,25.19,25.81,24.96,14.02-.24,25.18-11.8,24.94-25.81-.23-14.02-11.79-25.19-25.8-24.96ZM416.37,188.26c-1.14,1.28-2.61,2.14-4.42,2.56v2.3h-4.31v-2c-1.25-.08-2.43-.34-3.52-.78-1.35-.56-2.66-1.42-3.91-2.61l2.98-5.01c.98,1.12,1.97,1.94,2.99,2.48.48.26.97.45,1.47.59.53.14,1.06.2,1.61.19.85-.02,1.54-.27,2.09-.77.28-.25.48-.52.61-.83v-2.1c-.12-.3-.31-.54-.54-.76-.47-.42-1.55-.85-3.22-1.27-.18-.05-.37-.1-.55-.16-2.26-.63-3.86-1.41-4.82-2.36-1.04-1.02-1.57-2.44-1.6-4.26-.04-2.22.64-4.05,2.01-5.45,1.11-1.13,2.58-1.91,4.42-2.31v-2.68h4.31v2.43c.75.11,1.49.3,2.22.56.95.33,1.89.81,2.82,1.41l-2.05,4.85c-.77-.63-1.56-1.1-2.36-1.42-.21-.08-.41-.15-.63-.2-.59-.17-1.19-.25-1.78-.24-.81,0-1.46.21-1.95.6-.28.21-.47.47-.58.75-.1.23-.14.47-.14.74s.06.53.14.75c.11.29.29.53.54.73.44.37,1.32.71,2.61,1.03l.22.06c.32.08.63.17.93.25,2.26.63,3.78,1.34,4.56,2.12.6.6,1.06,1.32,1.37,2.16.33.84.5,1.77.52,2.8.05,2.34-.64,4.29-2.03,5.86Z"/>
        <path class="st2" d="M408.78,611.02c-14.03.24-25.19,11.8-24.96,25.81.23,14.02,11.8,25.19,25.81,24.96,14.02-.24,25.18-11.8,24.94-25.81-.23-14.02-11.79-25.2-25.8-24.96ZM416.37,645.52c-1.14,1.28-2.61,2.14-4.42,2.56v2.3h-4.31v-2c-1.25-.08-2.43-.34-3.52-.79-1.35-.56-2.66-1.42-3.91-2.61l2.98-5.01c.98,1.12,1.97,1.94,2.99,2.48.48.26.97.45,1.47.59.53.14,1.06.2,1.61.2.85-.02,1.54-.27,2.09-.77.28-.25.48-.52.61-.83v-2.1c-.12-.3-.31-.54-.54-.76-.47-.42-1.55-.85-3.22-1.27-.18-.05-.37-.1-.55-.16-2.26-.63-3.86-1.41-4.82-2.36-1.04-1.02-1.57-2.44-1.6-4.26-.04-2.22.64-4.05,2.01-5.45,1.11-1.13,2.58-1.91,4.42-2.31v-2.68h4.31v2.44c.75.11,1.49.3,2.22.56.95.33,1.89.81,2.82,1.41l-2.05,4.85c-.77-.62-1.56-1.1-2.36-1.42-.21-.08-.41-.15-.63-.2-.59-.17-1.19-.25-1.78-.24-.81,0-1.46.21-1.95.6-.28.21-.47.47-.58.75-.1.23-.14.47-.14.74s.06.53.14.75c.11.29.29.53.54.73.44.37,1.32.71,2.61,1.03l.22.06c.32.08.63.17.93.25,2.26.63,3.78,1.34,4.56,2.12.6.6,1.06,1.32,1.37,2.16.33.84.5,1.77.52,2.8.05,2.34-.64,4.29-2.03,5.86Z"/>
        <path class="st2" d="M176.91,381.62c-14.03.24-25.19,11.8-24.96,25.81.23,14.02,11.79,25.19,25.81,24.96,14.02-.24,25.18-11.8,24.94-25.81-.23-14.02-11.79-25.2-25.8-24.95ZM184.5,416.12c-1.14,1.28-2.61,2.14-4.42,2.56v2.3h-4.31v-2c-1.25-.08-2.43-.34-3.52-.79-1.35-.56-2.66-1.42-3.91-2.61l2.98-5.01c.98,1.12,1.97,1.94,2.99,2.48.48.26.97.45,1.47.59.53.14,1.06.2,1.6.19.85-.02,1.54-.27,2.09-.77.28-.25.48-.52.61-.83v-2.1c-.12-.3-.3-.54-.53-.76-.47-.42-1.55-.85-3.22-1.27-.18-.05-.37-.1-.55-.16-2.26-.63-3.86-1.41-4.82-2.36-1.04-1.02-1.57-2.44-1.6-4.26-.04-2.22.64-4.05,2.01-5.45,1.11-1.13,2.58-1.91,4.42-2.31v-2.68h4.31v2.44c.75.11,1.49.3,2.22.56.95.33,1.89.81,2.82,1.41l-2.06,4.85c-.77-.62-1.56-1.1-2.36-1.42-.21-.08-.41-.15-.63-.2-.59-.17-1.19-.25-1.78-.24-.81,0-1.46.21-1.95.6-.28.21-.47.47-.58.75-.1.23-.14.47-.14.74s.06.53.14.75c.11.29.29.53.54.73.44.37,1.32.71,2.61,1.03l.22.06c.32.08.64.17.93.25,2.26.63,3.78,1.33,4.56,2.12.6.6,1.06,1.32,1.37,2.16.33.84.5,1.77.52,2.8.05,2.34-.64,4.29-2.03,5.86Z"/>
        <path class="st2" d="M629.38,381.62c-14.03.24-25.19,11.8-24.96,25.81.23,14.02,11.79,25.19,25.81,24.96,14.02-.24,25.18-11.8,24.95-25.81-.23-14.02-11.79-25.2-25.8-24.95ZM636.97,416.12c-1.14,1.28-2.61,2.14-4.42,2.56v2.3h-4.31v-2c-1.25-.08-2.43-.34-3.52-.79-1.35-.56-2.66-1.42-3.91-2.61l2.98-5.01c.98,1.12,1.97,1.94,2.99,2.48.48.26.97.45,1.47.59.53.14,1.06.2,1.6.19.85-.02,1.54-.27,2.09-.77.28-.25.48-.52.61-.83v-2.1c-.12-.3-.3-.54-.53-.76-.47-.42-1.55-.85-3.22-1.27-.18-.05-.37-.1-.55-.16-2.26-.63-3.86-1.41-4.82-2.36-1.04-1.02-1.57-2.44-1.6-4.26-.04-2.22.63-4.05,2.01-5.45,1.11-1.13,2.58-1.91,4.42-2.31v-2.68h4.31v2.44c.75.11,1.49.3,2.22.56.95.33,1.89.81,2.82,1.41l-2.05,4.85c-.77-.62-1.56-1.1-2.36-1.42-.21-.08-.41-.15-.63-.2-.59-.17-1.19-.25-1.78-.24-.81,0-1.46.21-1.95.6-.28.21-.47.47-.58.75-.1.23-.14.47-.14.74s.06.53.14.75c.11.29.29.53.54.73.44.37,1.32.71,2.61,1.03l.22.06c.32.08.64.17.93.25,2.26.63,3.78,1.33,4.56,2.12.6.6,1.06,1.32,1.37,2.16.33.84.5,1.77.52,2.8.05,2.34-.64,4.29-2.03,5.86Z"/>
      </g>
    </g>
  </g>
</svg>